<svg xmlns="http://www.w3.org/2000/svg" xmlns:xlink="http://www.w3.org/1999/xlink" width="192" zoomAndPan="magnify" viewBox="0 0 144 143.999998" height="192" preserveAspectRatio="xMidYMid meet" version="1.2"><defs/><g id="0439d30e7c"><rect x="0" width="144" y="0" height="143.999998" style="fill:#ffffff;fill-opacity:1;stroke:none;"/><rect x="0" width="144" y="0" height="143.999998" style="fill:#ffffff;fill-opacity:1;stroke:none;"/><g style="fill:#000000;fill-opacity:1;"><g transform="translate(11.594096, 50.291223)"><path style="stroke:none" d="M 1.5 -5.5625 C 1.15625 -5.5625 0.863281 -5.679688 0.625 -5.921875 C 0.382812 -6.160156 0.265625 -6.453125 0.265625 -6.796875 C 0.265625 -7.816406 0.859375 -8.820312 2.046875 -9.8125 L 2.59375 -9.390625 C 2.550781 -9.335938 2.488281 -9.269531 2.40625 -9.1875 C 2.332031 -9.101562 2.222656 -8.929688 2.078125 -8.671875 C 1.929688 -8.410156 1.832031 -8.148438 1.78125 -7.890625 C 2.050781 -7.828125 2.269531 -7.691406 2.4375 -7.484375 C 2.613281 -7.285156 2.703125 -7.054688 2.703125 -6.796875 C 2.703125 -6.453125 2.582031 -6.160156 2.34375 -5.921875 C 2.113281 -5.679688 1.832031 -5.5625 1.5 -5.5625 Z M 5.3125 -5.921875 C 5.070312 -5.679688 4.785156 -5.5625 4.453125 -5.5625 C 4.117188 -5.5625 3.832031 -5.679688 3.59375 -5.921875 C 3.363281 -6.160156 3.25 -6.453125 3.25 -6.796875 C 3.25 -7.847656 3.835938 -8.851562 5.015625 -9.8125 L 5.5625 -9.390625 C 5.519531 -9.335938 5.457031 -9.269531 5.375 -9.1875 C 5.300781 -9.101562 5.191406 -8.929688 5.046875 -8.671875 C 4.898438 -8.410156 4.800781 -8.148438 4.75 -7.890625 C 5.019531 -7.828125 5.238281 -7.691406 5.40625 -7.484375 C 5.582031 -7.285156 5.671875 -7.054688 5.671875 -6.796875 C 5.671875 -6.453125 5.550781 -6.160156 5.3125 -5.921875 Z M 5.3125 -5.921875 "/></g></g><g style="fill:#000000;fill-opacity:1;"><g transform="translate(17.965279, 50.291223)"><path style="stroke:none" d="M 2.03125 -2.5 C 2.40625 -2.5 2.722656 -2.367188 2.984375 -2.109375 C 3.242188 -1.847656 3.375 -1.53125 3.375 -1.15625 C 3.375 -0.789062 3.242188 -0.476562 2.984375 -0.21875 C 2.722656 0.0390625 2.40625 0.171875 2.03125 0.171875 C 1.664062 0.171875 1.351562 0.0390625 1.09375 -0.21875 C 0.832031 -0.476562 0.703125 -0.789062 0.703125 -1.15625 C 0.703125 -1.53125 0.832031 -1.847656 1.09375 -2.109375 C 1.351562 -2.367188 1.664062 -2.5 2.03125 -2.5 Z M 2.03125 -2.5 "/></g></g><g style="fill:#000000;fill-opacity:1;"><g transform="translate(22.045182, 50.291223)"><path style="stroke:none" d="M 2.03125 -2.5 C 2.40625 -2.5 2.722656 -2.367188 2.984375 -2.109375 C 3.242188 -1.847656 3.375 -1.53125 3.375 -1.15625 C 3.375 -0.789062 3.242188 -0.476562 2.984375 -0.21875 C 2.722656 0.0390625 2.40625 0.171875 2.03125 0.171875 C 1.664062 0.171875 1.351562 0.0390625 1.09375 -0.21875 C 0.832031 -0.476562 0.703125 -0.789062 0.703125 -1.15625 C 0.703125 -1.53125 0.832031 -1.847656 1.09375 -2.109375 C 1.351562 -2.367188 1.664062 -2.5 2.03125 -2.5 Z M 2.03125 -2.5 "/></g></g><g style="fill:#000000;fill-opacity:1;"><g transform="translate(26.125084, 50.291223)"><path style="stroke:none" d="M 2.03125 -2.5 C 2.40625 -2.5 2.722656 -2.367188 2.984375 -2.109375 C 3.242188 -1.847656 3.375 -1.53125 3.375 -1.15625 C 3.375 -0.789062 3.242188 -0.476562 2.984375 -0.21875 C 2.722656 0.0390625 2.40625 0.171875 2.03125 0.171875 C 1.664062 0.171875 1.351562 0.0390625 1.09375 -0.21875 C 0.832031 -0.476562 0.703125 -0.789062 0.703125 -1.15625 C 0.703125 -1.53125 0.832031 -1.847656 1.09375 -2.109375 C 1.351562 -2.367188 1.664062 -2.5 2.03125 -2.5 Z M 2.03125 -2.5 "/></g></g><g style="fill:#000000;fill-opacity:1;"><g transform="translate(30.204987, 50.291223)"><path style="stroke:none" d="M 1.109375 -0.734375 C 0.546875 -1.347656 0.265625 -2.097656 0.265625 -2.984375 C 0.265625 -3.878906 0.546875 -4.632812 1.109375 -5.25 C 1.671875 -5.863281 2.382812 -6.171875 3.25 -6.171875 C 4.039062 -6.171875 4.695312 -5.921875 5.21875 -5.421875 L 5.21875 -6 L 7.28125 -6 L 7.28125 0 L 5.234375 0 L 5.234375 -0.671875 L 5.21875 -0.671875 C 4.695312 -0.109375 4.039062 0.171875 3.25 0.171875 C 2.382812 0.171875 1.671875 -0.128906 1.109375 -0.734375 Z M 2.859375 -4 C 2.597656 -3.738281 2.46875 -3.398438 2.46875 -2.984375 C 2.46875 -2.578125 2.59375 -2.242188 2.84375 -1.984375 C 3.101562 -1.722656 3.445312 -1.59375 3.875 -1.59375 C 4.269531 -1.59375 4.597656 -1.722656 4.859375 -1.984375 C 5.128906 -2.253906 5.265625 -2.585938 5.265625 -2.984375 C 5.265625 -3.398438 5.128906 -3.738281 4.859375 -4 C 4.585938 -4.269531 4.257812 -4.40625 3.875 -4.40625 C 3.46875 -4.40625 3.128906 -4.269531 2.859375 -4 Z M 2.859375 -4 "/></g></g><g style="fill:#000000;fill-opacity:1;"><g transform="translate(38.18943, 50.291223)"><path style="stroke:none" d="M 0.703125 0 L 0.703125 -6 L 2.765625 -6 L 2.765625 -5.359375 L 2.796875 -5.359375 C 3.328125 -5.898438 3.898438 -6.171875 4.515625 -6.171875 C 4.804688 -6.171875 5.097656 -6.128906 5.390625 -6.046875 C 5.679688 -5.972656 5.960938 -5.851562 6.234375 -5.6875 C 6.503906 -5.53125 6.722656 -5.300781 6.890625 -5 C 7.054688 -4.695312 7.140625 -4.347656 7.140625 -3.953125 L 7.140625 0 L 5.078125 0 L 5.078125 -3.390625 C 5.078125 -3.703125 4.972656 -3.972656 4.765625 -4.203125 C 4.566406 -4.441406 4.3125 -4.5625 4 -4.5625 C 3.6875 -4.5625 3.398438 -4.4375 3.140625 -4.1875 C 2.890625 -3.945312 2.765625 -3.679688 2.765625 -3.390625 L 2.765625 0 Z M 0.703125 0 "/></g></g><g style="fill:#000000;fill-opacity:1;"><g transform="translate(45.916681, 50.291223)"><path style="stroke:none" d="M 1.109375 -0.734375 C 0.546875 -1.347656 0.265625 -2.097656 0.265625 -2.984375 C 0.265625 -3.878906 0.546875 -4.632812 1.109375 -5.25 C 1.671875 -5.863281 2.382812 -6.171875 3.25 -6.171875 C 4.039062 -6.171875 4.695312 -5.921875 5.21875 -5.421875 L 5.21875 -10.046875 L 7.28125 -10.046875 L 7.28125 0 L 5.234375 0 L 5.234375 -0.671875 L 5.21875 -0.671875 C 4.695312 -0.109375 4.039062 0.171875 3.25 0.171875 C 2.382812 0.171875 1.671875 -0.128906 1.109375 -0.734375 Z M 2.859375 -4 C 2.597656 -3.738281 2.46875 -3.398438 2.46875 -2.984375 C 2.46875 -2.578125 2.59375 -2.242188 2.84375 -1.984375 C 3.101562 -1.722656 3.445312 -1.59375 3.875 -1.59375 C 4.269531 -1.59375 4.597656 -1.722656 4.859375 -1.984375 C 5.128906 -2.253906 5.265625 -2.585938 5.265625 -2.984375 C 5.265625 -3.398438 5.128906 -3.738281 4.859375 -4 C 4.585938 -4.269531 4.257812 -4.40625 3.875 -4.40625 C 3.46875 -4.40625 3.128906 -4.269531 2.859375 -4 Z M 2.859375 -4 "/></g></g><g style="fill:#000000;fill-opacity:1;"><g transform="translate(53.901125, 50.291223)"><path style="stroke:none" d=""/></g></g><g style="fill:#000000;fill-opacity:1;"><g transform="translate(57.092567, 50.291223)"><path style="stroke:none" d="M 0.703125 0 L 0.703125 -10.046875 L 2.765625 -10.046875 L 2.765625 0 Z M 0.703125 0 "/></g></g><g style="fill:#000000;fill-opacity:1;"><g transform="translate(60.564566, 50.291223)"><path style="stroke:none" d="M 1.265625 -0.703125 C 0.597656 -1.296875 0.265625 -2.054688 0.265625 -2.984375 C 0.265625 -3.921875 0.609375 -4.6875 1.296875 -5.28125 C 1.992188 -5.875 2.851562 -6.171875 3.875 -6.171875 C 4.882812 -6.171875 5.734375 -5.867188 6.421875 -5.265625 C 7.109375 -4.671875 7.453125 -3.910156 7.453125 -2.984375 C 7.453125 -2.066406 7.113281 -1.3125 6.4375 -0.71875 C 5.769531 -0.125 4.914062 0.171875 3.875 0.171875 C 2.800781 0.171875 1.929688 -0.117188 1.265625 -0.703125 Z M 2.859375 -4 C 2.597656 -3.738281 2.46875 -3.398438 2.46875 -2.984375 C 2.46875 -2.578125 2.59375 -2.242188 2.84375 -1.984375 C 3.101562 -1.722656 3.445312 -1.59375 3.875 -1.59375 C 4.269531 -1.59375 4.597656 -1.722656 4.859375 -1.984375 C 5.128906 -2.253906 5.265625 -2.585938 5.265625 -2.984375 C 5.265625 -3.398438 5.128906 -3.738281 4.859375 -4 C 4.585938 -4.269531 4.257812 -4.40625 3.875 -4.40625 C 3.46875 -4.40625 3.128906 -4.269531 2.859375 -4 Z M 2.859375 -4 "/></g></g><g style="fill:#000000;fill-opacity:1;"><g transform="translate(68.291817, 50.291223)"><path style="stroke:none" d="M 2.03125 -2.5 C 2.40625 -2.5 2.722656 -2.367188 2.984375 -2.109375 C 3.242188 -1.847656 3.375 -1.53125 3.375 -1.15625 C 3.375 0 2.722656 1.117188 1.421875 2.203125 L 0.8125 1.703125 C 0.875 1.660156 0.941406 1.59375 1.015625 1.5 C 1.097656 1.40625 1.21875 1.210938 1.375 0.921875 C 1.539062 0.640625 1.648438 0.351562 1.703125 0.0625 C 1.410156 0 1.171875 -0.140625 0.984375 -0.359375 C 0.796875 -0.585938 0.703125 -0.851562 0.703125 -1.15625 C 0.703125 -1.53125 0.832031 -1.847656 1.09375 -2.109375 C 1.351562 -2.367188 1.664062 -2.5 2.03125 -2.5 Z M 2.03125 -2.5 "/></g></g><g style="fill:#000000;fill-opacity:1;"><g transform="translate(72.37172, 50.291223)"><path style="stroke:none" d=""/></g></g><g style="fill:#000000;fill-opacity:1;"><g transform="translate(75.563162, 50.291223)"><path style="stroke:none" d="M 2.90625 -9.640625 L 2.90625 0 L 0.703125 0 L 0.703125 -9.640625 Z M 2.90625 -9.640625 "/></g></g><g style="fill:#000000;fill-opacity:1;"><g transform="translate(79.163757, 50.291223)"><path style="stroke:none" d=""/></g></g><g style="fill:#000000;fill-opacity:1;"><g transform="translate(82.355199, 50.291223)"><path style="stroke:none" d="M 1.109375 -0.734375 C 0.546875 -1.347656 0.265625 -2.097656 0.265625 -2.984375 C 0.265625 -3.878906 0.546875 -4.632812 1.109375 -5.25 C 1.671875 -5.863281 2.382812 -6.171875 3.25 -6.171875 C 4.039062 -6.171875 4.695312 -5.921875 5.21875 -5.421875 L 5.21875 -6 L 7.28125 -6 L 7.28125 0 L 5.234375 0 L 5.234375 -0.671875 L 5.21875 -0.671875 C 4.695312 -0.109375 4.039062 0.171875 3.25 0.171875 C 2.382812 0.171875 1.671875 -0.128906 1.109375 -0.734375 Z M 2.859375 -4 C 2.597656 -3.738281 2.46875 -3.398438 2.46875 -2.984375 C 2.46875 -2.578125 2.59375 -2.242188 2.84375 -1.984375 C 3.101562 -1.722656 3.445312 -1.59375 3.875 -1.59375 C 4.269531 -1.59375 4.597656 -1.722656 4.859375 -1.984375 C 5.128906 -2.253906 5.265625 -2.585938 5.265625 -2.984375 C 5.265625 -3.398438 5.128906 -3.738281 4.859375 -4 C 4.585938 -4.269531 4.257812 -4.40625 3.875 -4.40625 C 3.46875 -4.40625 3.128906 -4.269531 2.859375 -4 Z M 2.859375 -4 "/></g></g><g style="fill:#000000;fill-opacity:1;"><g transform="translate(90.339642, 50.291223)"><path style="stroke:none" d="M 0.703125 0 L 0.703125 -6 L 2.765625 -6 L 2.765625 -5.359375 L 2.796875 -5.359375 C 3.328125 -5.898438 3.898438 -6.171875 4.515625 -6.171875 C 4.953125 -6.171875 5.359375 -6.082031 5.734375 -5.90625 C 6.117188 -5.726562 6.410156 -5.453125 6.609375 -5.078125 C 7.210938 -5.804688 7.875 -6.171875 8.59375 -6.171875 C 9.226562 -6.171875 9.773438 -5.988281 10.234375 -5.625 C 10.691406 -5.269531 10.921875 -4.710938 10.921875 -3.953125 L 10.921875 0 L 8.859375 0 L 8.859375 -3.390625 C 8.859375 -3.710938 8.769531 -3.976562 8.59375 -4.1875 C 8.414062 -4.40625 8.15625 -4.515625 7.8125 -4.515625 C 7.5 -4.515625 7.265625 -4.421875 7.109375 -4.234375 C 6.953125 -4.054688 6.863281 -3.835938 6.84375 -3.578125 L 6.84375 0 L 4.78125 0 L 4.78125 -3.390625 C 4.78125 -3.710938 4.691406 -3.976562 4.515625 -4.1875 C 4.335938 -4.40625 4.078125 -4.515625 3.734375 -4.515625 C 3.410156 -4.515625 3.164062 -4.414062 3 -4.21875 C 2.84375 -4.019531 2.765625 -3.78125 2.765625 -3.5 L 2.765625 0 Z M 0.703125 0 "/></g></g><g style="fill:#000000;fill-opacity:1;"><g transform="translate(101.854539, 50.291223)"><path style="stroke:none" d=""/></g></g><g style="fill:#000000;fill-opacity:1;"><g transform="translate(104.975827, 50.291223)"><path style="stroke:none" d="M 4.390625 0 L 2.984375 0 L -0.234375 -6 L 2.15625 -6 L 3.609375 -2.765625 L 5.046875 -6 L 6.46875 -6 L 7.90625 -2.765625 L 9.375 -6 L 11.75 -6 L 8.546875 0 L 7.140625 0 L 5.765625 -3.09375 Z M 4.390625 0 "/></g></g><g style="fill:#000000;fill-opacity:1;"><g transform="translate(116.502412, 50.291223)"><path style="stroke:none" d="M 0.890625 -9.328125 C 1.140625 -9.578125 1.429688 -9.703125 1.765625 -9.703125 C 2.097656 -9.703125 2.382812 -9.578125 2.625 -9.328125 C 2.863281 -9.085938 2.984375 -8.800781 2.984375 -8.46875 C 2.984375 -8.132812 2.863281 -7.847656 2.625 -7.609375 C 2.382812 -7.367188 2.097656 -7.25 1.765625 -7.25 C 1.429688 -7.25 1.140625 -7.367188 0.890625 -7.609375 C 0.648438 -7.847656 0.53125 -8.132812 0.53125 -8.46875 C 0.53125 -8.800781 0.648438 -9.085938 0.890625 -9.328125 Z M 0.703125 -6 L 0.703125 0 L 2.765625 0 L 2.765625 -6 Z M 0.703125 -6 "/></g></g><g style="fill:#000000;fill-opacity:1;"><g transform="translate(120.032865, 50.291223)"><path style="stroke:none" d="M 1.046875 -6 L 1.046875 -8.234375 L 3.125 -8.234375 L 3.125 -6 L 4.390625 -6 L 4.390625 -4.421875 L 3.125 -4.421875 L 3.125 -2.515625 C 3.125 -1.960938 3.28125 -1.6875 3.59375 -1.6875 C 3.664062 -1.6875 3.742188 -1.703125 3.828125 -1.734375 C 3.921875 -1.765625 3.988281 -1.796875 4.03125 -1.828125 L 4.109375 -1.875 L 4.609375 -0.203125 C 4.171875 0.046875 3.664062 0.171875 3.09375 0.171875 C 2.707031 0.171875 2.375 0.101562 2.09375 -0.03125 C 1.8125 -0.164062 1.597656 -0.347656 1.453125 -0.578125 C 1.304688 -0.804688 1.203125 -1.046875 1.140625 -1.296875 C 1.078125 -1.554688 1.046875 -1.828125 1.046875 -2.109375 L 1.046875 -4.421875 L 0.1875 -4.421875 L 0.1875 -6 Z M 1.046875 -6 "/></g></g><g style="fill:#000000;fill-opacity:1;"><g transform="translate(124.650516, 50.291223)"><path style="stroke:none" d="M 0.703125 0 L 0.703125 -10.046875 L 2.765625 -10.046875 L 2.765625 -5.359375 L 2.796875 -5.359375 C 3.328125 -5.898438 3.898438 -6.171875 4.515625 -6.171875 C 4.804688 -6.171875 5.097656 -6.128906 5.390625 -6.046875 C 5.679688 -5.972656 5.960938 -5.851562 6.234375 -5.6875 C 6.503906 -5.53125 6.722656 -5.300781 6.890625 -5 C 7.054688 -4.695312 7.140625 -4.347656 7.140625 -3.953125 L 7.140625 0 L 5.078125 0 L 5.078125 -3.390625 C 5.078125 -3.703125 4.972656 -3.972656 4.765625 -4.203125 C 4.566406 -4.441406 4.3125 -4.5625 4 -4.5625 C 3.6875 -4.5625 3.398438 -4.4375 3.140625 -4.1875 C 2.890625 -3.945312 2.765625 -3.679688 2.765625 -3.390625 L 2.765625 0 Z M 0.703125 0 "/></g></g><g style="fill:#000000;fill-opacity:1;"><g transform="translate(6.590892, 66.572834)"><path style="stroke:none" d="M 5.25 -6 L 7.625 -6 L 2.921875 3.03125 L 0.53125 3.03125 L 2.609375 -0.9375 L -0.234375 -6 L 2.15625 -6 L 3.828125 -2.921875 Z M 5.25 -6 "/></g></g><g style="fill:#000000;fill-opacity:1;"><g transform="translate(13.955744, 66.572834)"><path style="stroke:none" d="M 1.265625 -0.703125 C 0.597656 -1.296875 0.265625 -2.054688 0.265625 -2.984375 C 0.265625 -3.921875 0.609375 -4.6875 1.296875 -5.28125 C 1.992188 -5.875 2.851562 -6.171875 3.875 -6.171875 C 4.882812 -6.171875 5.734375 -5.867188 6.421875 -5.265625 C 7.109375 -4.671875 7.453125 -3.910156 7.453125 -2.984375 C 7.453125 -2.066406 7.113281 -1.3125 6.4375 -0.71875 C 5.769531 -0.125 4.914062 0.171875 3.875 0.171875 C 2.800781 0.171875 1.929688 -0.117188 1.265625 -0.703125 Z M 2.859375 -4 C 2.597656 -3.738281 2.46875 -3.398438 2.46875 -2.984375 C 2.46875 -2.578125 2.59375 -2.242188 2.84375 -1.984375 C 3.101562 -1.722656 3.445312 -1.59375 3.875 -1.59375 C 4.269531 -1.59375 4.597656 -1.722656 4.859375 -1.984375 C 5.128906 -2.253906 5.265625 -2.585938 5.265625 -2.984375 C 5.265625 -3.398438 5.128906 -3.738281 4.859375 -4 C 4.585938 -4.269531 4.257812 -4.40625 3.875 -4.40625 C 3.46875 -4.40625 3.128906 -4.269531 2.859375 -4 Z M 2.859375 -4 "/></g></g><g style="fill:#000000;fill-opacity:1;"><g transform="translate(21.682995, 66.572834)"><path style="stroke:none" d="M 2.65625 -6 L 2.65625 -3.140625 C 2.65625 -2.546875 2.742188 -2.125 2.921875 -1.875 C 3.097656 -1.625 3.398438 -1.5 3.828125 -1.5 C 4.253906 -1.5 4.554688 -1.625 4.734375 -1.875 C 4.921875 -2.125 5.015625 -2.546875 5.015625 -3.140625 L 5.015625 -6 L 7.078125 -6 L 7.078125 -2.640625 C 7.078125 -1.640625 6.816406 -0.921875 6.296875 -0.484375 C 5.785156 -0.046875 4.960938 0.171875 3.828125 0.171875 C 2.703125 0.171875 1.878906 -0.046875 1.359375 -0.484375 C 0.835938 -0.921875 0.578125 -1.640625 0.578125 -2.640625 L 0.578125 -6 Z M 2.65625 -6 "/></g></g><g style="fill:#000000;fill-opacity:1;"><g transform="translate(29.351805, 66.572834)"><path style="stroke:none" d=""/></g></g><g style="fill:#000000;fill-opacity:1;"><g transform="translate(32.543247, 66.572834)"><path style="stroke:none" d="M 1.109375 -0.734375 C 0.546875 -1.347656 0.265625 -2.097656 0.265625 -2.984375 C 0.265625 -3.878906 0.546875 -4.632812 1.109375 -5.25 C 1.671875 -5.863281 2.382812 -6.171875 3.25 -6.171875 C 4.039062 -6.171875 4.695312 -5.921875 5.21875 -5.421875 L 5.21875 -6 L 7.28125 -6 L 7.28125 0 L 5.234375 0 L 5.234375 -0.671875 L 5.21875 -0.671875 C 4.695312 -0.109375 4.039062 0.171875 3.25 0.171875 C 2.382812 0.171875 1.671875 -0.128906 1.109375 -0.734375 Z M 2.859375 -4 C 2.597656 -3.738281 2.46875 -3.398438 2.46875 -2.984375 C 2.46875 -2.578125 2.59375 -2.242188 2.84375 -1.984375 C 3.101562 -1.722656 3.445312 -1.59375 3.875 -1.59375 C 4.269531 -1.59375 4.597656 -1.722656 4.859375 -1.984375 C 5.128906 -2.253906 5.265625 -2.585938 5.265625 -2.984375 C 5.265625 -3.398438 5.128906 -3.738281 4.859375 -4 C 4.585938 -4.269531 4.257812 -4.40625 3.875 -4.40625 C 3.46875 -4.40625 3.128906 -4.269531 2.859375 -4 Z M 2.859375 -4 "/></g></g><g style="fill:#000000;fill-opacity:1;"><g transform="translate(40.52769, 66.572834)"><path style="stroke:none" d="M 0.703125 0 L 0.703125 -10.046875 L 2.765625 -10.046875 L 2.765625 0 Z M 0.703125 0 "/></g></g><g style="fill:#000000;fill-opacity:1;"><g transform="translate(43.929535, 66.572834)"><path style="stroke:none" d="M 4.390625 0 L 2.984375 0 L -0.234375 -6 L 2.15625 -6 L 3.609375 -2.765625 L 5.046875 -6 L 6.46875 -6 L 7.90625 -2.765625 L 9.375 -6 L 11.75 -6 L 8.546875 0 L 7.140625 0 L 5.765625 -3.09375 Z M 4.390625 0 "/></g></g><g style="fill:#000000;fill-opacity:1;"><g transform="translate(55.374277, 66.572834)"><path style="stroke:none" d="M 1.109375 -0.734375 C 0.546875 -1.347656 0.265625 -2.097656 0.265625 -2.984375 C 0.265625 -3.878906 0.546875 -4.632812 1.109375 -5.25 C 1.671875 -5.863281 2.382812 -6.171875 3.25 -6.171875 C 4.039062 -6.171875 4.695312 -5.921875 5.21875 -5.421875 L 5.21875 -6 L 7.28125 -6 L 7.28125 0 L 5.234375 0 L 5.234375 -0.671875 L 5.21875 -0.671875 C 4.695312 -0.109375 4.039062 0.171875 3.25 0.171875 C 2.382812 0.171875 1.671875 -0.128906 1.109375 -0.734375 Z M 2.859375 -4 C 2.597656 -3.738281 2.46875 -3.398438 2.46875 -2.984375 C 2.46875 -2.578125 2.59375 -2.242188 2.84375 -1.984375 C 3.101562 -1.722656 3.445312 -1.59375 3.875 -1.59375 C 4.269531 -1.59375 4.597656 -1.722656 4.859375 -1.984375 C 5.128906 -2.253906 5.265625 -2.585938 5.265625 -2.984375 C 5.265625 -3.398438 5.128906 -3.738281 4.859375 -4 C 4.585938 -4.269531 4.257812 -4.40625 3.875 -4.40625 C 3.46875 -4.40625 3.128906 -4.269531 2.859375 -4 Z M 2.859375 -4 "/></g></g><g style="fill:#000000;fill-opacity:1;"><g transform="translate(63.311955, 66.572834)"><path style="stroke:none" d="M 5.25 -6 L 7.625 -6 L 2.921875 3.03125 L 0.53125 3.03125 L 2.609375 -0.9375 L -0.234375 -6 L 2.15625 -6 L 3.828125 -2.921875 Z M 5.25 -6 "/></g></g><g style="fill:#000000;fill-opacity:1;"><g transform="translate(70.185752, 66.572834)"><path style="stroke:none" d="M 2.03125 -2.5 C 2.40625 -2.5 2.722656 -2.367188 2.984375 -2.109375 C 3.242188 -1.847656 3.375 -1.53125 3.375 -1.15625 C 3.375 0 2.722656 1.117188 1.421875 2.203125 L 0.8125 1.703125 C 0.875 1.660156 0.941406 1.59375 1.015625 1.5 C 1.097656 1.40625 1.21875 1.210938 1.375 0.921875 C 1.539062 0.640625 1.648438 0.351562 1.703125 0.0625 C 1.410156 0 1.171875 -0.140625 0.984375 -0.359375 C 0.796875 -0.585938 0.703125 -0.851562 0.703125 -1.15625 C 0.703125 -1.53125 0.832031 -1.847656 1.09375 -2.109375 C 1.351562 -2.367188 1.664062 -2.5 2.03125 -2.5 Z M 2.03125 -2.5 "/></g></g><g style="fill:#000000;fill-opacity:1;"><g transform="translate(74.265655, 66.572834)"><path style="stroke:none" d=""/></g></g><g style="fill:#000000;fill-opacity:1;"><g transform="translate(77.457097, 66.572834)"><path style="stroke:none" d="M 6.765625 -2.71875 L 2.421875 -2.71875 C 2.421875 -2.289062 2.554688 -1.972656 2.828125 -1.765625 C 3.097656 -1.566406 3.394531 -1.46875 3.71875 -1.46875 C 4.050781 -1.46875 4.3125 -1.507812 4.5 -1.59375 C 4.695312 -1.6875 4.921875 -1.867188 5.171875 -2.140625 L 6.671875 -1.390625 C 6.046875 -0.347656 5.007812 0.171875 3.5625 0.171875 C 2.65625 0.171875 1.878906 -0.132812 1.234375 -0.75 C 0.585938 -1.375 0.265625 -2.117188 0.265625 -2.984375 C 0.265625 -3.859375 0.585938 -4.609375 1.234375 -5.234375 C 1.878906 -5.859375 2.65625 -6.171875 3.5625 -6.171875 C 4.507812 -6.171875 5.28125 -5.894531 5.875 -5.34375 C 6.476562 -4.789062 6.78125 -4.003906 6.78125 -2.984375 C 6.78125 -2.847656 6.773438 -2.757812 6.765625 -2.71875 Z M 2.484375 -3.859375 L 4.75 -3.859375 C 4.707031 -4.171875 4.585938 -4.410156 4.390625 -4.578125 C 4.191406 -4.742188 3.9375 -4.828125 3.625 -4.828125 C 3.28125 -4.828125 3.003906 -4.738281 2.796875 -4.5625 C 2.597656 -4.382812 2.492188 -4.148438 2.484375 -3.859375 Z M 2.484375 -3.859375 "/></g></g><g style="fill:#000000;fill-opacity:1;"><g transform="translate(84.44786, 66.572834)"><path style="stroke:none" d="M 2.21875 -6 L 3.6875 -2.734375 L 5.140625 -6 L 7.59375 -6 L 4.390625 0 L 2.984375 0 L -0.234375 -6 Z M 2.21875 -6 "/></g></g><g style="fill:#000000;fill-opacity:1;"><g transform="translate(91.777635, 66.572834)"><path style="stroke:none" d="M 6.765625 -2.71875 L 2.421875 -2.71875 C 2.421875 -2.289062 2.554688 -1.972656 2.828125 -1.765625 C 3.097656 -1.566406 3.394531 -1.46875 3.71875 -1.46875 C 4.050781 -1.46875 4.3125 -1.507812 4.5 -1.59375 C 4.695312 -1.6875 4.921875 -1.867188 5.171875 -2.140625 L 6.671875 -1.390625 C 6.046875 -0.347656 5.007812 0.171875 3.5625 0.171875 C 2.65625 0.171875 1.878906 -0.132812 1.234375 -0.75 C 0.585938 -1.375 0.265625 -2.117188 0.265625 -2.984375 C 0.265625 -3.859375 0.585938 -4.609375 1.234375 -5.234375 C 1.878906 -5.859375 2.65625 -6.171875 3.5625 -6.171875 C 4.507812 -6.171875 5.28125 -5.894531 5.875 -5.34375 C 6.476562 -4.789062 6.78125 -4.003906 6.78125 -2.984375 C 6.78125 -2.847656 6.773438 -2.757812 6.765625 -2.71875 Z M 2.484375 -3.859375 L 4.75 -3.859375 C 4.707031 -4.171875 4.585938 -4.410156 4.390625 -4.578125 C 4.191406 -4.742188 3.9375 -4.828125 3.625 -4.828125 C 3.28125 -4.828125 3.003906 -4.738281 2.796875 -4.5625 C 2.597656 -4.382812 2.492188 -4.148438 2.484375 -3.859375 Z M 2.484375 -3.859375 "/></g></g><g style="fill:#000000;fill-opacity:1;"><g transform="translate(98.803464, 66.572834)"><path style="stroke:none" d="M 0.703125 0 L 0.703125 -6 L 2.765625 -6 L 2.765625 -5.359375 L 2.796875 -5.359375 C 3.328125 -5.898438 3.898438 -6.171875 4.515625 -6.171875 C 4.804688 -6.171875 5.097656 -6.128906 5.390625 -6.046875 C 5.679688 -5.972656 5.960938 -5.851562 6.234375 -5.6875 C 6.503906 -5.53125 6.722656 -5.300781 6.890625 -5 C 7.054688 -4.695312 7.140625 -4.347656 7.140625 -3.953125 L 7.140625 0 L 5.078125 0 L 5.078125 -3.390625 C 5.078125 -3.703125 4.972656 -3.972656 4.765625 -4.203125 C 4.566406 -4.441406 4.3125 -4.5625 4 -4.5625 C 3.6875 -4.5625 3.398438 -4.4375 3.140625 -4.1875 C 2.890625 -3.945312 2.765625 -3.679688 2.765625 -3.390625 L 2.765625 0 Z M 0.703125 0 "/></g></g><g style="fill:#000000;fill-opacity:1;"><g transform="translate(106.530715, 66.572834)"><path style="stroke:none" d=""/></g></g><g style="fill:#000000;fill-opacity:1;"><g transform="translate(109.722157, 66.572834)"><path style="stroke:none" d="M 2.65625 -6 L 2.65625 -3.140625 C 2.65625 -2.546875 2.742188 -2.125 2.921875 -1.875 C 3.097656 -1.625 3.398438 -1.5 3.828125 -1.5 C 4.253906 -1.5 4.554688 -1.625 4.734375 -1.875 C 4.921875 -2.125 5.015625 -2.546875 5.015625 -3.140625 L 5.015625 -6 L 7.078125 -6 L 7.078125 -2.640625 C 7.078125 -1.640625 6.816406 -0.921875 6.296875 -0.484375 C 5.785156 -0.046875 4.960938 0.171875 3.828125 0.171875 C 2.703125 0.171875 1.878906 -0.046875 1.359375 -0.484375 C 0.835938 -0.921875 0.578125 -1.640625 0.578125 -2.640625 L 0.578125 -6 Z M 2.65625 -6 "/></g></g><g style="fill:#000000;fill-opacity:1;"><g transform="translate(117.390967, 66.572834)"><path style="stroke:none" d="M 0.703125 0 L 0.703125 -6 L 2.765625 -6 L 2.765625 -5.359375 L 2.796875 -5.359375 C 3.328125 -5.898438 3.898438 -6.171875 4.515625 -6.171875 C 4.804688 -6.171875 5.097656 -6.128906 5.390625 -6.046875 C 5.679688 -5.972656 5.960938 -5.851562 6.234375 -5.6875 C 6.503906 -5.53125 6.722656 -5.300781 6.890625 -5 C 7.054688 -4.695312 7.140625 -4.347656 7.140625 -3.953125 L 7.140625 0 L 5.078125 0 L 5.078125 -3.390625 C 5.078125 -3.703125 4.972656 -3.972656 4.765625 -4.203125 C 4.566406 -4.441406 4.3125 -4.5625 4 -4.5625 C 3.6875 -4.5625 3.398438 -4.4375 3.140625 -4.1875 C 2.890625 -3.945312 2.765625 -3.679688 2.765625 -3.390625 L 2.765625 0 Z M 0.703125 0 "/></g></g><g style="fill:#000000;fill-opacity:1;"><g transform="translate(125.048064, 66.572834)"><path style="stroke:none" d="M 1.046875 -6 L 1.046875 -8.234375 L 3.125 -8.234375 L 3.125 -6 L 4.390625 -6 L 4.390625 -4.421875 L 3.125 -4.421875 L 3.125 -2.515625 C 3.125 -1.960938 3.28125 -1.6875 3.59375 -1.6875 C 3.664062 -1.6875 3.742188 -1.703125 3.828125 -1.734375 C 3.921875 -1.765625 3.988281 -1.796875 4.03125 -1.828125 L 4.109375 -1.875 L 4.609375 -0.203125 C 4.171875 0.046875 3.664062 0.171875 3.09375 0.171875 C 2.707031 0.171875 2.375 0.101562 2.09375 -0.03125 C 1.8125 -0.164062 1.597656 -0.347656 1.453125 -0.578125 C 1.304688 -0.804688 1.203125 -1.046875 1.140625 -1.296875 C 1.078125 -1.554688 1.046875 -1.828125 1.046875 -2.109375 L 1.046875 -4.421875 L 0.1875 -4.421875 L 0.1875 -6 Z M 1.046875 -6 "/></g></g><g style="fill:#000000;fill-opacity:1;"><g transform="translate(129.665716, 66.572834)"><path style="stroke:none" d="M 1.265625 -0.703125 C 0.597656 -1.296875 0.265625 -2.054688 0.265625 -2.984375 C 0.265625 -3.921875 0.609375 -4.6875 1.296875 -5.28125 C 1.992188 -5.875 2.851562 -6.171875 3.875 -6.171875 C 4.882812 -6.171875 5.734375 -5.867188 6.421875 -5.265625 C 7.109375 -4.671875 7.453125 -3.910156 7.453125 -2.984375 C 7.453125 -2.066406 7.113281 -1.3125 6.4375 -0.71875 C 5.769531 -0.125 4.914062 0.171875 3.875 0.171875 C 2.800781 0.171875 1.929688 -0.117188 1.265625 -0.703125 Z M 2.859375 -4 C 2.597656 -3.738281 2.46875 -3.398438 2.46875 -2.984375 C 2.46875 -2.578125 2.59375 -2.242188 2.84375 -1.984375 C 3.101562 -1.722656 3.445312 -1.59375 3.875 -1.59375 C 4.269531 -1.59375 4.597656 -1.722656 4.859375 -1.984375 C 5.128906 -2.253906 5.265625 -2.585938 5.265625 -2.984375 C 5.265625 -3.398438 5.128906 -3.738281 4.859375 -4 C 4.585938 -4.269531 4.257812 -4.40625 3.875 -4.40625 C 3.46875 -4.40625 3.128906 -4.269531 2.859375 -4 Z M 2.859375 -4 "/></g></g><g style="fill:#000000;fill-opacity:1;"><g transform="translate(7.426779, 82.854444)"><path style="stroke:none" d="M 1.046875 -6 L 1.046875 -8.234375 L 3.125 -8.234375 L 3.125 -6 L 4.390625 -6 L 4.390625 -4.421875 L 3.125 -4.421875 L 3.125 -2.515625 C 3.125 -1.960938 3.28125 -1.6875 3.59375 -1.6875 C 3.664062 -1.6875 3.742188 -1.703125 3.828125 -1.734375 C 3.921875 -1.765625 3.988281 -1.796875 4.03125 -1.828125 L 4.109375 -1.875 L 4.609375 -0.203125 C 4.171875 0.046875 3.664062 0.171875 3.09375 0.171875 C 2.707031 0.171875 2.375 0.101562 2.09375 -0.03125 C 1.8125 -0.164062 1.597656 -0.347656 1.453125 -0.578125 C 1.304688 -0.804688 1.203125 -1.046875 1.140625 -1.296875 C 1.078125 -1.554688 1.046875 -1.828125 1.046875 -2.109375 L 1.046875 -4.421875 L 0.1875 -4.421875 L 0.1875 -6 Z M 1.046875 -6 "/></g></g><g style="fill:#000000;fill-opacity:1;"><g transform="translate(12.04443, 82.854444)"><path style="stroke:none" d="M 0.703125 0 L 0.703125 -10.046875 L 2.765625 -10.046875 L 2.765625 -5.359375 L 2.796875 -5.359375 C 3.328125 -5.898438 3.898438 -6.171875 4.515625 -6.171875 C 4.804688 -6.171875 5.097656 -6.128906 5.390625 -6.046875 C 5.679688 -5.972656 5.960938 -5.851562 6.234375 -5.6875 C 6.503906 -5.53125 6.722656 -5.300781 6.890625 -5 C 7.054688 -4.695312 7.140625 -4.347656 7.140625 -3.953125 L 7.140625 0 L 5.078125 0 L 5.078125 -3.390625 C 5.078125 -3.703125 4.972656 -3.972656 4.765625 -4.203125 C 4.566406 -4.441406 4.3125 -4.5625 4 -4.5625 C 3.6875 -4.5625 3.398438 -4.4375 3.140625 -4.1875 C 2.890625 -3.945312 2.765625 -3.679688 2.765625 -3.390625 L 2.765625 0 Z M 0.703125 0 "/></g></g><g style="fill:#000000;fill-opacity:1;"><g transform="translate(19.771682, 82.854444)"><path style="stroke:none" d="M 6.765625 -2.71875 L 2.421875 -2.71875 C 2.421875 -2.289062 2.554688 -1.972656 2.828125 -1.765625 C 3.097656 -1.566406 3.394531 -1.46875 3.71875 -1.46875 C 4.050781 -1.46875 4.3125 -1.507812 4.5 -1.59375 C 4.695312 -1.6875 4.921875 -1.867188 5.171875 -2.140625 L 6.671875 -1.390625 C 6.046875 -0.347656 5.007812 0.171875 3.5625 0.171875 C 2.65625 0.171875 1.878906 -0.132812 1.234375 -0.75 C 0.585938 -1.375 0.265625 -2.117188 0.265625 -2.984375 C 0.265625 -3.859375 0.585938 -4.609375 1.234375 -5.234375 C 1.878906 -5.859375 2.65625 -6.171875 3.5625 -6.171875 C 4.507812 -6.171875 5.28125 -5.894531 5.875 -5.34375 C 6.476562 -4.789062 6.78125 -4.003906 6.78125 -2.984375 C 6.78125 -2.847656 6.773438 -2.757812 6.765625 -2.71875 Z M 2.484375 -3.859375 L 4.75 -3.859375 C 4.707031 -4.171875 4.585938 -4.410156 4.390625 -4.578125 C 4.191406 -4.742188 3.9375 -4.828125 3.625 -4.828125 C 3.28125 -4.828125 3.003906 -4.738281 2.796875 -4.5625 C 2.597656 -4.382812 2.492188 -4.148438 2.484375 -3.859375 Z M 2.484375 -3.859375 "/></g></g><g style="fill:#000000;fill-opacity:1;"><g transform="translate(26.820899, 82.854444)"><path style="stroke:none" d=""/></g></g><g style="fill:#000000;fill-opacity:1;"><g transform="translate(30.012341, 82.854444)"><path style="stroke:none" d="M 6.765625 -2.71875 L 2.421875 -2.71875 C 2.421875 -2.289062 2.554688 -1.972656 2.828125 -1.765625 C 3.097656 -1.566406 3.394531 -1.46875 3.71875 -1.46875 C 4.050781 -1.46875 4.3125 -1.507812 4.5 -1.59375 C 4.695312 -1.6875 4.921875 -1.867188 5.171875 -2.140625 L 6.671875 -1.390625 C 6.046875 -0.347656 5.007812 0.171875 3.5625 0.171875 C 2.65625 0.171875 1.878906 -0.132812 1.234375 -0.75 C 0.585938 -1.375 0.265625 -2.117188 0.265625 -2.984375 C 0.265625 -3.859375 0.585938 -4.609375 1.234375 -5.234375 C 1.878906 -5.859375 2.65625 -6.171875 3.5625 -6.171875 C 4.507812 -6.171875 5.28125 -5.894531 5.875 -5.34375 C 6.476562 -4.789062 6.78125 -4.003906 6.78125 -2.984375 C 6.78125 -2.847656 6.773438 -2.757812 6.765625 -2.71875 Z M 2.484375 -3.859375 L 4.75 -3.859375 C 4.707031 -4.171875 4.585938 -4.410156 4.390625 -4.578125 C 4.191406 -4.742188 3.9375 -4.828125 3.625 -4.828125 C 3.28125 -4.828125 3.003906 -4.738281 2.796875 -4.5625 C 2.597656 -4.382812 2.492188 -4.148438 2.484375 -3.859375 Z M 2.484375 -3.859375 "/></g></g><g style="fill:#000000;fill-opacity:1;"><g transform="translate(37.03817, 82.854444)"><path style="stroke:none" d="M 0.703125 0 L 0.703125 -6 L 2.765625 -6 L 2.765625 -5.359375 L 2.796875 -5.359375 C 3.328125 -5.898438 3.898438 -6.171875 4.515625 -6.171875 C 4.804688 -6.171875 5.097656 -6.128906 5.390625 -6.046875 C 5.679688 -5.972656 5.960938 -5.851562 6.234375 -5.6875 C 6.503906 -5.53125 6.722656 -5.300781 6.890625 -5 C 7.054688 -4.695312 7.140625 -4.347656 7.140625 -3.953125 L 7.140625 0 L 5.078125 0 L 5.078125 -3.390625 C 5.078125 -3.703125 4.972656 -3.972656 4.765625 -4.203125 C 4.566406 -4.441406 4.3125 -4.5625 4 -4.5625 C 3.6875 -4.5625 3.398438 -4.4375 3.140625 -4.1875 C 2.890625 -3.945312 2.765625 -3.679688 2.765625 -3.390625 L 2.765625 0 Z M 0.703125 0 "/></g></g><g style="fill:#000000;fill-opacity:1;"><g transform="translate(44.765421, 82.854444)"><path style="stroke:none" d="M 1.109375 -0.734375 C 0.546875 -1.347656 0.265625 -2.097656 0.265625 -2.984375 C 0.265625 -3.878906 0.546875 -4.632812 1.109375 -5.25 C 1.671875 -5.863281 2.382812 -6.171875 3.25 -6.171875 C 4.039062 -6.171875 4.695312 -5.921875 5.21875 -5.421875 L 5.21875 -10.046875 L 7.28125 -10.046875 L 7.28125 0 L 5.234375 0 L 5.234375 -0.671875 L 5.21875 -0.671875 C 4.695312 -0.109375 4.039062 0.171875 3.25 0.171875 C 2.382812 0.171875 1.671875 -0.128906 1.109375 -0.734375 Z M 2.859375 -4 C 2.597656 -3.738281 2.46875 -3.398438 2.46875 -2.984375 C 2.46875 -2.578125 2.59375 -2.242188 2.84375 -1.984375 C 3.101562 -1.722656 3.445312 -1.59375 3.875 -1.59375 C 4.269531 -1.59375 4.597656 -1.722656 4.859375 -1.984375 C 5.128906 -2.253906 5.265625 -2.585938 5.265625 -2.984375 C 5.265625 -3.398438 5.128906 -3.738281 4.859375 -4 C 4.585938 -4.269531 4.257812 -4.40625 3.875 -4.40625 C 3.46875 -4.40625 3.128906 -4.269531 2.859375 -4 Z M 2.859375 -4 "/></g></g><g style="fill:#000000;fill-opacity:1;"><g transform="translate(52.749865, 82.854444)"><path style="stroke:none" d=""/></g></g><g style="fill:#000000;fill-opacity:1;"><g transform="translate(55.941307, 82.854444)"><path style="stroke:none" d="M 1.265625 -0.703125 C 0.597656 -1.296875 0.265625 -2.054688 0.265625 -2.984375 C 0.265625 -3.921875 0.609375 -4.6875 1.296875 -5.28125 C 1.992188 -5.875 2.851562 -6.171875 3.875 -6.171875 C 4.882812 -6.171875 5.734375 -5.867188 6.421875 -5.265625 C 7.109375 -4.671875 7.453125 -3.910156 7.453125 -2.984375 C 7.453125 -2.066406 7.113281 -1.3125 6.4375 -0.71875 C 5.769531 -0.125 4.914062 0.171875 3.875 0.171875 C 2.800781 0.171875 1.929688 -0.117188 1.265625 -0.703125 Z M 2.859375 -4 C 2.597656 -3.738281 2.46875 -3.398438 2.46875 -2.984375 C 2.46875 -2.578125 2.59375 -2.242188 2.84375 -1.984375 C 3.101562 -1.722656 3.445312 -1.59375 3.875 -1.59375 C 4.269531 -1.59375 4.597656 -1.722656 4.859375 -1.984375 C 5.128906 -2.253906 5.265625 -2.585938 5.265625 -2.984375 C 5.265625 -3.398438 5.128906 -3.738281 4.859375 -4 C 4.585938 -4.269531 4.257812 -4.40625 3.875 -4.40625 C 3.46875 -4.40625 3.128906 -4.269531 2.859375 -4 Z M 2.859375 -4 "/></g></g><g style="fill:#000000;fill-opacity:1;"><g transform="translate(63.610104, 82.854444)"><path style="stroke:none" d="M 1.046875 -6 L 1.046875 -7.265625 C 1.054688 -8.160156 1.265625 -8.878906 1.671875 -9.421875 C 2.085938 -9.960938 2.664062 -10.234375 3.40625 -10.234375 C 3.71875 -10.234375 4.015625 -10.1875 4.296875 -10.09375 C 4.578125 -10 4.78125 -9.90625 4.90625 -9.8125 L 5.109375 -9.6875 L 4.390625 -8.234375 C 4.203125 -8.335938 3.992188 -8.390625 3.765625 -8.390625 C 3.503906 -8.390625 3.332031 -8.300781 3.25 -8.125 C 3.164062 -7.945312 3.125 -7.644531 3.125 -7.21875 L 3.125 -6 L 4.5 -6 L 4.5 -4.421875 L 3.125 -4.421875 L 3.125 0 L 1.046875 0 L 1.046875 -4.421875 L 0.1875 -4.421875 L 0.1875 -6 Z M 1.046875 -6 "/></g></g><g style="fill:#000000;fill-opacity:1;"><g transform="translate(67.993952, 82.854444)"><path style="stroke:none" d=""/></g></g><g style="fill:#000000;fill-opacity:1;"><g transform="translate(71.185394, 82.854444)"><path style="stroke:none" d="M 1.046875 -6 L 1.046875 -8.234375 L 3.125 -8.234375 L 3.125 -6 L 4.390625 -6 L 4.390625 -4.421875 L 3.125 -4.421875 L 3.125 -2.515625 C 3.125 -1.960938 3.28125 -1.6875 3.59375 -1.6875 C 3.664062 -1.6875 3.742188 -1.703125 3.828125 -1.734375 C 3.921875 -1.765625 3.988281 -1.796875 4.03125 -1.828125 L 4.109375 -1.875 L 4.609375 -0.203125 C 4.171875 0.046875 3.664062 0.171875 3.09375 0.171875 C 2.707031 0.171875 2.375 0.101562 2.09375 -0.03125 C 1.8125 -0.164062 1.597656 -0.347656 1.453125 -0.578125 C 1.304688 -0.804688 1.203125 -1.046875 1.140625 -1.296875 C 1.078125 -1.554688 1.046875 -1.828125 1.046875 -2.109375 L 1.046875 -4.421875 L 0.1875 -4.421875 L 0.1875 -6 Z M 1.046875 -6 "/></g></g><g style="fill:#000000;fill-opacity:1;"><g transform="translate(75.803046, 82.854444)"><path style="stroke:none" d="M 0.703125 0 L 0.703125 -10.046875 L 2.765625 -10.046875 L 2.765625 -5.359375 L 2.796875 -5.359375 C 3.328125 -5.898438 3.898438 -6.171875 4.515625 -6.171875 C 4.804688 -6.171875 5.097656 -6.128906 5.390625 -6.046875 C 5.679688 -5.972656 5.960938 -5.851562 6.234375 -5.6875 C 6.503906 -5.53125 6.722656 -5.300781 6.890625 -5 C 7.054688 -4.695312 7.140625 -4.347656 7.140625 -3.953125 L 7.140625 0 L 5.078125 0 L 5.078125 -3.390625 C 5.078125 -3.703125 4.972656 -3.972656 4.765625 -4.203125 C 4.566406 -4.441406 4.3125 -4.5625 4 -4.5625 C 3.6875 -4.5625 3.398438 -4.4375 3.140625 -4.1875 C 2.890625 -3.945312 2.765625 -3.679688 2.765625 -3.390625 L 2.765625 0 Z M 0.703125 0 "/></g></g><g style="fill:#000000;fill-opacity:1;"><g transform="translate(83.530297, 82.854444)"><path style="stroke:none" d="M 6.765625 -2.71875 L 2.421875 -2.71875 C 2.421875 -2.289062 2.554688 -1.972656 2.828125 -1.765625 C 3.097656 -1.566406 3.394531 -1.46875 3.71875 -1.46875 C 4.050781 -1.46875 4.3125 -1.507812 4.5 -1.59375 C 4.695312 -1.6875 4.921875 -1.867188 5.171875 -2.140625 L 6.671875 -1.390625 C 6.046875 -0.347656 5.007812 0.171875 3.5625 0.171875 C 2.65625 0.171875 1.878906 -0.132812 1.234375 -0.75 C 0.585938 -1.375 0.265625 -2.117188 0.265625 -2.984375 C 0.265625 -3.859375 0.585938 -4.609375 1.234375 -5.234375 C 1.878906 -5.859375 2.65625 -6.171875 3.5625 -6.171875 C 4.507812 -6.171875 5.28125 -5.894531 5.875 -5.34375 C 6.476562 -4.789062 6.78125 -4.003906 6.78125 -2.984375 C 6.78125 -2.847656 6.773438 -2.757812 6.765625 -2.71875 Z M 2.484375 -3.859375 L 4.75 -3.859375 C 4.707031 -4.171875 4.585938 -4.410156 4.390625 -4.578125 C 4.191406 -4.742188 3.9375 -4.828125 3.625 -4.828125 C 3.28125 -4.828125 3.003906 -4.738281 2.796875 -4.5625 C 2.597656 -4.382812 2.492188 -4.148438 2.484375 -3.859375 Z M 2.484375 -3.859375 "/></g></g><g style="fill:#000000;fill-opacity:1;"><g transform="translate(90.579515, 82.854444)"><path style="stroke:none" d=""/></g></g><g style="fill:#000000;fill-opacity:1;"><g transform="translate(93.700803, 82.854444)"><path style="stroke:none" d="M 4.390625 0 L 2.984375 0 L -0.234375 -6 L 2.15625 -6 L 3.609375 -2.765625 L 5.046875 -6 L 6.46875 -6 L 7.90625 -2.765625 L 9.375 -6 L 11.75 -6 L 8.546875 0 L 7.140625 0 L 5.765625 -3.09375 Z M 4.390625 0 "/></g></g><g style="fill:#000000;fill-opacity:1;"><g transform="translate(105.192311, 82.854444)"><path style="stroke:none" d="M 1.265625 -0.703125 C 0.597656 -1.296875 0.265625 -2.054688 0.265625 -2.984375 C 0.265625 -3.921875 0.609375 -4.6875 1.296875 -5.28125 C 1.992188 -5.875 2.851562 -6.171875 3.875 -6.171875 C 4.882812 -6.171875 5.734375 -5.867188 6.421875 -5.265625 C 7.109375 -4.671875 7.453125 -3.910156 7.453125 -2.984375 C 7.453125 -2.066406 7.113281 -1.3125 6.4375 -0.71875 C 5.769531 -0.125 4.914062 0.171875 3.875 0.171875 C 2.800781 0.171875 1.929688 -0.117188 1.265625 -0.703125 Z M 2.859375 -4 C 2.597656 -3.738281 2.46875 -3.398438 2.46875 -2.984375 C 2.46875 -2.578125 2.59375 -2.242188 2.84375 -1.984375 C 3.101562 -1.722656 3.445312 -1.59375 3.875 -1.59375 C 4.269531 -1.59375 4.597656 -1.722656 4.859375 -1.984375 C 5.128906 -2.253906 5.265625 -2.585938 5.265625 -2.984375 C 5.265625 -3.398438 5.128906 -3.738281 4.859375 -4 C 4.585938 -4.269531 4.257812 -4.40625 3.875 -4.40625 C 3.46875 -4.40625 3.128906 -4.269531 2.859375 -4 Z M 2.859375 -4 "/></g></g><g style="fill:#000000;fill-opacity:1;"><g transform="translate(112.896173, 82.854444)"><path style="stroke:none" d="M 0.703125 0 L 0.703125 -6 L 2.765625 -6 L 2.765625 -5.125 L 2.796875 -5.125 C 2.804688 -5.15625 2.828125 -5.191406 2.859375 -5.234375 C 2.898438 -5.285156 2.976562 -5.367188 3.09375 -5.484375 C 3.207031 -5.609375 3.332031 -5.71875 3.46875 -5.8125 C 3.601562 -5.90625 3.773438 -5.988281 3.984375 -6.0625 C 4.191406 -6.132812 4.40625 -6.171875 4.625 -6.171875 C 4.851562 -6.171875 5.078125 -6.140625 5.296875 -6.078125 C 5.515625 -6.015625 5.675781 -5.953125 5.78125 -5.890625 L 5.9375 -5.796875 L 5.078125 -4.046875 C 4.816406 -4.265625 4.457031 -4.375 4 -4.375 C 3.75 -4.375 3.53125 -4.316406 3.34375 -4.203125 C 3.164062 -4.097656 3.039062 -3.96875 2.96875 -3.8125 C 2.894531 -3.65625 2.84375 -3.519531 2.8125 -3.40625 C 2.78125 -3.300781 2.765625 -3.21875 2.765625 -3.15625 L 2.765625 0 Z M 0.703125 0 "/></g></g><g style="fill:#000000;fill-opacity:1;"><g transform="translate(118.717919, 82.854444)"><path style="stroke:none" d="M 0.703125 0 L 0.703125 -10.046875 L 2.765625 -10.046875 L 2.765625 0 Z M 0.703125 0 "/></g></g><g style="fill:#000000;fill-opacity:1;"><g transform="translate(122.189919, 82.854444)"><path style="stroke:none" d="M 1.109375 -0.734375 C 0.546875 -1.347656 0.265625 -2.097656 0.265625 -2.984375 C 0.265625 -3.878906 0.546875 -4.632812 1.109375 -5.25 C 1.671875 -5.863281 2.382812 -6.171875 3.25 -6.171875 C 4.039062 -6.171875 4.695312 -5.921875 5.21875 -5.421875 L 5.21875 -10.046875 L 7.28125 -10.046875 L 7.28125 0 L 5.234375 0 L 5.234375 -0.671875 L 5.21875 -0.671875 C 4.695312 -0.109375 4.039062 0.171875 3.25 0.171875 C 2.382812 0.171875 1.671875 -0.128906 1.109375 -0.734375 Z M 2.859375 -4 C 2.597656 -3.738281 2.46875 -3.398438 2.46875 -2.984375 C 2.46875 -2.578125 2.59375 -2.242188 2.84375 -1.984375 C 3.101562 -1.722656 3.445312 -1.59375 3.875 -1.59375 C 4.269531 -1.59375 4.597656 -1.722656 4.859375 -1.984375 C 5.128906 -2.253906 5.265625 -2.585938 5.265625 -2.984375 C 5.265625 -3.398438 5.128906 -3.738281 4.859375 -4 C 4.585938 -4.269531 4.257812 -4.40625 3.875 -4.40625 C 3.46875 -4.40625 3.128906 -4.269531 2.859375 -4 Z M 2.859375 -4 "/></g></g><g style="fill:#000000;fill-opacity:1;"><g transform="translate(130.174362, 82.854444)"><path style="stroke:none" d="M 1.0625 -9.453125 C 1.300781 -9.691406 1.585938 -9.8125 1.921875 -9.8125 C 2.253906 -9.8125 2.535156 -9.691406 2.765625 -9.453125 C 3.003906 -9.222656 3.125 -8.9375 3.125 -8.59375 C 3.125 -7.539062 2.535156 -6.53125 1.359375 -5.5625 L 0.8125 -6 C 0.851562 -6.039062 0.910156 -6.101562 0.984375 -6.1875 C 1.054688 -6.269531 1.164062 -6.441406 1.3125 -6.703125 C 1.46875 -6.960938 1.570312 -7.222656 1.625 -7.484375 C 1.351562 -7.546875 1.128906 -7.675781 0.953125 -7.875 C 0.785156 -8.082031 0.703125 -8.320312 0.703125 -8.59375 C 0.703125 -8.925781 0.820312 -9.210938 1.0625 -9.453125 Z M 4.015625 -9.453125 C 4.253906 -9.691406 4.539062 -9.8125 4.875 -9.8125 C 5.207031 -9.8125 5.492188 -9.691406 5.734375 -9.453125 C 5.972656 -9.210938 6.09375 -8.925781 6.09375 -8.59375 C 6.09375 -7.5625 5.503906 -6.550781 4.328125 -5.5625 L 3.78125 -6 C 3.820312 -6.039062 3.878906 -6.101562 3.953125 -6.1875 C 4.023438 -6.269531 4.132812 -6.441406 4.28125 -6.703125 C 4.4375 -6.960938 4.535156 -7.222656 4.578125 -7.484375 C 4.316406 -7.546875 4.097656 -7.675781 3.921875 -7.875 C 3.753906 -8.082031 3.671875 -8.320312 3.671875 -8.59375 C 3.671875 -8.9375 3.785156 -9.222656 4.015625 -9.453125 Z M 4.015625 -9.453125 "/></g></g><g style="fill:#000000;fill-opacity:1;"><g transform="translate(19.916615, 99.136055)"><path style="stroke:none" d="M 0.703125 -4.28125 L 4.46875 -4.28125 L 4.46875 -2.484375 L 0.703125 -2.484375 Z M 0.703125 -4.28125 "/></g></g><g style="fill:#000000;fill-opacity:1;"><g transform="translate(25.083705, 99.136055)"><path style="stroke:none" d=""/></g></g><g style="fill:#000000;fill-opacity:1;"><g transform="translate(28.275147, 99.136055)"><path style="stroke:none" d="M 8.671875 0 L 8.21875 -5.71875 L 8.15625 -5.71875 L 6.1875 -0.0625 L 4.875 -0.0625 L 2.90625 -5.71875 L 2.84375 -5.71875 L 2.390625 0 L 0.1875 0 L 1.046875 -9.640625 L 3.390625 -9.640625 L 5.53125 -4.078125 L 7.671875 -9.640625 L 10 -9.640625 L 10.875 0 Z M 8.671875 0 "/></g></g><g style="fill:#000000;fill-opacity:1;"><g transform="translate(39.334124, 99.136055)"><path style="stroke:none" d="M 1.109375 -0.734375 C 0.546875 -1.347656 0.265625 -2.097656 0.265625 -2.984375 C 0.265625 -3.878906 0.546875 -4.632812 1.109375 -5.25 C 1.671875 -5.863281 2.382812 -6.171875 3.25 -6.171875 C 4.039062 -6.171875 4.695312 -5.921875 5.21875 -5.421875 L 5.21875 -6 L 7.28125 -6 L 7.28125 0 L 5.234375 0 L 5.234375 -0.671875 L 5.21875 -0.671875 C 4.695312 -0.109375 4.039062 0.171875 3.25 0.171875 C 2.382812 0.171875 1.671875 -0.128906 1.109375 -0.734375 Z M 2.859375 -4 C 2.597656 -3.738281 2.46875 -3.398438 2.46875 -2.984375 C 2.46875 -2.578125 2.59375 -2.242188 2.84375 -1.984375 C 3.101562 -1.722656 3.445312 -1.59375 3.875 -1.59375 C 4.269531 -1.59375 4.597656 -1.722656 4.859375 -1.984375 C 5.128906 -2.253906 5.265625 -2.585938 5.265625 -2.984375 C 5.265625 -3.398438 5.128906 -3.738281 4.859375 -4 C 4.585938 -4.269531 4.257812 -4.40625 3.875 -4.40625 C 3.46875 -4.40625 3.128906 -4.269531 2.859375 -4 Z M 2.859375 -4 "/></g></g><g style="fill:#000000;fill-opacity:1;"><g transform="translate(47.236725, 99.136055)"><path style="stroke:none" d="M 1.046875 -6 L 1.046875 -8.234375 L 3.125 -8.234375 L 3.125 -6 L 4.390625 -6 L 4.390625 -4.421875 L 3.125 -4.421875 L 3.125 -2.515625 C 3.125 -1.960938 3.28125 -1.6875 3.59375 -1.6875 C 3.664062 -1.6875 3.742188 -1.703125 3.828125 -1.734375 C 3.921875 -1.765625 3.988281 -1.796875 4.03125 -1.828125 L 4.109375 -1.875 L 4.609375 -0.203125 C 4.171875 0.046875 3.664062 0.171875 3.09375 0.171875 C 2.707031 0.171875 2.375 0.101562 2.09375 -0.03125 C 1.8125 -0.164062 1.597656 -0.347656 1.453125 -0.578125 C 1.304688 -0.804688 1.203125 -1.046875 1.140625 -1.296875 C 1.078125 -1.554688 1.046875 -1.828125 1.046875 -2.109375 L 1.046875 -4.421875 L 0.1875 -4.421875 L 0.1875 -6 Z M 1.046875 -6 "/></g></g><g style="fill:#000000;fill-opacity:1;"><g transform="translate(51.784223, 99.136055)"><path style="stroke:none" d="M 1.046875 -6 L 1.046875 -8.234375 L 3.125 -8.234375 L 3.125 -6 L 4.390625 -6 L 4.390625 -4.421875 L 3.125 -4.421875 L 3.125 -2.515625 C 3.125 -1.960938 3.28125 -1.6875 3.59375 -1.6875 C 3.664062 -1.6875 3.742188 -1.703125 3.828125 -1.734375 C 3.921875 -1.765625 3.988281 -1.796875 4.03125 -1.828125 L 4.109375 -1.875 L 4.609375 -0.203125 C 4.171875 0.046875 3.664062 0.171875 3.09375 0.171875 C 2.707031 0.171875 2.375 0.101562 2.09375 -0.03125 C 1.8125 -0.164062 1.597656 -0.347656 1.453125 -0.578125 C 1.304688 -0.804688 1.203125 -1.046875 1.140625 -1.296875 C 1.078125 -1.554688 1.046875 -1.828125 1.046875 -2.109375 L 1.046875 -4.421875 L 0.1875 -4.421875 L 0.1875 -6 Z M 1.046875 -6 "/></g></g><g style="fill:#000000;fill-opacity:1;"><g transform="translate(56.401875, 99.136055)"><path style="stroke:none" d="M 0.703125 0 L 0.703125 -10.046875 L 2.765625 -10.046875 L 2.765625 -5.359375 L 2.796875 -5.359375 C 3.328125 -5.898438 3.898438 -6.171875 4.515625 -6.171875 C 4.804688 -6.171875 5.097656 -6.128906 5.390625 -6.046875 C 5.679688 -5.972656 5.960938 -5.851562 6.234375 -5.6875 C 6.503906 -5.53125 6.722656 -5.300781 6.890625 -5 C 7.054688 -4.695312 7.140625 -4.347656 7.140625 -3.953125 L 7.140625 0 L 5.078125 0 L 5.078125 -3.390625 C 5.078125 -3.703125 4.972656 -3.972656 4.765625 -4.203125 C 4.566406 -4.441406 4.3125 -4.5625 4 -4.5625 C 3.6875 -4.5625 3.398438 -4.4375 3.140625 -4.1875 C 2.890625 -3.945312 2.765625 -3.679688 2.765625 -3.390625 L 2.765625 0 Z M 0.703125 0 "/></g></g><g style="fill:#000000;fill-opacity:1;"><g transform="translate(64.129126, 99.136055)"><path style="stroke:none" d="M 6.765625 -2.71875 L 2.421875 -2.71875 C 2.421875 -2.289062 2.554688 -1.972656 2.828125 -1.765625 C 3.097656 -1.566406 3.394531 -1.46875 3.71875 -1.46875 C 4.050781 -1.46875 4.3125 -1.507812 4.5 -1.59375 C 4.695312 -1.6875 4.921875 -1.867188 5.171875 -2.140625 L 6.671875 -1.390625 C 6.046875 -0.347656 5.007812 0.171875 3.5625 0.171875 C 2.65625 0.171875 1.878906 -0.132812 1.234375 -0.75 C 0.585938 -1.375 0.265625 -2.117188 0.265625 -2.984375 C 0.265625 -3.859375 0.585938 -4.609375 1.234375 -5.234375 C 1.878906 -5.859375 2.65625 -6.171875 3.5625 -6.171875 C 4.507812 -6.171875 5.28125 -5.894531 5.875 -5.34375 C 6.476562 -4.789062 6.78125 -4.003906 6.78125 -2.984375 C 6.78125 -2.847656 6.773438 -2.757812 6.765625 -2.71875 Z M 2.484375 -3.859375 L 4.75 -3.859375 C 4.707031 -4.171875 4.585938 -4.410156 4.390625 -4.578125 C 4.191406 -4.742188 3.9375 -4.828125 3.625 -4.828125 C 3.28125 -4.828125 3.003906 -4.738281 2.796875 -4.5625 C 2.597656 -4.382812 2.492188 -4.148438 2.484375 -3.859375 Z M 2.484375 -3.859375 "/></g></g><g style="fill:#000000;fill-opacity:1;"><g transform="translate(71.11989, 99.136055)"><path style="stroke:none" d="M 4.390625 0 L 2.984375 0 L -0.234375 -6 L 2.15625 -6 L 3.609375 -2.765625 L 5.046875 -6 L 6.46875 -6 L 7.90625 -2.765625 L 9.375 -6 L 11.75 -6 L 8.546875 0 L 7.140625 0 L 5.765625 -3.09375 Z M 4.390625 0 "/></g></g><g style="fill:#000000;fill-opacity:1;"><g transform="translate(82.646475, 99.136055)"><path style="stroke:none" d=""/></g></g><g style="fill:#000000;fill-opacity:1;"><g transform="translate(85.837917, 99.136055)"><path style="stroke:none" d="M 4.25 -7.953125 C 3.9375 -7.953125 3.632812 -7.796875 3.34375 -7.484375 C 3.0625 -7.179688 2.851562 -6.878906 2.71875 -6.578125 L 2.53125 -6.125 L 0.6875 -7.015625 C 0.707031 -7.085938 0.742188 -7.1875 0.796875 -7.3125 C 0.859375 -7.4375 0.988281 -7.660156 1.1875 -7.984375 C 1.394531 -8.304688 1.617188 -8.585938 1.859375 -8.828125 C 2.109375 -9.078125 2.441406 -9.300781 2.859375 -9.5 C 3.285156 -9.707031 3.75 -9.8125 4.25 -9.8125 C 4.875 -9.8125 5.421875 -9.734375 5.890625 -9.578125 C 6.367188 -9.421875 6.734375 -9.222656 6.984375 -8.984375 C 7.242188 -8.742188 7.453125 -8.460938 7.609375 -8.140625 C 7.773438 -7.816406 7.878906 -7.519531 7.921875 -7.25 C 7.960938 -6.988281 7.984375 -6.710938 7.984375 -6.421875 C 7.984375 -6.003906 7.863281 -5.5625 7.625 -5.09375 C 7.394531 -4.632812 7.113281 -4.222656 6.78125 -3.859375 C 6.445312 -3.492188 6.113281 -3.160156 5.78125 -2.859375 C 5.445312 -2.566406 5.164062 -2.335938 4.9375 -2.171875 L 4.578125 -1.921875 L 8.15625 -1.921875 L 8.15625 0 L 0.640625 0 L 0.640625 -0.546875 C 0.773438 -0.660156 0.953125 -0.8125 1.171875 -1 C 1.398438 -1.1875 1.796875 -1.550781 2.359375 -2.09375 C 2.929688 -2.632812 3.4375 -3.140625 3.875 -3.609375 C 4.3125 -4.078125 4.707031 -4.578125 5.0625 -5.109375 C 5.425781 -5.648438 5.609375 -6.085938 5.609375 -6.421875 C 5.609375 -6.554688 5.59375 -6.691406 5.5625 -6.828125 C 5.539062 -6.960938 5.488281 -7.125 5.40625 -7.3125 C 5.332031 -7.5 5.191406 -7.648438 4.984375 -7.765625 C 4.785156 -7.890625 4.539062 -7.953125 4.25 -7.953125 Z M 4.25 -7.953125 "/></g></g><g style="fill:#000000;fill-opacity:1;"><g transform="translate(94.640678, 99.136055)"><path style="stroke:none" d="M 7.171875 -7.390625 C 7.171875 -6.410156 6.753906 -5.679688 5.921875 -5.203125 C 6.441406 -4.960938 6.851562 -4.625 7.15625 -4.1875 C 7.46875 -3.757812 7.625 -3.226562 7.625 -2.59375 C 7.625 -1.8125 7.257812 -1.15625 6.53125 -0.625 C 5.800781 -0.09375 4.960938 0.171875 4.015625 0.171875 C 3.054688 0.171875 2.210938 -0.0859375 1.484375 -0.609375 C 0.765625 -1.140625 0.40625 -1.800781 0.40625 -2.59375 C 0.40625 -3.8125 0.96875 -4.679688 2.09375 -5.203125 C 1.238281 -5.679688 0.8125 -6.410156 0.8125 -7.390625 C 0.8125 -8.078125 1.132812 -8.648438 1.78125 -9.109375 C 2.4375 -9.578125 3.179688 -9.8125 4.015625 -9.8125 C 4.859375 -9.8125 5.59375 -9.578125 6.21875 -9.109375 C 6.851562 -8.648438 7.171875 -8.078125 7.171875 -7.390625 Z M 5.078125 -7.078125 C 5.078125 -7.378906 4.976562 -7.632812 4.78125 -7.84375 C 4.582031 -8.050781 4.328125 -8.15625 4.015625 -8.15625 C 3.703125 -8.15625 3.441406 -8.050781 3.234375 -7.84375 C 3.035156 -7.632812 2.9375 -7.375 2.9375 -7.0625 C 2.9375 -6.757812 3.039062 -6.503906 3.25 -6.296875 C 3.457031 -6.097656 3.710938 -6 4.015625 -6 C 4.328125 -6 4.582031 -6.097656 4.78125 -6.296875 C 4.976562 -6.492188 5.078125 -6.753906 5.078125 -7.078125 Z M 3.140625 -3.828125 C 2.910156 -3.597656 2.796875 -3.300781 2.796875 -2.9375 C 2.796875 -2.582031 2.90625 -2.289062 3.125 -2.0625 C 3.351562 -1.832031 3.648438 -1.71875 4.015625 -1.71875 C 4.359375 -1.71875 4.644531 -1.832031 4.875 -2.0625 C 5.113281 -2.289062 5.234375 -2.582031 5.234375 -2.9375 C 5.234375 -3.300781 5.113281 -3.597656 4.875 -3.828125 C 4.632812 -4.054688 4.347656 -4.171875 4.015625 -4.171875 C 3.660156 -4.171875 3.367188 -4.054688 3.140625 -3.828125 Z M 3.140625 -3.828125 "/></g></g><g style="fill:#000000;fill-opacity:1;"><g transform="translate(102.671875, 99.136055)"><path style="stroke:none" d="M 2.03125 -6.46875 C 2.40625 -6.46875 2.722656 -6.335938 2.984375 -6.078125 C 3.242188 -5.816406 3.375 -5.5 3.375 -5.125 C 3.375 -4.757812 3.242188 -4.445312 2.984375 -4.1875 C 2.722656 -3.925781 2.40625 -3.796875 2.03125 -3.796875 C 1.664062 -3.796875 1.351562 -3.925781 1.09375 -4.1875 C 0.832031 -4.445312 0.703125 -4.757812 0.703125 -5.125 C 0.703125 -5.5 0.832031 -5.816406 1.09375 -6.078125 C 1.351562 -6.335938 1.664062 -6.46875 2.03125 -6.46875 Z M 2.03125 -2.5 C 2.40625 -2.5 2.722656 -2.367188 2.984375 -2.109375 C 3.242188 -1.847656 3.375 -1.53125 3.375 -1.15625 C 3.375 -0.789062 3.242188 -0.476562 2.984375 -0.21875 C 2.722656 0.0390625 2.40625 0.171875 2.03125 0.171875 C 1.664062 0.171875 1.351562 0.0390625 1.09375 -0.21875 C 0.832031 -0.476562 0.703125 -0.789062 0.703125 -1.15625 C 0.703125 -1.53125 0.832031 -1.847656 1.09375 -2.109375 C 1.351562 -2.367188 1.664062 -2.5 2.03125 -2.5 Z M 2.03125 -2.5 "/></g></g><g style="fill:#000000;fill-opacity:1;"><g transform="translate(106.751778, 99.136055)"><path style="stroke:none" d="M 4.25 -7.953125 C 3.9375 -7.953125 3.632812 -7.796875 3.34375 -7.484375 C 3.0625 -7.179688 2.851562 -6.878906 2.71875 -6.578125 L 2.53125 -6.125 L 0.6875 -7.015625 C 0.707031 -7.085938 0.742188 -7.1875 0.796875 -7.3125 C 0.859375 -7.4375 0.988281 -7.660156 1.1875 -7.984375 C 1.394531 -8.304688 1.617188 -8.585938 1.859375 -8.828125 C 2.109375 -9.078125 2.441406 -9.300781 2.859375 -9.5 C 3.285156 -9.707031 3.75 -9.8125 4.25 -9.8125 C 4.875 -9.8125 5.421875 -9.734375 5.890625 -9.578125 C 6.367188 -9.421875 6.734375 -9.222656 6.984375 -8.984375 C 7.242188 -8.742188 7.453125 -8.460938 7.609375 -8.140625 C 7.773438 -7.816406 7.878906 -7.519531 7.921875 -7.25 C 7.960938 -6.988281 7.984375 -6.710938 7.984375 -6.421875 C 7.984375 -6.003906 7.863281 -5.5625 7.625 -5.09375 C 7.394531 -4.632812 7.113281 -4.222656 6.78125 -3.859375 C 6.445312 -3.492188 6.113281 -3.160156 5.78125 -2.859375 C 5.445312 -2.566406 5.164062 -2.335938 4.9375 -2.171875 L 4.578125 -1.921875 L 8.15625 -1.921875 L 8.15625 0 L 0.640625 0 L 0.640625 -0.546875 C 0.773438 -0.660156 0.953125 -0.8125 1.171875 -1 C 1.398438 -1.1875 1.796875 -1.550781 2.359375 -2.09375 C 2.929688 -2.632812 3.4375 -3.140625 3.875 -3.609375 C 4.3125 -4.078125 4.707031 -4.578125 5.0625 -5.109375 C 5.425781 -5.648438 5.609375 -6.085938 5.609375 -6.421875 C 5.609375 -6.554688 5.59375 -6.691406 5.5625 -6.828125 C 5.539062 -6.960938 5.488281 -7.125 5.40625 -7.3125 C 5.332031 -7.5 5.191406 -7.648438 4.984375 -7.765625 C 4.785156 -7.890625 4.539062 -7.953125 4.25 -7.953125 Z M 4.25 -7.953125 "/></g></g><g style="fill:#000000;fill-opacity:1;"><g transform="translate(115.554539, 99.136055)"><path style="stroke:none" d="M 0.328125 -4.8125 C 0.328125 -6.40625 0.703125 -7.632812 1.453125 -8.5 C 2.210938 -9.375 3.144531 -9.8125 4.25 -9.8125 C 5.351562 -9.8125 6.28125 -9.375 7.03125 -8.5 C 7.789062 -7.632812 8.171875 -6.40625 8.171875 -4.8125 C 8.171875 -3.945312 8.0625 -3.1875 7.84375 -2.53125 C 7.632812 -1.875 7.34375 -1.351562 6.96875 -0.96875 C 6.601562 -0.582031 6.191406 -0.296875 5.734375 -0.109375 C 5.285156 0.078125 4.789062 0.171875 4.25 0.171875 C 3.71875 0.171875 3.222656 0.078125 2.765625 -0.109375 C 2.304688 -0.296875 1.890625 -0.582031 1.515625 -0.96875 C 1.140625 -1.351562 0.847656 -1.875 0.640625 -2.53125 C 0.429688 -3.1875 0.328125 -3.945312 0.328125 -4.8125 Z M 2.546875 -4.8125 C 2.546875 -3.789062 2.691406 -3.023438 2.984375 -2.515625 C 3.285156 -2.003906 3.707031 -1.75 4.25 -1.75 C 4.789062 -1.75 5.207031 -2.003906 5.5 -2.515625 C 5.800781 -3.023438 5.953125 -3.789062 5.953125 -4.8125 C 5.953125 -5.789062 5.800781 -6.546875 5.5 -7.078125 C 5.195312 -7.617188 4.78125 -7.890625 4.25 -7.890625 C 3.71875 -7.890625 3.300781 -7.617188 3 -7.078125 C 2.695312 -6.535156 2.546875 -5.78125 2.546875 -4.8125 Z M 2.546875 -4.8125 "/></g></g></g></svg>