<svg xmlns="http://www.w3.org/2000/svg" xmlns:xlink="http://www.w3.org/1999/xlink" width="192" zoomAndPan="magnify" viewBox="0 0 144 143.999998" height="192" preserveAspectRatio="xMidYMid meet" version="1.2"><defs/><g id="78abd78c91"><g style="fill:#000000;fill-opacity:1;"><g transform="translate(7.74175, 50.291183)"><path style="stroke:none" d="M 1.5 -5.5625 C 1.15625 -5.5625 0.863281 -5.679688 0.625 -5.921875 C 0.382812 -6.160156 0.265625 -6.453125 0.265625 -6.796875 C 0.265625 -7.816406 0.859375 -8.820312 2.046875 -9.8125 L 2.59375 -9.390625 C 2.550781 -9.335938 2.488281 -9.269531 2.40625 -9.1875 C 2.332031 -9.101562 2.222656 -8.929688 2.078125 -8.671875 C 1.929688 -8.410156 1.832031 -8.148438 1.78125 -7.890625 C 2.050781 -7.828125 2.269531 -7.691406 2.4375 -7.484375 C 2.613281 -7.285156 2.703125 -7.054688 2.703125 -6.796875 C 2.703125 -6.453125 2.582031 -6.160156 2.34375 -5.921875 C 2.113281 -5.679688 1.832031 -5.5625 1.5 -5.5625 Z M 5.3125 -5.921875 C 5.070312 -5.679688 4.785156 -5.5625 4.453125 -5.5625 C 4.117188 -5.5625 3.832031 -5.679688 3.59375 -5.921875 C 3.363281 -6.160156 3.25 -6.453125 3.25 -6.796875 C 3.25 -7.847656 3.835938 -8.851562 5.015625 -9.8125 L 5.5625 -9.390625 C 5.519531 -9.335938 5.457031 -9.269531 5.375 -9.1875 C 5.300781 -9.101562 5.191406 -8.929688 5.046875 -8.671875 C 4.898438 -8.410156 4.800781 -8.148438 4.75 -7.890625 C 5.019531 -7.828125 5.238281 -7.691406 5.40625 -7.484375 C 5.582031 -7.285156 5.671875 -7.054688 5.671875 -6.796875 C 5.671875 -6.453125 5.550781 -6.160156 5.3125 -5.921875 Z M 5.3125 -5.921875 "/></g></g><g style="fill:#000000;fill-opacity:1;"><g transform="translate(14.112934, 50.291183)"><path style="stroke:none" d="M 0.09375 -7.71875 L 0.09375 -9.640625 L 6.875 -9.640625 L 6.875 -7.71875 L 4.578125 -7.71875 L 4.578125 0 L 2.390625 0 L 2.390625 -7.71875 Z M 0.09375 -7.71875 "/></g></g><g style="fill:#000000;fill-opacity:1;"><g transform="translate(21.080321, 50.291183)"><path style="stroke:none" d="M 0.703125 0 L 0.703125 -10.046875 L 2.765625 -10.046875 L 2.765625 -5.359375 L 2.796875 -5.359375 C 3.328125 -5.898438 3.898438 -6.171875 4.515625 -6.171875 C 4.804688 -6.171875 5.097656 -6.128906 5.390625 -6.046875 C 5.679688 -5.972656 5.960938 -5.851562 6.234375 -5.6875 C 6.503906 -5.53125 6.722656 -5.300781 6.890625 -5 C 7.054688 -4.695312 7.140625 -4.347656 7.140625 -3.953125 L 7.140625 0 L 5.078125 0 L 5.078125 -3.390625 C 5.078125 -3.703125 4.972656 -3.972656 4.765625 -4.203125 C 4.566406 -4.441406 4.3125 -4.5625 4 -4.5625 C 3.6875 -4.5625 3.398438 -4.4375 3.140625 -4.1875 C 2.890625 -3.945312 2.765625 -3.679688 2.765625 -3.390625 L 2.765625 0 Z M 0.703125 0 "/></g></g><g style="fill:#000000;fill-opacity:1;"><g transform="translate(28.807572, 50.291183)"><path style="stroke:none" d="M 6.765625 -2.71875 L 2.421875 -2.71875 C 2.421875 -2.289062 2.554688 -1.972656 2.828125 -1.765625 C 3.097656 -1.566406 3.394531 -1.46875 3.71875 -1.46875 C 4.050781 -1.46875 4.3125 -1.507812 4.5 -1.59375 C 4.695312 -1.6875 4.921875 -1.867188 5.171875 -2.140625 L 6.671875 -1.390625 C 6.046875 -0.347656 5.007812 0.171875 3.5625 0.171875 C 2.65625 0.171875 1.878906 -0.132812 1.234375 -0.75 C 0.585938 -1.375 0.265625 -2.117188 0.265625 -2.984375 C 0.265625 -3.859375 0.585938 -4.609375 1.234375 -5.234375 C 1.878906 -5.859375 2.65625 -6.171875 3.5625 -6.171875 C 4.507812 -6.171875 5.28125 -5.894531 5.875 -5.34375 C 6.476562 -4.789062 6.78125 -4.003906 6.78125 -2.984375 C 6.78125 -2.847656 6.773438 -2.757812 6.765625 -2.71875 Z M 2.484375 -3.859375 L 4.75 -3.859375 C 4.707031 -4.171875 4.585938 -4.410156 4.390625 -4.578125 C 4.191406 -4.742188 3.9375 -4.828125 3.625 -4.828125 C 3.28125 -4.828125 3.003906 -4.738281 2.796875 -4.5625 C 2.597656 -4.382812 2.492188 -4.148438 2.484375 -3.859375 Z M 2.484375 -3.859375 "/></g></g><g style="fill:#000000;fill-opacity:1;"><g transform="translate(35.798336, 50.291183)"><path style="stroke:none" d="M 5.25 -6 L 7.625 -6 L 2.921875 3.03125 L 0.53125 3.03125 L 2.609375 -0.9375 L -0.234375 -6 L 2.15625 -6 L 3.828125 -2.921875 Z M 5.25 -6 "/></g></g><g style="fill:#000000;fill-opacity:1;"><g transform="translate(43.198265, 50.291183)"><path style="stroke:none" d=""/></g></g><g style="fill:#000000;fill-opacity:1;"><g transform="translate(46.389707, 50.291183)"><path style="stroke:none" d="M 1.046875 -6 L 1.046875 -8.234375 L 3.125 -8.234375 L 3.125 -6 L 4.390625 -6 L 4.390625 -4.421875 L 3.125 -4.421875 L 3.125 -2.515625 C 3.125 -1.960938 3.28125 -1.6875 3.59375 -1.6875 C 3.664062 -1.6875 3.742188 -1.703125 3.828125 -1.734375 C 3.921875 -1.765625 3.988281 -1.796875 4.03125 -1.828125 L 4.109375 -1.875 L 4.609375 -0.203125 C 4.171875 0.046875 3.664062 0.171875 3.09375 0.171875 C 2.707031 0.171875 2.375 0.101562 2.09375 -0.03125 C 1.8125 -0.164062 1.597656 -0.347656 1.453125 -0.578125 C 1.304688 -0.804688 1.203125 -1.046875 1.140625 -1.296875 C 1.078125 -1.554688 1.046875 -1.828125 1.046875 -2.109375 L 1.046875 -4.421875 L 0.1875 -4.421875 L 0.1875 -6 Z M 1.046875 -6 "/></g></g><g style="fill:#000000;fill-opacity:1;"><g transform="translate(51.007359, 50.291183)"><path style="stroke:none" d="M 0.703125 0 L 0.703125 -10.046875 L 2.765625 -10.046875 L 2.765625 -5.359375 L 2.796875 -5.359375 C 3.328125 -5.898438 3.898438 -6.171875 4.515625 -6.171875 C 4.804688 -6.171875 5.097656 -6.128906 5.390625 -6.046875 C 5.679688 -5.972656 5.960938 -5.851562 6.234375 -5.6875 C 6.503906 -5.53125 6.722656 -5.300781 6.890625 -5 C 7.054688 -4.695312 7.140625 -4.347656 7.140625 -3.953125 L 7.140625 0 L 5.078125 0 L 5.078125 -3.390625 C 5.078125 -3.703125 4.972656 -3.972656 4.765625 -4.203125 C 4.566406 -4.441406 4.3125 -4.5625 4 -4.5625 C 3.6875 -4.5625 3.398438 -4.4375 3.140625 -4.1875 C 2.890625 -3.945312 2.765625 -3.679688 2.765625 -3.390625 L 2.765625 0 Z M 0.703125 0 "/></g></g><g style="fill:#000000;fill-opacity:1;"><g transform="translate(58.73461, 50.291183)"><path style="stroke:none" d="M 1.109375 -0.734375 C 0.546875 -1.347656 0.265625 -2.097656 0.265625 -2.984375 C 0.265625 -3.878906 0.546875 -4.632812 1.109375 -5.25 C 1.671875 -5.863281 2.382812 -6.171875 3.25 -6.171875 C 4.039062 -6.171875 4.695312 -5.921875 5.21875 -5.421875 L 5.21875 -6 L 7.28125 -6 L 7.28125 0 L 5.234375 0 L 5.234375 -0.671875 L 5.21875 -0.671875 C 4.695312 -0.109375 4.039062 0.171875 3.25 0.171875 C 2.382812 0.171875 1.671875 -0.128906 1.109375 -0.734375 Z M 2.859375 -4 C 2.597656 -3.738281 2.46875 -3.398438 2.46875 -2.984375 C 2.46875 -2.578125 2.59375 -2.242188 2.84375 -1.984375 C 3.101562 -1.722656 3.445312 -1.59375 3.875 -1.59375 C 4.269531 -1.59375 4.597656 -1.722656 4.859375 -1.984375 C 5.128906 -2.253906 5.265625 -2.585938 5.265625 -2.984375 C 5.265625 -3.398438 5.128906 -3.738281 4.859375 -4 C 4.585938 -4.269531 4.257812 -4.40625 3.875 -4.40625 C 3.46875 -4.40625 3.128906 -4.269531 2.859375 -4 Z M 2.859375 -4 "/></g></g><g style="fill:#000000;fill-opacity:1;"><g transform="translate(66.637211, 50.291183)"><path style="stroke:none" d="M 1.046875 -6 L 1.046875 -8.234375 L 3.125 -8.234375 L 3.125 -6 L 4.390625 -6 L 4.390625 -4.421875 L 3.125 -4.421875 L 3.125 -2.515625 C 3.125 -1.960938 3.28125 -1.6875 3.59375 -1.6875 C 3.664062 -1.6875 3.742188 -1.703125 3.828125 -1.734375 C 3.921875 -1.765625 3.988281 -1.796875 4.03125 -1.828125 L 4.109375 -1.875 L 4.609375 -0.203125 C 4.171875 0.046875 3.664062 0.171875 3.09375 0.171875 C 2.707031 0.171875 2.375 0.101562 2.09375 -0.03125 C 1.8125 -0.164062 1.597656 -0.347656 1.453125 -0.578125 C 1.304688 -0.804688 1.203125 -1.046875 1.140625 -1.296875 C 1.078125 -1.554688 1.046875 -1.828125 1.046875 -2.109375 L 1.046875 -4.421875 L 0.1875 -4.421875 L 0.1875 -6 Z M 1.046875 -6 "/></g></g><g style="fill:#000000;fill-opacity:1;"><g transform="translate(71.254862, 50.291183)"><path style="stroke:none" d=""/></g></g><g style="fill:#000000;fill-opacity:1;"><g transform="translate(74.37615, 50.291183)"><path style="stroke:none" d="M 4.390625 0 L 2.984375 0 L -0.234375 -6 L 2.15625 -6 L 3.609375 -2.765625 L 5.046875 -6 L 6.46875 -6 L 7.90625 -2.765625 L 9.375 -6 L 11.75 -6 L 8.546875 0 L 7.140625 0 L 5.765625 -3.09375 Z M 4.390625 0 "/></g></g><g style="fill:#000000;fill-opacity:1;"><g transform="translate(85.820893, 50.291183)"><path style="stroke:none" d="M 1.109375 -0.734375 C 0.546875 -1.347656 0.265625 -2.097656 0.265625 -2.984375 C 0.265625 -3.878906 0.546875 -4.632812 1.109375 -5.25 C 1.671875 -5.863281 2.382812 -6.171875 3.25 -6.171875 C 4.039062 -6.171875 4.695312 -5.921875 5.21875 -5.421875 L 5.21875 -6 L 7.28125 -6 L 7.28125 0 L 5.234375 0 L 5.234375 -0.671875 L 5.21875 -0.671875 C 4.695312 -0.109375 4.039062 0.171875 3.25 0.171875 C 2.382812 0.171875 1.671875 -0.128906 1.109375 -0.734375 Z M 2.859375 -4 C 2.597656 -3.738281 2.46875 -3.398438 2.46875 -2.984375 C 2.46875 -2.578125 2.59375 -2.242188 2.84375 -1.984375 C 3.101562 -1.722656 3.445312 -1.59375 3.875 -1.59375 C 4.269531 -1.59375 4.597656 -1.722656 4.859375 -1.984375 C 5.128906 -2.253906 5.265625 -2.585938 5.265625 -2.984375 C 5.265625 -3.398438 5.128906 -3.738281 4.859375 -4 C 4.585938 -4.269531 4.257812 -4.40625 3.875 -4.40625 C 3.46875 -4.40625 3.128906 -4.269531 2.859375 -4 Z M 2.859375 -4 "/></g></g><g style="fill:#000000;fill-opacity:1;"><g transform="translate(93.805336, 50.291183)"><path style="stroke:none" d="M 0.890625 -9.328125 C 1.140625 -9.578125 1.429688 -9.703125 1.765625 -9.703125 C 2.097656 -9.703125 2.382812 -9.578125 2.625 -9.328125 C 2.863281 -9.085938 2.984375 -8.800781 2.984375 -8.46875 C 2.984375 -8.132812 2.863281 -7.847656 2.625 -7.609375 C 2.382812 -7.367188 2.097656 -7.25 1.765625 -7.25 C 1.429688 -7.25 1.140625 -7.367188 0.890625 -7.609375 C 0.648438 -7.847656 0.53125 -8.132812 0.53125 -8.46875 C 0.53125 -8.800781 0.648438 -9.085938 0.890625 -9.328125 Z M 0.703125 -6 L 0.703125 0 L 2.765625 0 L 2.765625 -6 Z M 0.703125 -6 "/></g></g><g style="fill:#000000;fill-opacity:1;"><g transform="translate(97.335789, 50.291183)"><path style="stroke:none" d="M 1.046875 -6 L 1.046875 -8.234375 L 3.125 -8.234375 L 3.125 -6 L 4.390625 -6 L 4.390625 -4.421875 L 3.125 -4.421875 L 3.125 -2.515625 C 3.125 -1.960938 3.28125 -1.6875 3.59375 -1.6875 C 3.664062 -1.6875 3.742188 -1.703125 3.828125 -1.734375 C 3.921875 -1.765625 3.988281 -1.796875 4.03125 -1.828125 L 4.109375 -1.875 L 4.609375 -0.203125 C 4.171875 0.046875 3.664062 0.171875 3.09375 0.171875 C 2.707031 0.171875 2.375 0.101562 2.09375 -0.03125 C 1.8125 -0.164062 1.597656 -0.347656 1.453125 -0.578125 C 1.304688 -0.804688 1.203125 -1.046875 1.140625 -1.296875 C 1.078125 -1.554688 1.046875 -1.828125 1.046875 -2.109375 L 1.046875 -4.421875 L 0.1875 -4.421875 L 0.1875 -6 Z M 1.046875 -6 "/></g></g><g style="fill:#000000;fill-opacity:1;"><g transform="translate(101.953441, 50.291183)"><path style="stroke:none" d=""/></g></g><g style="fill:#000000;fill-opacity:1;"><g transform="translate(105.144883, 50.291183)"><path style="stroke:none" d="M 2.65625 -6 L 2.65625 -3.140625 C 2.65625 -2.546875 2.742188 -2.125 2.921875 -1.875 C 3.097656 -1.625 3.398438 -1.5 3.828125 -1.5 C 4.253906 -1.5 4.554688 -1.625 4.734375 -1.875 C 4.921875 -2.125 5.015625 -2.546875 5.015625 -3.140625 L 5.015625 -6 L 7.078125 -6 L 7.078125 -2.640625 C 7.078125 -1.640625 6.816406 -0.921875 6.296875 -0.484375 C 5.785156 -0.046875 4.960938 0.171875 3.828125 0.171875 C 2.703125 0.171875 1.878906 -0.046875 1.359375 -0.484375 C 0.835938 -0.921875 0.578125 -1.640625 0.578125 -2.640625 L 0.578125 -6 Z M 2.65625 -6 "/></g></g><g style="fill:#000000;fill-opacity:1;"><g transform="translate(112.813692, 50.291183)"><path style="stroke:none" d="M 6.875 -5.25 C 7.4375 -4.644531 7.71875 -3.894531 7.71875 -3 C 7.71875 -2.113281 7.4375 -1.363281 6.875 -0.75 C 6.3125 -0.132812 5.597656 0.171875 4.734375 0.171875 C 3.941406 0.171875 3.285156 -0.078125 2.765625 -0.578125 L 2.765625 3.03125 L 0.703125 3.03125 L 0.703125 -6 L 2.75 -6 L 2.75 -5.3125 L 2.765625 -5.3125 C 3.285156 -5.882812 3.941406 -6.171875 4.734375 -6.171875 C 5.597656 -6.171875 6.3125 -5.863281 6.875 -5.25 Z M 5.109375 -1.984375 C 5.378906 -2.253906 5.515625 -2.59375 5.515625 -3 C 5.515625 -3.414062 5.382812 -3.753906 5.125 -4.015625 C 4.875 -4.273438 4.535156 -4.40625 4.109375 -4.40625 C 3.703125 -4.40625 3.367188 -4.269531 3.109375 -4 C 2.847656 -3.738281 2.71875 -3.40625 2.71875 -3 C 2.71875 -2.59375 2.851562 -2.253906 3.125 -1.984375 C 3.394531 -1.722656 3.722656 -1.59375 4.109375 -1.59375 C 4.503906 -1.59375 4.835938 -1.722656 5.109375 -1.984375 Z M 5.109375 -1.984375 "/></g></g><g style="fill:#000000;fill-opacity:1;"><g transform="translate(120.798136, 50.291183)"><path style="stroke:none" d="M 1.265625 -0.703125 C 0.597656 -1.296875 0.265625 -2.054688 0.265625 -2.984375 C 0.265625 -3.921875 0.609375 -4.6875 1.296875 -5.28125 C 1.992188 -5.875 2.851562 -6.171875 3.875 -6.171875 C 4.882812 -6.171875 5.734375 -5.867188 6.421875 -5.265625 C 7.109375 -4.671875 7.453125 -3.910156 7.453125 -2.984375 C 7.453125 -2.066406 7.113281 -1.3125 6.4375 -0.71875 C 5.769531 -0.125 4.914062 0.171875 3.875 0.171875 C 2.800781 0.171875 1.929688 -0.117188 1.265625 -0.703125 Z M 2.859375 -4 C 2.597656 -3.738281 2.46875 -3.398438 2.46875 -2.984375 C 2.46875 -2.578125 2.59375 -2.242188 2.84375 -1.984375 C 3.101562 -1.722656 3.445312 -1.59375 3.875 -1.59375 C 4.269531 -1.59375 4.597656 -1.722656 4.859375 -1.984375 C 5.128906 -2.253906 5.265625 -2.585938 5.265625 -2.984375 C 5.265625 -3.398438 5.128906 -3.738281 4.859375 -4 C 4.585938 -4.269531 4.257812 -4.40625 3.875 -4.40625 C 3.46875 -4.40625 3.128906 -4.269531 2.859375 -4 Z M 2.859375 -4 "/></g></g><g style="fill:#000000;fill-opacity:1;"><g transform="translate(128.501998, 50.291183)"><path style="stroke:none" d="M 0.703125 0 L 0.703125 -6 L 2.765625 -6 L 2.765625 -5.359375 L 2.796875 -5.359375 C 3.328125 -5.898438 3.898438 -6.171875 4.515625 -6.171875 C 4.804688 -6.171875 5.097656 -6.128906 5.390625 -6.046875 C 5.679688 -5.972656 5.960938 -5.851562 6.234375 -5.6875 C 6.503906 -5.53125 6.722656 -5.300781 6.890625 -5 C 7.054688 -4.695312 7.140625 -4.347656 7.140625 -3.953125 L 7.140625 0 L 5.078125 0 L 5.078125 -3.390625 C 5.078125 -3.703125 4.972656 -3.972656 4.765625 -4.203125 C 4.566406 -4.441406 4.3125 -4.5625 4 -4.5625 C 3.6875 -4.5625 3.398438 -4.4375 3.140625 -4.1875 C 2.890625 -3.945312 2.765625 -3.679688 2.765625 -3.390625 L 2.765625 0 Z M 0.703125 0 "/></g></g><g style="fill:#000000;fill-opacity:1;"><g transform="translate(9.728494, 66.572794)"><path style="stroke:none" d="M 1.046875 -6 L 1.046875 -8.234375 L 3.125 -8.234375 L 3.125 -6 L 4.390625 -6 L 4.390625 -4.421875 L 3.125 -4.421875 L 3.125 -2.515625 C 3.125 -1.960938 3.28125 -1.6875 3.59375 -1.6875 C 3.664062 -1.6875 3.742188 -1.703125 3.828125 -1.734375 C 3.921875 -1.765625 3.988281 -1.796875 4.03125 -1.828125 L 4.109375 -1.875 L 4.609375 -0.203125 C 4.171875 0.046875 3.664062 0.171875 3.09375 0.171875 C 2.707031 0.171875 2.375 0.101562 2.09375 -0.03125 C 1.8125 -0.164062 1.597656 -0.347656 1.453125 -0.578125 C 1.304688 -0.804688 1.203125 -1.046875 1.140625 -1.296875 C 1.078125 -1.554688 1.046875 -1.828125 1.046875 -2.109375 L 1.046875 -4.421875 L 0.1875 -4.421875 L 0.1875 -6 Z M 1.046875 -6 "/></g></g><g style="fill:#000000;fill-opacity:1;"><g transform="translate(14.346146, 66.572794)"><path style="stroke:none" d="M 0.703125 0 L 0.703125 -10.046875 L 2.765625 -10.046875 L 2.765625 -5.359375 L 2.796875 -5.359375 C 3.328125 -5.898438 3.898438 -6.171875 4.515625 -6.171875 C 4.804688 -6.171875 5.097656 -6.128906 5.390625 -6.046875 C 5.679688 -5.972656 5.960938 -5.851562 6.234375 -5.6875 C 6.503906 -5.53125 6.722656 -5.300781 6.890625 -5 C 7.054688 -4.695312 7.140625 -4.347656 7.140625 -3.953125 L 7.140625 0 L 5.078125 0 L 5.078125 -3.390625 C 5.078125 -3.703125 4.972656 -3.972656 4.765625 -4.203125 C 4.566406 -4.441406 4.3125 -4.5625 4 -4.5625 C 3.6875 -4.5625 3.398438 -4.4375 3.140625 -4.1875 C 2.890625 -3.945312 2.765625 -3.679688 2.765625 -3.390625 L 2.765625 0 Z M 0.703125 0 "/></g></g><g style="fill:#000000;fill-opacity:1;"><g transform="translate(22.073397, 66.572794)"><path style="stroke:none" d="M 6.765625 -2.71875 L 2.421875 -2.71875 C 2.421875 -2.289062 2.554688 -1.972656 2.828125 -1.765625 C 3.097656 -1.566406 3.394531 -1.46875 3.71875 -1.46875 C 4.050781 -1.46875 4.3125 -1.507812 4.5 -1.59375 C 4.695312 -1.6875 4.921875 -1.867188 5.171875 -2.140625 L 6.671875 -1.390625 C 6.046875 -0.347656 5.007812 0.171875 3.5625 0.171875 C 2.65625 0.171875 1.878906 -0.132812 1.234375 -0.75 C 0.585938 -1.375 0.265625 -2.117188 0.265625 -2.984375 C 0.265625 -3.859375 0.585938 -4.609375 1.234375 -5.234375 C 1.878906 -5.859375 2.65625 -6.171875 3.5625 -6.171875 C 4.507812 -6.171875 5.28125 -5.894531 5.875 -5.34375 C 6.476562 -4.789062 6.78125 -4.003906 6.78125 -2.984375 C 6.78125 -2.847656 6.773438 -2.757812 6.765625 -2.71875 Z M 2.484375 -3.859375 L 4.75 -3.859375 C 4.707031 -4.171875 4.585938 -4.410156 4.390625 -4.578125 C 4.191406 -4.742188 3.9375 -4.828125 3.625 -4.828125 C 3.28125 -4.828125 3.003906 -4.738281 2.796875 -4.5625 C 2.597656 -4.382812 2.492188 -4.148438 2.484375 -3.859375 Z M 2.484375 -3.859375 "/></g></g><g style="fill:#000000;fill-opacity:1;"><g transform="translate(29.122615, 66.572794)"><path style="stroke:none" d=""/></g></g><g style="fill:#000000;fill-opacity:1;"><g transform="translate(32.314057, 66.572794)"><path style="stroke:none" d="M 2.90625 -9.640625 L 2.90625 -1.921875 L 6.21875 -1.921875 L 6.21875 0 L 0.703125 0 L 0.703125 -9.640625 Z M 2.90625 -9.640625 "/></g></g><g style="fill:#000000;fill-opacity:1;"><g transform="translate(38.919044, 66.572794)"><path style="stroke:none" d="M 1.265625 -0.703125 C 0.597656 -1.296875 0.265625 -2.054688 0.265625 -2.984375 C 0.265625 -3.921875 0.609375 -4.6875 1.296875 -5.28125 C 1.992188 -5.875 2.851562 -6.171875 3.875 -6.171875 C 4.882812 -6.171875 5.734375 -5.867188 6.421875 -5.265625 C 7.109375 -4.671875 7.453125 -3.910156 7.453125 -2.984375 C 7.453125 -2.066406 7.113281 -1.3125 6.4375 -0.71875 C 5.769531 -0.125 4.914062 0.171875 3.875 0.171875 C 2.800781 0.171875 1.929688 -0.117188 1.265625 -0.703125 Z M 2.859375 -4 C 2.597656 -3.738281 2.46875 -3.398438 2.46875 -2.984375 C 2.46875 -2.578125 2.59375 -2.242188 2.84375 -1.984375 C 3.101562 -1.722656 3.445312 -1.59375 3.875 -1.59375 C 4.269531 -1.59375 4.597656 -1.722656 4.859375 -1.984375 C 5.128906 -2.253906 5.265625 -2.585938 5.265625 -2.984375 C 5.265625 -3.398438 5.128906 -3.738281 4.859375 -4 C 4.585938 -4.269531 4.257812 -4.40625 3.875 -4.40625 C 3.46875 -4.40625 3.128906 -4.269531 2.859375 -4 Z M 2.859375 -4 "/></g></g><g style="fill:#000000;fill-opacity:1;"><g transform="translate(46.622907, 66.572794)"><path style="stroke:none" d="M 0.703125 0 L 0.703125 -6 L 2.765625 -6 L 2.765625 -5.125 L 2.796875 -5.125 C 2.804688 -5.15625 2.828125 -5.191406 2.859375 -5.234375 C 2.898438 -5.285156 2.976562 -5.367188 3.09375 -5.484375 C 3.207031 -5.609375 3.332031 -5.71875 3.46875 -5.8125 C 3.601562 -5.90625 3.773438 -5.988281 3.984375 -6.0625 C 4.191406 -6.132812 4.40625 -6.171875 4.625 -6.171875 C 4.851562 -6.171875 5.078125 -6.140625 5.296875 -6.078125 C 5.515625 -6.015625 5.675781 -5.953125 5.78125 -5.890625 L 5.9375 -5.796875 L 5.078125 -4.046875 C 4.816406 -4.265625 4.457031 -4.375 4 -4.375 C 3.75 -4.375 3.53125 -4.316406 3.34375 -4.203125 C 3.164062 -4.097656 3.039062 -3.96875 2.96875 -3.8125 C 2.894531 -3.65625 2.84375 -3.519531 2.8125 -3.40625 C 2.78125 -3.300781 2.765625 -3.21875 2.765625 -3.15625 L 2.765625 0 Z M 0.703125 0 "/></g></g><g style="fill:#000000;fill-opacity:1;"><g transform="translate(52.444653, 66.572794)"><path style="stroke:none" d="M 1.109375 -0.734375 C 0.546875 -1.347656 0.265625 -2.097656 0.265625 -2.984375 C 0.265625 -3.878906 0.546875 -4.632812 1.109375 -5.25 C 1.671875 -5.863281 2.382812 -6.171875 3.25 -6.171875 C 4.039062 -6.171875 4.695312 -5.921875 5.21875 -5.421875 L 5.21875 -10.046875 L 7.28125 -10.046875 L 7.28125 0 L 5.234375 0 L 5.234375 -0.671875 L 5.21875 -0.671875 C 4.695312 -0.109375 4.039062 0.171875 3.25 0.171875 C 2.382812 0.171875 1.671875 -0.128906 1.109375 -0.734375 Z M 2.859375 -4 C 2.597656 -3.738281 2.46875 -3.398438 2.46875 -2.984375 C 2.46875 -2.578125 2.59375 -2.242188 2.84375 -1.984375 C 3.101562 -1.722656 3.445312 -1.59375 3.875 -1.59375 C 4.269531 -1.59375 4.597656 -1.722656 4.859375 -1.984375 C 5.128906 -2.253906 5.265625 -2.585938 5.265625 -2.984375 C 5.265625 -3.398438 5.128906 -3.738281 4.859375 -4 C 4.585938 -4.269531 4.257812 -4.40625 3.875 -4.40625 C 3.46875 -4.40625 3.128906 -4.269531 2.859375 -4 Z M 2.859375 -4 "/></g></g><g style="fill:#000000;fill-opacity:1;"><g transform="translate(60.429097, 66.572794)"><path style="stroke:none" d=""/></g></g><g style="fill:#000000;fill-opacity:1;"><g transform="translate(63.620539, 66.572794)"><path style="stroke:none" d="M 3.3125 -6.171875 C 3.65625 -6.171875 3.992188 -6.128906 4.328125 -6.046875 C 4.660156 -5.972656 4.910156 -5.898438 5.078125 -5.828125 L 5.3125 -5.703125 L 4.640625 -4.34375 C 4.171875 -4.59375 3.726562 -4.71875 3.3125 -4.71875 C 3.070312 -4.71875 2.90625 -4.691406 2.8125 -4.640625 C 2.71875 -4.585938 2.671875 -4.492188 2.671875 -4.359375 C 2.671875 -4.328125 2.671875 -4.296875 2.671875 -4.265625 C 2.679688 -4.234375 2.695312 -4.203125 2.71875 -4.171875 C 2.75 -4.148438 2.769531 -4.128906 2.78125 -4.109375 C 2.800781 -4.085938 2.832031 -4.066406 2.875 -4.046875 C 2.925781 -4.023438 2.960938 -4.003906 2.984375 -3.984375 C 3.015625 -3.972656 3.0625 -3.957031 3.125 -3.9375 C 3.1875 -3.914062 3.234375 -3.898438 3.265625 -3.890625 C 3.296875 -3.878906 3.347656 -3.859375 3.421875 -3.828125 C 3.503906 -3.804688 3.5625 -3.789062 3.59375 -3.78125 C 3.84375 -3.71875 4.054688 -3.640625 4.234375 -3.546875 C 4.410156 -3.460938 4.597656 -3.347656 4.796875 -3.203125 C 4.992188 -3.054688 5.144531 -2.867188 5.25 -2.640625 C 5.363281 -2.410156 5.421875 -2.15625 5.421875 -1.875 C 5.421875 -0.507812 4.472656 0.171875 2.578125 0.171875 C 2.148438 0.171875 1.742188 0.109375 1.359375 -0.015625 C 0.972656 -0.148438 0.695312 -0.285156 0.53125 -0.421875 L 0.265625 -0.625 L 1.109375 -2.046875 C 1.171875 -1.992188 1.25 -1.925781 1.34375 -1.84375 C 1.445312 -1.769531 1.628906 -1.671875 1.890625 -1.546875 C 2.160156 -1.421875 2.394531 -1.359375 2.59375 -1.359375 C 3.019531 -1.359375 3.234375 -1.5 3.234375 -1.78125 C 3.234375 -1.914062 3.175781 -2.019531 3.0625 -2.09375 C 2.957031 -2.164062 2.773438 -2.25 2.515625 -2.34375 C 2.253906 -2.4375 2.050781 -2.523438 1.90625 -2.609375 C 1.53125 -2.804688 1.234375 -3.023438 1.015625 -3.265625 C 0.796875 -3.515625 0.6875 -3.84375 0.6875 -4.25 C 0.6875 -4.851562 0.921875 -5.320312 1.390625 -5.65625 C 1.867188 -6 2.507812 -6.171875 3.3125 -6.171875 Z M 3.3125 -6.171875 "/></g></g><g style="fill:#000000;fill-opacity:1;"><g transform="translate(69.372143, 66.572794)"><path style="stroke:none" d="M 0.703125 0 L 0.703125 -10.046875 L 2.765625 -10.046875 L 2.765625 -5.359375 L 2.796875 -5.359375 C 3.328125 -5.898438 3.898438 -6.171875 4.515625 -6.171875 C 4.804688 -6.171875 5.097656 -6.128906 5.390625 -6.046875 C 5.679688 -5.972656 5.960938 -5.851562 6.234375 -5.6875 C 6.503906 -5.53125 6.722656 -5.300781 6.890625 -5 C 7.054688 -4.695312 7.140625 -4.347656 7.140625 -3.953125 L 7.140625 0 L 5.078125 0 L 5.078125 -3.390625 C 5.078125 -3.703125 4.972656 -3.972656 4.765625 -4.203125 C 4.566406 -4.441406 4.3125 -4.5625 4 -4.5625 C 3.6875 -4.5625 3.398438 -4.4375 3.140625 -4.1875 C 2.890625 -3.945312 2.765625 -3.679688 2.765625 -3.390625 L 2.765625 0 Z M 0.703125 0 "/></g></g><g style="fill:#000000;fill-opacity:1;"><g transform="translate(77.099394, 66.572794)"><path style="stroke:none" d="M 1.109375 -0.734375 C 0.546875 -1.347656 0.265625 -2.097656 0.265625 -2.984375 C 0.265625 -3.878906 0.546875 -4.632812 1.109375 -5.25 C 1.671875 -5.863281 2.382812 -6.171875 3.25 -6.171875 C 4.039062 -6.171875 4.695312 -5.921875 5.21875 -5.421875 L 5.21875 -6 L 7.28125 -6 L 7.28125 0 L 5.234375 0 L 5.234375 -0.671875 L 5.21875 -0.671875 C 4.695312 -0.109375 4.039062 0.171875 3.25 0.171875 C 2.382812 0.171875 1.671875 -0.128906 1.109375 -0.734375 Z M 2.859375 -4 C 2.597656 -3.738281 2.46875 -3.398438 2.46875 -2.984375 C 2.46875 -2.578125 2.59375 -2.242188 2.84375 -1.984375 C 3.101562 -1.722656 3.445312 -1.59375 3.875 -1.59375 C 4.269531 -1.59375 4.597656 -1.722656 4.859375 -1.984375 C 5.128906 -2.253906 5.265625 -2.585938 5.265625 -2.984375 C 5.265625 -3.398438 5.128906 -3.738281 4.859375 -4 C 4.585938 -4.269531 4.257812 -4.40625 3.875 -4.40625 C 3.46875 -4.40625 3.128906 -4.269531 2.859375 -4 Z M 2.859375 -4 "/></g></g><g style="fill:#000000;fill-opacity:1;"><g transform="translate(85.083837, 66.572794)"><path style="stroke:none" d="M 0.703125 0 L 0.703125 -10.046875 L 2.765625 -10.046875 L 2.765625 0 Z M 0.703125 0 "/></g></g><g style="fill:#000000;fill-opacity:1;"><g transform="translate(88.555836, 66.572794)"><path style="stroke:none" d="M 0.703125 0 L 0.703125 -10.046875 L 2.765625 -10.046875 L 2.765625 0 Z M 0.703125 0 "/></g></g><g style="fill:#000000;fill-opacity:1;"><g transform="translate(92.027836, 66.572794)"><path style="stroke:none" d=""/></g></g><g style="fill:#000000;fill-opacity:1;"><g transform="translate(95.219278, 66.572794)"><path style="stroke:none" d="M 0.703125 0 L 0.703125 -6 L 2.765625 -6 L 2.765625 -5.125 L 2.796875 -5.125 C 2.804688 -5.15625 2.828125 -5.191406 2.859375 -5.234375 C 2.898438 -5.285156 2.976562 -5.367188 3.09375 -5.484375 C 3.207031 -5.609375 3.332031 -5.71875 3.46875 -5.8125 C 3.601562 -5.90625 3.773438 -5.988281 3.984375 -6.0625 C 4.191406 -6.132812 4.40625 -6.171875 4.625 -6.171875 C 4.851562 -6.171875 5.078125 -6.140625 5.296875 -6.078125 C 5.515625 -6.015625 5.675781 -5.953125 5.78125 -5.890625 L 5.9375 -5.796875 L 5.078125 -4.046875 C 4.816406 -4.265625 4.457031 -4.375 4 -4.375 C 3.75 -4.375 3.53125 -4.316406 3.34375 -4.203125 C 3.164062 -4.097656 3.039062 -3.96875 2.96875 -3.8125 C 2.894531 -3.65625 2.84375 -3.519531 2.8125 -3.40625 C 2.78125 -3.300781 2.765625 -3.21875 2.765625 -3.15625 L 2.765625 0 Z M 0.703125 0 "/></g></g><g style="fill:#000000;fill-opacity:1;"><g transform="translate(100.97087, 66.572794)"><path style="stroke:none" d="M 6.765625 -2.71875 L 2.421875 -2.71875 C 2.421875 -2.289062 2.554688 -1.972656 2.828125 -1.765625 C 3.097656 -1.566406 3.394531 -1.46875 3.71875 -1.46875 C 4.050781 -1.46875 4.3125 -1.507812 4.5 -1.59375 C 4.695312 -1.6875 4.921875 -1.867188 5.171875 -2.140625 L 6.671875 -1.390625 C 6.046875 -0.347656 5.007812 0.171875 3.5625 0.171875 C 2.65625 0.171875 1.878906 -0.132812 1.234375 -0.75 C 0.585938 -1.375 0.265625 -2.117188 0.265625 -2.984375 C 0.265625 -3.859375 0.585938 -4.609375 1.234375 -5.234375 C 1.878906 -5.859375 2.65625 -6.171875 3.5625 -6.171875 C 4.507812 -6.171875 5.28125 -5.894531 5.875 -5.34375 C 6.476562 -4.789062 6.78125 -4.003906 6.78125 -2.984375 C 6.78125 -2.847656 6.773438 -2.757812 6.765625 -2.71875 Z M 2.484375 -3.859375 L 4.75 -3.859375 C 4.707031 -4.171875 4.585938 -4.410156 4.390625 -4.578125 C 4.191406 -4.742188 3.9375 -4.828125 3.625 -4.828125 C 3.28125 -4.828125 3.003906 -4.738281 2.796875 -4.5625 C 2.597656 -4.382812 2.492188 -4.148438 2.484375 -3.859375 Z M 2.484375 -3.859375 "/></g></g><g style="fill:#000000;fill-opacity:1;"><g transform="translate(107.996699, 66.572794)"><path style="stroke:none" d="M 0.703125 0 L 0.703125 -6 L 2.765625 -6 L 2.765625 -5.359375 L 2.796875 -5.359375 C 3.328125 -5.898438 3.898438 -6.171875 4.515625 -6.171875 C 4.804688 -6.171875 5.097656 -6.128906 5.390625 -6.046875 C 5.679688 -5.972656 5.960938 -5.851562 6.234375 -5.6875 C 6.503906 -5.53125 6.722656 -5.300781 6.890625 -5 C 7.054688 -4.695312 7.140625 -4.347656 7.140625 -3.953125 L 7.140625 0 L 5.078125 0 L 5.078125 -3.390625 C 5.078125 -3.703125 4.972656 -3.972656 4.765625 -4.203125 C 4.566406 -4.441406 4.3125 -4.5625 4 -4.5625 C 3.6875 -4.5625 3.398438 -4.4375 3.140625 -4.1875 C 2.890625 -3.945312 2.765625 -3.679688 2.765625 -3.390625 L 2.765625 0 Z M 0.703125 0 "/></g></g><g style="fill:#000000;fill-opacity:1;"><g transform="translate(115.72395, 66.572794)"><path style="stroke:none" d="M 6.765625 -2.71875 L 2.421875 -2.71875 C 2.421875 -2.289062 2.554688 -1.972656 2.828125 -1.765625 C 3.097656 -1.566406 3.394531 -1.46875 3.71875 -1.46875 C 4.050781 -1.46875 4.3125 -1.507812 4.5 -1.59375 C 4.695312 -1.6875 4.921875 -1.867188 5.171875 -2.140625 L 6.671875 -1.390625 C 6.046875 -0.347656 5.007812 0.171875 3.5625 0.171875 C 2.65625 0.171875 1.878906 -0.132812 1.234375 -0.75 C 0.585938 -1.375 0.265625 -2.117188 0.265625 -2.984375 C 0.265625 -3.859375 0.585938 -4.609375 1.234375 -5.234375 C 1.878906 -5.859375 2.65625 -6.171875 3.5625 -6.171875 C 4.507812 -6.171875 5.28125 -5.894531 5.875 -5.34375 C 6.476562 -4.789062 6.78125 -4.003906 6.78125 -2.984375 C 6.78125 -2.847656 6.773438 -2.757812 6.765625 -2.71875 Z M 2.484375 -3.859375 L 4.75 -3.859375 C 4.707031 -4.171875 4.585938 -4.410156 4.390625 -4.578125 C 4.191406 -4.742188 3.9375 -4.828125 3.625 -4.828125 C 3.28125 -4.828125 3.003906 -4.738281 2.796875 -4.5625 C 2.597656 -4.382812 2.492188 -4.148438 2.484375 -3.859375 Z M 2.484375 -3.859375 "/></g></g><g style="fill:#000000;fill-opacity:1;"><g transform="translate(122.714714, 66.572794)"><path style="stroke:none" d="M 4.390625 0 L 2.984375 0 L -0.234375 -6 L 2.15625 -6 L 3.609375 -2.765625 L 5.046875 -6 L 6.46875 -6 L 7.90625 -2.765625 L 9.375 -6 L 11.75 -6 L 8.546875 0 L 7.140625 0 L 5.765625 -3.09375 Z M 4.390625 0 "/></g></g><g style="fill:#000000;fill-opacity:1;"><g transform="translate(21.176502, 82.854404)"><path style="stroke:none" d="M 1.046875 -6 L 1.046875 -8.234375 L 3.125 -8.234375 L 3.125 -6 L 4.390625 -6 L 4.390625 -4.421875 L 3.125 -4.421875 L 3.125 -2.515625 C 3.125 -1.960938 3.28125 -1.6875 3.59375 -1.6875 C 3.664062 -1.6875 3.742188 -1.703125 3.828125 -1.734375 C 3.921875 -1.765625 3.988281 -1.796875 4.03125 -1.828125 L 4.109375 -1.875 L 4.609375 -0.203125 C 4.171875 0.046875 3.664062 0.171875 3.09375 0.171875 C 2.707031 0.171875 2.375 0.101562 2.09375 -0.03125 C 1.8125 -0.164062 1.597656 -0.347656 1.453125 -0.578125 C 1.304688 -0.804688 1.203125 -1.046875 1.140625 -1.296875 C 1.078125 -1.554688 1.046875 -1.828125 1.046875 -2.109375 L 1.046875 -4.421875 L 0.1875 -4.421875 L 0.1875 -6 Z M 1.046875 -6 "/></g></g><g style="fill:#000000;fill-opacity:1;"><g transform="translate(25.794154, 82.854404)"><path style="stroke:none" d="M 0.703125 0 L 0.703125 -10.046875 L 2.765625 -10.046875 L 2.765625 -5.359375 L 2.796875 -5.359375 C 3.328125 -5.898438 3.898438 -6.171875 4.515625 -6.171875 C 4.804688 -6.171875 5.097656 -6.128906 5.390625 -6.046875 C 5.679688 -5.972656 5.960938 -5.851562 6.234375 -5.6875 C 6.503906 -5.53125 6.722656 -5.300781 6.890625 -5 C 7.054688 -4.695312 7.140625 -4.347656 7.140625 -3.953125 L 7.140625 0 L 5.078125 0 L 5.078125 -3.390625 C 5.078125 -3.703125 4.972656 -3.972656 4.765625 -4.203125 C 4.566406 -4.441406 4.3125 -4.5625 4 -4.5625 C 3.6875 -4.5625 3.398438 -4.4375 3.140625 -4.1875 C 2.890625 -3.945312 2.765625 -3.679688 2.765625 -3.390625 L 2.765625 0 Z M 0.703125 0 "/></g></g><g style="fill:#000000;fill-opacity:1;"><g transform="translate(33.521405, 82.854404)"><path style="stroke:none" d="M 6.765625 -2.71875 L 2.421875 -2.71875 C 2.421875 -2.289062 2.554688 -1.972656 2.828125 -1.765625 C 3.097656 -1.566406 3.394531 -1.46875 3.71875 -1.46875 C 4.050781 -1.46875 4.3125 -1.507812 4.5 -1.59375 C 4.695312 -1.6875 4.921875 -1.867188 5.171875 -2.140625 L 6.671875 -1.390625 C 6.046875 -0.347656 5.007812 0.171875 3.5625 0.171875 C 2.65625 0.171875 1.878906 -0.132812 1.234375 -0.75 C 0.585938 -1.375 0.265625 -2.117188 0.265625 -2.984375 C 0.265625 -3.859375 0.585938 -4.609375 1.234375 -5.234375 C 1.878906 -5.859375 2.65625 -6.171875 3.5625 -6.171875 C 4.507812 -6.171875 5.28125 -5.894531 5.875 -5.34375 C 6.476562 -4.789062 6.78125 -4.003906 6.78125 -2.984375 C 6.78125 -2.847656 6.773438 -2.757812 6.765625 -2.71875 Z M 2.484375 -3.859375 L 4.75 -3.859375 C 4.707031 -4.171875 4.585938 -4.410156 4.390625 -4.578125 C 4.191406 -4.742188 3.9375 -4.828125 3.625 -4.828125 C 3.28125 -4.828125 3.003906 -4.738281 2.796875 -4.5625 C 2.597656 -4.382812 2.492188 -4.148438 2.484375 -3.859375 Z M 2.484375 -3.859375 "/></g></g><g style="fill:#000000;fill-opacity:1;"><g transform="translate(40.547234, 82.854404)"><path style="stroke:none" d="M 0.890625 -9.328125 C 1.140625 -9.578125 1.429688 -9.703125 1.765625 -9.703125 C 2.097656 -9.703125 2.382812 -9.578125 2.625 -9.328125 C 2.863281 -9.085938 2.984375 -8.800781 2.984375 -8.46875 C 2.984375 -8.132812 2.863281 -7.847656 2.625 -7.609375 C 2.382812 -7.367188 2.097656 -7.25 1.765625 -7.25 C 1.429688 -7.25 1.140625 -7.367188 0.890625 -7.609375 C 0.648438 -7.847656 0.53125 -8.132812 0.53125 -8.46875 C 0.53125 -8.800781 0.648438 -9.085938 0.890625 -9.328125 Z M 0.703125 -6 L 0.703125 0 L 2.765625 0 L 2.765625 -6 Z M 0.703125 -6 "/></g></g><g style="fill:#000000;fill-opacity:1;"><g transform="translate(44.077687, 82.854404)"><path style="stroke:none" d="M 0.703125 0 L 0.703125 -6 L 2.765625 -6 L 2.765625 -5.125 L 2.796875 -5.125 C 2.804688 -5.15625 2.828125 -5.191406 2.859375 -5.234375 C 2.898438 -5.285156 2.976562 -5.367188 3.09375 -5.484375 C 3.207031 -5.609375 3.332031 -5.71875 3.46875 -5.8125 C 3.601562 -5.90625 3.773438 -5.988281 3.984375 -6.0625 C 4.191406 -6.132812 4.40625 -6.171875 4.625 -6.171875 C 4.851562 -6.171875 5.078125 -6.140625 5.296875 -6.078125 C 5.515625 -6.015625 5.675781 -5.953125 5.78125 -5.890625 L 5.9375 -5.796875 L 5.078125 -4.046875 C 4.816406 -4.265625 4.457031 -4.375 4 -4.375 C 3.75 -4.375 3.53125 -4.316406 3.34375 -4.203125 C 3.164062 -4.097656 3.039062 -3.96875 2.96875 -3.8125 C 2.894531 -3.65625 2.84375 -3.519531 2.8125 -3.40625 C 2.78125 -3.300781 2.765625 -3.21875 2.765625 -3.15625 L 2.765625 0 Z M 0.703125 0 "/></g></g><g style="fill:#000000;fill-opacity:1;"><g transform="translate(49.899433, 82.854404)"><path style="stroke:none" d=""/></g></g><g style="fill:#000000;fill-opacity:1;"><g transform="translate(53.090875, 82.854404)"><path style="stroke:none" d="M 3.3125 -6.171875 C 3.65625 -6.171875 3.992188 -6.128906 4.328125 -6.046875 C 4.660156 -5.972656 4.910156 -5.898438 5.078125 -5.828125 L 5.3125 -5.703125 L 4.640625 -4.34375 C 4.171875 -4.59375 3.726562 -4.71875 3.3125 -4.71875 C 3.070312 -4.71875 2.90625 -4.691406 2.8125 -4.640625 C 2.71875 -4.585938 2.671875 -4.492188 2.671875 -4.359375 C 2.671875 -4.328125 2.671875 -4.296875 2.671875 -4.265625 C 2.679688 -4.234375 2.695312 -4.203125 2.71875 -4.171875 C 2.75 -4.148438 2.769531 -4.128906 2.78125 -4.109375 C 2.800781 -4.085938 2.832031 -4.066406 2.875 -4.046875 C 2.925781 -4.023438 2.960938 -4.003906 2.984375 -3.984375 C 3.015625 -3.972656 3.0625 -3.957031 3.125 -3.9375 C 3.1875 -3.914062 3.234375 -3.898438 3.265625 -3.890625 C 3.296875 -3.878906 3.347656 -3.859375 3.421875 -3.828125 C 3.503906 -3.804688 3.5625 -3.789062 3.59375 -3.78125 C 3.84375 -3.71875 4.054688 -3.640625 4.234375 -3.546875 C 4.410156 -3.460938 4.597656 -3.347656 4.796875 -3.203125 C 4.992188 -3.054688 5.144531 -2.867188 5.25 -2.640625 C 5.363281 -2.410156 5.421875 -2.15625 5.421875 -1.875 C 5.421875 -0.507812 4.472656 0.171875 2.578125 0.171875 C 2.148438 0.171875 1.742188 0.109375 1.359375 -0.015625 C 0.972656 -0.148438 0.695312 -0.285156 0.53125 -0.421875 L 0.265625 -0.625 L 1.109375 -2.046875 C 1.171875 -1.992188 1.25 -1.925781 1.34375 -1.84375 C 1.445312 -1.769531 1.628906 -1.671875 1.890625 -1.546875 C 2.160156 -1.421875 2.394531 -1.359375 2.59375 -1.359375 C 3.019531 -1.359375 3.234375 -1.5 3.234375 -1.78125 C 3.234375 -1.914062 3.175781 -2.019531 3.0625 -2.09375 C 2.957031 -2.164062 2.773438 -2.25 2.515625 -2.34375 C 2.253906 -2.4375 2.050781 -2.523438 1.90625 -2.609375 C 1.53125 -2.804688 1.234375 -3.023438 1.015625 -3.265625 C 0.796875 -3.515625 0.6875 -3.84375 0.6875 -4.25 C 0.6875 -4.851562 0.921875 -5.320312 1.390625 -5.65625 C 1.867188 -6 2.507812 -6.171875 3.3125 -6.171875 Z M 3.3125 -6.171875 "/></g></g><g style="fill:#000000;fill-opacity:1;"><g transform="translate(58.737248, 82.854404)"><path style="stroke:none" d="M 1.046875 -6 L 1.046875 -8.234375 L 3.125 -8.234375 L 3.125 -6 L 4.390625 -6 L 4.390625 -4.421875 L 3.125 -4.421875 L 3.125 -2.515625 C 3.125 -1.960938 3.28125 -1.6875 3.59375 -1.6875 C 3.664062 -1.6875 3.742188 -1.703125 3.828125 -1.734375 C 3.921875 -1.765625 3.988281 -1.796875 4.03125 -1.828125 L 4.109375 -1.875 L 4.609375 -0.203125 C 4.171875 0.046875 3.664062 0.171875 3.09375 0.171875 C 2.707031 0.171875 2.375 0.101562 2.09375 -0.03125 C 1.8125 -0.164062 1.597656 -0.347656 1.453125 -0.578125 C 1.304688 -0.804688 1.203125 -1.046875 1.140625 -1.296875 C 1.078125 -1.554688 1.046875 -1.828125 1.046875 -2.109375 L 1.046875 -4.421875 L 0.1875 -4.421875 L 0.1875 -6 Z M 1.046875 -6 "/></g></g><g style="fill:#000000;fill-opacity:1;"><g transform="translate(63.3549, 82.854404)"><path style="stroke:none" d="M 0.703125 0 L 0.703125 -6 L 2.765625 -6 L 2.765625 -5.125 L 2.796875 -5.125 C 2.804688 -5.15625 2.828125 -5.191406 2.859375 -5.234375 C 2.898438 -5.285156 2.976562 -5.367188 3.09375 -5.484375 C 3.207031 -5.609375 3.332031 -5.71875 3.46875 -5.8125 C 3.601562 -5.90625 3.773438 -5.988281 3.984375 -6.0625 C 4.191406 -6.132812 4.40625 -6.171875 4.625 -6.171875 C 4.851562 -6.171875 5.078125 -6.140625 5.296875 -6.078125 C 5.515625 -6.015625 5.675781 -5.953125 5.78125 -5.890625 L 5.9375 -5.796875 L 5.078125 -4.046875 C 4.816406 -4.265625 4.457031 -4.375 4 -4.375 C 3.75 -4.375 3.53125 -4.316406 3.34375 -4.203125 C 3.164062 -4.097656 3.039062 -3.96875 2.96875 -3.8125 C 2.894531 -3.65625 2.84375 -3.519531 2.8125 -3.40625 C 2.78125 -3.300781 2.765625 -3.21875 2.765625 -3.15625 L 2.765625 0 Z M 0.703125 0 "/></g></g><g style="fill:#000000;fill-opacity:1;"><g transform="translate(69.106492, 82.854404)"><path style="stroke:none" d="M 6.765625 -2.71875 L 2.421875 -2.71875 C 2.421875 -2.289062 2.554688 -1.972656 2.828125 -1.765625 C 3.097656 -1.566406 3.394531 -1.46875 3.71875 -1.46875 C 4.050781 -1.46875 4.3125 -1.507812 4.5 -1.59375 C 4.695312 -1.6875 4.921875 -1.867188 5.171875 -2.140625 L 6.671875 -1.390625 C 6.046875 -0.347656 5.007812 0.171875 3.5625 0.171875 C 2.65625 0.171875 1.878906 -0.132812 1.234375 -0.75 C 0.585938 -1.375 0.265625 -2.117188 0.265625 -2.984375 C 0.265625 -3.859375 0.585938 -4.609375 1.234375 -5.234375 C 1.878906 -5.859375 2.65625 -6.171875 3.5625 -6.171875 C 4.507812 -6.171875 5.28125 -5.894531 5.875 -5.34375 C 6.476562 -4.789062 6.78125 -4.003906 6.78125 -2.984375 C 6.78125 -2.847656 6.773438 -2.757812 6.765625 -2.71875 Z M 2.484375 -3.859375 L 4.75 -3.859375 C 4.707031 -4.171875 4.585938 -4.410156 4.390625 -4.578125 C 4.191406 -4.742188 3.9375 -4.828125 3.625 -4.828125 C 3.28125 -4.828125 3.003906 -4.738281 2.796875 -4.5625 C 2.597656 -4.382812 2.492188 -4.148438 2.484375 -3.859375 Z M 2.484375 -3.859375 "/></g></g><g style="fill:#000000;fill-opacity:1;"><g transform="translate(76.132321, 82.854404)"><path style="stroke:none" d="M 0.703125 0 L 0.703125 -6 L 2.765625 -6 L 2.765625 -5.359375 L 2.796875 -5.359375 C 3.328125 -5.898438 3.898438 -6.171875 4.515625 -6.171875 C 4.804688 -6.171875 5.097656 -6.128906 5.390625 -6.046875 C 5.679688 -5.972656 5.960938 -5.851562 6.234375 -5.6875 C 6.503906 -5.53125 6.722656 -5.300781 6.890625 -5 C 7.054688 -4.695312 7.140625 -4.347656 7.140625 -3.953125 L 7.140625 0 L 5.078125 0 L 5.078125 -3.390625 C 5.078125 -3.703125 4.972656 -3.972656 4.765625 -4.203125 C 4.566406 -4.441406 4.3125 -4.5625 4 -4.5625 C 3.6875 -4.5625 3.398438 -4.4375 3.140625 -4.1875 C 2.890625 -3.945312 2.765625 -3.679688 2.765625 -3.390625 L 2.765625 0 Z M 0.703125 0 "/></g></g><g style="fill:#000000;fill-opacity:1;"><g transform="translate(83.859572, 82.854404)"><path style="stroke:none" d="M 0.4375 1.46875 L 2.125 0.640625 C 2.4375 1.160156 2.976562 1.421875 3.75 1.421875 C 4.113281 1.421875 4.445312 1.300781 4.75 1.0625 C 5.0625 0.832031 5.21875 0.484375 5.21875 0.015625 L 5.21875 -0.4375 C 4.84375 -0.03125 4.1875 0.171875 3.25 0.171875 C 2.382812 0.171875 1.671875 -0.128906 1.109375 -0.734375 C 0.546875 -1.347656 0.265625 -2.097656 0.265625 -2.984375 C 0.265625 -3.878906 0.546875 -4.632812 1.109375 -5.25 C 1.671875 -5.863281 2.382812 -6.171875 3.25 -6.171875 C 4.019531 -6.171875 4.660156 -5.929688 5.171875 -5.453125 L 5.21875 -5.453125 L 5.21875 -6 L 7.28125 -6 L 7.28125 0.15625 C 7.28125 1.132812 6.957031 1.890625 6.3125 2.421875 C 5.664062 2.953125 4.8125 3.21875 3.75 3.21875 C 2.039062 3.21875 0.9375 2.632812 0.4375 1.46875 Z M 2.859375 -4 C 2.597656 -3.738281 2.46875 -3.398438 2.46875 -2.984375 C 2.46875 -2.578125 2.59375 -2.242188 2.84375 -1.984375 C 3.101562 -1.722656 3.445312 -1.59375 3.875 -1.59375 C 4.269531 -1.59375 4.597656 -1.722656 4.859375 -1.984375 C 5.128906 -2.253906 5.265625 -2.585938 5.265625 -2.984375 C 5.265625 -3.398438 5.128906 -3.738281 4.859375 -4 C 4.585938 -4.269531 4.257812 -4.40625 3.875 -4.40625 C 3.46875 -4.40625 3.128906 -4.269531 2.859375 -4 Z M 2.859375 -4 "/></g></g><g style="fill:#000000;fill-opacity:1;"><g transform="translate(91.844015, 82.854404)"><path style="stroke:none" d="M 1.046875 -6 L 1.046875 -8.234375 L 3.125 -8.234375 L 3.125 -6 L 4.390625 -6 L 4.390625 -4.421875 L 3.125 -4.421875 L 3.125 -2.515625 C 3.125 -1.960938 3.28125 -1.6875 3.59375 -1.6875 C 3.664062 -1.6875 3.742188 -1.703125 3.828125 -1.734375 C 3.921875 -1.765625 3.988281 -1.796875 4.03125 -1.828125 L 4.109375 -1.875 L 4.609375 -0.203125 C 4.171875 0.046875 3.664062 0.171875 3.09375 0.171875 C 2.707031 0.171875 2.375 0.101562 2.09375 -0.03125 C 1.8125 -0.164062 1.597656 -0.347656 1.453125 -0.578125 C 1.304688 -0.804688 1.203125 -1.046875 1.140625 -1.296875 C 1.078125 -1.554688 1.046875 -1.828125 1.046875 -2.109375 L 1.046875 -4.421875 L 0.1875 -4.421875 L 0.1875 -6 Z M 1.046875 -6 "/></g></g><g style="fill:#000000;fill-opacity:1;"><g transform="translate(96.461667, 82.854404)"><path style="stroke:none" d="M 0.703125 0 L 0.703125 -10.046875 L 2.765625 -10.046875 L 2.765625 -5.359375 L 2.796875 -5.359375 C 3.328125 -5.898438 3.898438 -6.171875 4.515625 -6.171875 C 4.804688 -6.171875 5.097656 -6.128906 5.390625 -6.046875 C 5.679688 -5.972656 5.960938 -5.851562 6.234375 -5.6875 C 6.503906 -5.53125 6.722656 -5.300781 6.890625 -5 C 7.054688 -4.695312 7.140625 -4.347656 7.140625 -3.953125 L 7.140625 0 L 5.078125 0 L 5.078125 -3.390625 C 5.078125 -3.703125 4.972656 -3.972656 4.765625 -4.203125 C 4.566406 -4.441406 4.3125 -4.5625 4 -4.5625 C 3.6875 -4.5625 3.398438 -4.4375 3.140625 -4.1875 C 2.890625 -3.945312 2.765625 -3.679688 2.765625 -3.390625 L 2.765625 0 Z M 0.703125 0 "/></g></g><g style="fill:#000000;fill-opacity:1;"><g transform="translate(104.188918, 82.854404)"><path style="stroke:none" d="M 2.03125 -2.5 C 2.40625 -2.5 2.722656 -2.367188 2.984375 -2.109375 C 3.242188 -1.847656 3.375 -1.53125 3.375 -1.15625 C 3.375 -0.789062 3.242188 -0.476562 2.984375 -0.21875 C 2.722656 0.0390625 2.40625 0.171875 2.03125 0.171875 C 1.664062 0.171875 1.351562 0.0390625 1.09375 -0.21875 C 0.832031 -0.476562 0.703125 -0.789062 0.703125 -1.15625 C 0.703125 -1.53125 0.832031 -1.847656 1.09375 -2.109375 C 1.351562 -2.367188 1.664062 -2.5 2.03125 -2.5 Z M 2.03125 -2.5 "/></g></g><g style="fill:#000000;fill-opacity:1;"><g transform="translate(108.268821, 82.854404)"><path style="stroke:none" d="M 2.03125 -2.5 C 2.40625 -2.5 2.722656 -2.367188 2.984375 -2.109375 C 3.242188 -1.847656 3.375 -1.53125 3.375 -1.15625 C 3.375 -0.789062 3.242188 -0.476562 2.984375 -0.21875 C 2.722656 0.0390625 2.40625 0.171875 2.03125 0.171875 C 1.664062 0.171875 1.351562 0.0390625 1.09375 -0.21875 C 0.832031 -0.476562 0.703125 -0.789062 0.703125 -1.15625 C 0.703125 -1.53125 0.832031 -1.847656 1.09375 -2.109375 C 1.351562 -2.367188 1.664062 -2.5 2.03125 -2.5 Z M 2.03125 -2.5 "/></g></g><g style="fill:#000000;fill-opacity:1;"><g transform="translate(112.348723, 82.854404)"><path style="stroke:none" d="M 2.03125 -2.5 C 2.40625 -2.5 2.722656 -2.367188 2.984375 -2.109375 C 3.242188 -1.847656 3.375 -1.53125 3.375 -1.15625 C 3.375 -0.789062 3.242188 -0.476562 2.984375 -0.21875 C 2.722656 0.0390625 2.40625 0.171875 2.03125 0.171875 C 1.664062 0.171875 1.351562 0.0390625 1.09375 -0.21875 C 0.832031 -0.476562 0.703125 -0.789062 0.703125 -1.15625 C 0.703125 -1.53125 0.832031 -1.847656 1.09375 -2.109375 C 1.351562 -2.367188 1.664062 -2.5 2.03125 -2.5 Z M 2.03125 -2.5 "/></g></g><g style="fill:#000000;fill-opacity:1;"><g transform="translate(116.428626, 82.854404)"><path style="stroke:none" d="M 1.0625 -9.453125 C 1.300781 -9.691406 1.585938 -9.8125 1.921875 -9.8125 C 2.253906 -9.8125 2.535156 -9.691406 2.765625 -9.453125 C 3.003906 -9.222656 3.125 -8.9375 3.125 -8.59375 C 3.125 -7.539062 2.535156 -6.53125 1.359375 -5.5625 L 0.8125 -6 C 0.851562 -6.039062 0.910156 -6.101562 0.984375 -6.1875 C 1.054688 -6.269531 1.164062 -6.441406 1.3125 -6.703125 C 1.46875 -6.960938 1.570312 -7.222656 1.625 -7.484375 C 1.351562 -7.546875 1.128906 -7.675781 0.953125 -7.875 C 0.785156 -8.082031 0.703125 -8.320312 0.703125 -8.59375 C 0.703125 -8.925781 0.820312 -9.210938 1.0625 -9.453125 Z M 4.015625 -9.453125 C 4.253906 -9.691406 4.539062 -9.8125 4.875 -9.8125 C 5.207031 -9.8125 5.492188 -9.691406 5.734375 -9.453125 C 5.972656 -9.210938 6.09375 -8.925781 6.09375 -8.59375 C 6.09375 -7.5625 5.503906 -6.550781 4.328125 -5.5625 L 3.78125 -6 C 3.820312 -6.039062 3.878906 -6.101562 3.953125 -6.1875 C 4.023438 -6.269531 4.132812 -6.441406 4.28125 -6.703125 C 4.4375 -6.960938 4.535156 -7.222656 4.578125 -7.484375 C 4.316406 -7.546875 4.097656 -7.675781 3.921875 -7.875 C 3.753906 -8.082031 3.671875 -8.320312 3.671875 -8.59375 C 3.671875 -8.9375 3.785156 -9.222656 4.015625 -9.453125 Z M 4.015625 -9.453125 "/></g></g><g style="fill:#000000;fill-opacity:1;"><g transform="translate(31.437309, 99.136015)"><path style="stroke:none" d="M 0.703125 -4.28125 L 4.46875 -4.28125 L 4.46875 -2.484375 L 0.703125 -2.484375 Z M 0.703125 -4.28125 "/></g></g><g style="fill:#000000;fill-opacity:1;"><g transform="translate(36.604398, 99.136015)"><path style="stroke:none" d=""/></g></g><g style="fill:#000000;fill-opacity:1;"><g transform="translate(39.79584, 99.136015)"><path style="stroke:none" d="M 2.90625 -9.640625 L 2.90625 0 L 0.703125 0 L 0.703125 -9.640625 Z M 2.90625 -9.640625 "/></g></g><g style="fill:#000000;fill-opacity:1;"><g transform="translate(43.396435, 99.136015)"><path style="stroke:none" d="M 3.3125 -6.171875 C 3.65625 -6.171875 3.992188 -6.128906 4.328125 -6.046875 C 4.660156 -5.972656 4.910156 -5.898438 5.078125 -5.828125 L 5.3125 -5.703125 L 4.640625 -4.34375 C 4.171875 -4.59375 3.726562 -4.71875 3.3125 -4.71875 C 3.070312 -4.71875 2.90625 -4.691406 2.8125 -4.640625 C 2.71875 -4.585938 2.671875 -4.492188 2.671875 -4.359375 C 2.671875 -4.328125 2.671875 -4.296875 2.671875 -4.265625 C 2.679688 -4.234375 2.695312 -4.203125 2.71875 -4.171875 C 2.75 -4.148438 2.769531 -4.128906 2.78125 -4.109375 C 2.800781 -4.085938 2.832031 -4.066406 2.875 -4.046875 C 2.925781 -4.023438 2.960938 -4.003906 2.984375 -3.984375 C 3.015625 -3.972656 3.0625 -3.957031 3.125 -3.9375 C 3.1875 -3.914062 3.234375 -3.898438 3.265625 -3.890625 C 3.296875 -3.878906 3.347656 -3.859375 3.421875 -3.828125 C 3.503906 -3.804688 3.5625 -3.789062 3.59375 -3.78125 C 3.84375 -3.71875 4.054688 -3.640625 4.234375 -3.546875 C 4.410156 -3.460938 4.597656 -3.347656 4.796875 -3.203125 C 4.992188 -3.054688 5.144531 -2.867188 5.25 -2.640625 C 5.363281 -2.410156 5.421875 -2.15625 5.421875 -1.875 C 5.421875 -0.507812 4.472656 0.171875 2.578125 0.171875 C 2.148438 0.171875 1.742188 0.109375 1.359375 -0.015625 C 0.972656 -0.148438 0.695312 -0.285156 0.53125 -0.421875 L 0.265625 -0.625 L 1.109375 -2.046875 C 1.171875 -1.992188 1.25 -1.925781 1.34375 -1.84375 C 1.445312 -1.769531 1.628906 -1.671875 1.890625 -1.546875 C 2.160156 -1.421875 2.394531 -1.359375 2.59375 -1.359375 C 3.019531 -1.359375 3.234375 -1.5 3.234375 -1.78125 C 3.234375 -1.914062 3.175781 -2.019531 3.0625 -2.09375 C 2.957031 -2.164062 2.773438 -2.25 2.515625 -2.34375 C 2.253906 -2.4375 2.050781 -2.523438 1.90625 -2.609375 C 1.53125 -2.804688 1.234375 -3.023438 1.015625 -3.265625 C 0.796875 -3.515625 0.6875 -3.84375 0.6875 -4.25 C 0.6875 -4.851562 0.921875 -5.320312 1.390625 -5.65625 C 1.867188 -6 2.507812 -6.171875 3.3125 -6.171875 Z M 3.3125 -6.171875 "/></g></g><g style="fill:#000000;fill-opacity:1;"><g transform="translate(49.148039, 99.136015)"><path style="stroke:none" d="M 1.109375 -0.734375 C 0.546875 -1.347656 0.265625 -2.097656 0.265625 -2.984375 C 0.265625 -3.878906 0.546875 -4.632812 1.109375 -5.25 C 1.671875 -5.863281 2.382812 -6.171875 3.25 -6.171875 C 4.039062 -6.171875 4.695312 -5.921875 5.21875 -5.421875 L 5.21875 -6 L 7.28125 -6 L 7.28125 0 L 5.234375 0 L 5.234375 -0.671875 L 5.21875 -0.671875 C 4.695312 -0.109375 4.039062 0.171875 3.25 0.171875 C 2.382812 0.171875 1.671875 -0.128906 1.109375 -0.734375 Z M 2.859375 -4 C 2.597656 -3.738281 2.46875 -3.398438 2.46875 -2.984375 C 2.46875 -2.578125 2.59375 -2.242188 2.84375 -1.984375 C 3.101562 -1.722656 3.445312 -1.59375 3.875 -1.59375 C 4.269531 -1.59375 4.597656 -1.722656 4.859375 -1.984375 C 5.128906 -2.253906 5.265625 -2.585938 5.265625 -2.984375 C 5.265625 -3.398438 5.128906 -3.738281 4.859375 -4 C 4.585938 -4.269531 4.257812 -4.40625 3.875 -4.40625 C 3.46875 -4.40625 3.128906 -4.269531 2.859375 -4 Z M 2.859375 -4 "/></g></g><g style="fill:#000000;fill-opacity:1;"><g transform="translate(57.132483, 99.136015)"><path style="stroke:none" d="M 0.890625 -9.328125 C 1.140625 -9.578125 1.429688 -9.703125 1.765625 -9.703125 C 2.097656 -9.703125 2.382812 -9.578125 2.625 -9.328125 C 2.863281 -9.085938 2.984375 -8.800781 2.984375 -8.46875 C 2.984375 -8.132812 2.863281 -7.847656 2.625 -7.609375 C 2.382812 -7.367188 2.097656 -7.25 1.765625 -7.25 C 1.429688 -7.25 1.140625 -7.367188 0.890625 -7.609375 C 0.648438 -7.847656 0.53125 -8.132812 0.53125 -8.46875 C 0.53125 -8.800781 0.648438 -9.085938 0.890625 -9.328125 Z M 0.703125 -6 L 0.703125 0 L 2.765625 0 L 2.765625 -6 Z M 0.703125 -6 "/></g></g><g style="fill:#000000;fill-opacity:1;"><g transform="translate(60.662936, 99.136015)"><path style="stroke:none" d="M 1.109375 -0.734375 C 0.546875 -1.347656 0.265625 -2.097656 0.265625 -2.984375 C 0.265625 -3.878906 0.546875 -4.632812 1.109375 -5.25 C 1.671875 -5.863281 2.382812 -6.171875 3.25 -6.171875 C 4.039062 -6.171875 4.695312 -5.921875 5.21875 -5.421875 L 5.21875 -6 L 7.28125 -6 L 7.28125 0 L 5.234375 0 L 5.234375 -0.671875 L 5.21875 -0.671875 C 4.695312 -0.109375 4.039062 0.171875 3.25 0.171875 C 2.382812 0.171875 1.671875 -0.128906 1.109375 -0.734375 Z M 2.859375 -4 C 2.597656 -3.738281 2.46875 -3.398438 2.46875 -2.984375 C 2.46875 -2.578125 2.59375 -2.242188 2.84375 -1.984375 C 3.101562 -1.722656 3.445312 -1.59375 3.875 -1.59375 C 4.269531 -1.59375 4.597656 -1.722656 4.859375 -1.984375 C 5.128906 -2.253906 5.265625 -2.585938 5.265625 -2.984375 C 5.265625 -3.398438 5.128906 -3.738281 4.859375 -4 C 4.585938 -4.269531 4.257812 -4.40625 3.875 -4.40625 C 3.46875 -4.40625 3.128906 -4.269531 2.859375 -4 Z M 2.859375 -4 "/></g></g><g style="fill:#000000;fill-opacity:1;"><g transform="translate(68.647379, 99.136015)"><path style="stroke:none" d="M 0.703125 0 L 0.703125 -10.046875 L 2.765625 -10.046875 L 2.765625 -5.359375 L 2.796875 -5.359375 C 3.328125 -5.898438 3.898438 -6.171875 4.515625 -6.171875 C 4.804688 -6.171875 5.097656 -6.128906 5.390625 -6.046875 C 5.679688 -5.972656 5.960938 -5.851562 6.234375 -5.6875 C 6.503906 -5.53125 6.722656 -5.300781 6.890625 -5 C 7.054688 -4.695312 7.140625 -4.347656 7.140625 -3.953125 L 7.140625 0 L 5.078125 0 L 5.078125 -3.390625 C 5.078125 -3.703125 4.972656 -3.972656 4.765625 -4.203125 C 4.566406 -4.441406 4.3125 -4.5625 4 -4.5625 C 3.6875 -4.5625 3.398438 -4.4375 3.140625 -4.1875 C 2.890625 -3.945312 2.765625 -3.679688 2.765625 -3.390625 L 2.765625 0 Z M 0.703125 0 "/></g></g><g style="fill:#000000;fill-opacity:1;"><g transform="translate(76.37463, 99.136015)"><path style="stroke:none" d=""/></g></g><g style="fill:#000000;fill-opacity:1;"><g transform="translate(79.566072, 99.136015)"><path style="stroke:none" d="M 6.515625 -3.96875 L 7.625 -3.96875 L 7.625 -2.03125 L 6.515625 -2.03125 L 6.515625 0 L 4.453125 0 L 4.453125 -2.03125 L -0.296875 -2.03125 L -0.296875 -2.6875 L 4.34375 -9.640625 L 6.515625 -9.640625 Z M 4.453125 -6.703125 L 4.421875 -6.703125 L 2.71875 -3.96875 L 4.453125 -3.96875 Z M 4.453125 -6.703125 "/></g></g><g style="fill:#000000;fill-opacity:1;"><g transform="translate(87.351777, 99.136015)"><path style="stroke:none" d="M 0.328125 -4.8125 C 0.328125 -6.40625 0.703125 -7.632812 1.453125 -8.5 C 2.210938 -9.375 3.144531 -9.8125 4.25 -9.8125 C 5.351562 -9.8125 6.28125 -9.375 7.03125 -8.5 C 7.789062 -7.632812 8.171875 -6.40625 8.171875 -4.8125 C 8.171875 -3.945312 8.0625 -3.1875 7.84375 -2.53125 C 7.632812 -1.875 7.34375 -1.351562 6.96875 -0.96875 C 6.601562 -0.582031 6.191406 -0.296875 5.734375 -0.109375 C 5.285156 0.078125 4.789062 0.171875 4.25 0.171875 C 3.71875 0.171875 3.222656 0.078125 2.765625 -0.109375 C 2.304688 -0.296875 1.890625 -0.582031 1.515625 -0.96875 C 1.140625 -1.351562 0.847656 -1.875 0.640625 -2.53125 C 0.429688 -3.1875 0.328125 -3.945312 0.328125 -4.8125 Z M 2.546875 -4.8125 C 2.546875 -3.789062 2.691406 -3.023438 2.984375 -2.515625 C 3.285156 -2.003906 3.707031 -1.75 4.25 -1.75 C 4.789062 -1.75 5.207031 -2.003906 5.5 -2.515625 C 5.800781 -3.023438 5.953125 -3.789062 5.953125 -4.8125 C 5.953125 -5.789062 5.800781 -6.546875 5.5 -7.078125 C 5.195312 -7.617188 4.78125 -7.890625 4.25 -7.890625 C 3.71875 -7.890625 3.300781 -7.617188 3 -7.078125 C 2.695312 -6.535156 2.546875 -5.78125 2.546875 -4.8125 Z M 2.546875 -4.8125 "/></g></g><g style="fill:#000000;fill-opacity:1;"><g transform="translate(95.850593, 99.136015)"><path style="stroke:none" d="M 2.03125 -6.46875 C 2.40625 -6.46875 2.722656 -6.335938 2.984375 -6.078125 C 3.242188 -5.816406 3.375 -5.5 3.375 -5.125 C 3.375 -4.757812 3.242188 -4.445312 2.984375 -4.1875 C 2.722656 -3.925781 2.40625 -3.796875 2.03125 -3.796875 C 1.664062 -3.796875 1.351562 -3.925781 1.09375 -4.1875 C 0.832031 -4.445312 0.703125 -4.757812 0.703125 -5.125 C 0.703125 -5.5 0.832031 -5.816406 1.09375 -6.078125 C 1.351562 -6.335938 1.664062 -6.46875 2.03125 -6.46875 Z M 2.03125 -2.5 C 2.40625 -2.5 2.722656 -2.367188 2.984375 -2.109375 C 3.242188 -1.847656 3.375 -1.53125 3.375 -1.15625 C 3.375 -0.789062 3.242188 -0.476562 2.984375 -0.21875 C 2.722656 0.0390625 2.40625 0.171875 2.03125 0.171875 C 1.664062 0.171875 1.351562 0.0390625 1.09375 -0.21875 C 0.832031 -0.476562 0.703125 -0.789062 0.703125 -1.15625 C 0.703125 -1.53125 0.832031 -1.847656 1.09375 -2.109375 C 1.351562 -2.367188 1.664062 -2.5 2.03125 -2.5 Z M 2.03125 -2.5 "/></g></g><g style="fill:#000000;fill-opacity:1;"><g transform="translate(99.930496, 99.136015)"><path style="stroke:none" d="M 2.390625 -6.859375 L 0.671875 -7.703125 C 0.679688 -7.753906 0.703125 -7.828125 0.734375 -7.921875 C 0.765625 -8.023438 0.859375 -8.195312 1.015625 -8.4375 C 1.171875 -8.675781 1.351562 -8.890625 1.5625 -9.078125 C 1.769531 -9.265625 2.078125 -9.429688 2.484375 -9.578125 C 2.890625 -9.734375 3.347656 -9.8125 3.859375 -9.8125 C 4.773438 -9.8125 5.53125 -9.546875 6.125 -9.015625 C 6.726562 -8.492188 7.03125 -7.828125 7.03125 -7.015625 C 7.03125 -6.242188 6.742188 -5.640625 6.171875 -5.203125 C 6.984375 -4.703125 7.390625 -3.960938 7.390625 -2.984375 C 7.390625 -2.066406 7.050781 -1.3125 6.375 -0.71875 C 5.707031 -0.125 4.859375 0.171875 3.828125 0.171875 C 3.265625 0.171875 2.757812 0.09375 2.3125 -0.0625 C 1.863281 -0.226562 1.507812 -0.425781 1.25 -0.65625 C 1 -0.882812 0.789062 -1.113281 0.625 -1.34375 C 0.457031 -1.582031 0.34375 -1.785156 0.28125 -1.953125 L 0.203125 -2.203125 L 2.234375 -3.1875 C 2.234375 -3.144531 2.238281 -3.09375 2.25 -3.03125 C 2.257812 -2.96875 2.300781 -2.847656 2.375 -2.671875 C 2.445312 -2.503906 2.53125 -2.351562 2.625 -2.21875 C 2.726562 -2.09375 2.882812 -1.976562 3.09375 -1.875 C 3.300781 -1.769531 3.539062 -1.71875 3.8125 -1.71875 C 4.21875 -1.71875 4.550781 -1.828125 4.8125 -2.046875 C 5.070312 -2.273438 5.203125 -2.585938 5.203125 -2.984375 C 5.203125 -3.398438 5.066406 -3.738281 4.796875 -4 C 4.523438 -4.269531 4.195312 -4.40625 3.8125 -4.40625 L 3.390625 -4.34375 L 3.390625 -5.78125 L 3.875 -5.78125 C 4.175781 -5.78125 4.441406 -5.894531 4.671875 -6.125 C 4.910156 -6.351562 5.03125 -6.640625 5.03125 -6.984375 C 5.03125 -7.285156 4.910156 -7.535156 4.671875 -7.734375 C 4.429688 -7.941406 4.148438 -8.046875 3.828125 -8.046875 C 3.609375 -8.046875 3.40625 -8.003906 3.21875 -7.921875 C 3.03125 -7.847656 2.890625 -7.75 2.796875 -7.625 C 2.703125 -7.507812 2.617188 -7.394531 2.546875 -7.28125 C 2.484375 -7.164062 2.445312 -7.066406 2.4375 -6.984375 Z M 2.390625 -6.859375 "/></g></g><g style="fill:#000000;fill-opacity:1;"><g transform="translate(107.704512, 99.136015)"><path style="stroke:none" d="M 0.34375 -5.6875 L 0.34375 -7.859375 L 3.078125 -9.640625 L 4.125 -9.640625 L 4.125 0 L 1.921875 0 L 1.921875 -6.71875 Z M 0.34375 -5.6875 "/></g></g></g></svg>