<svg xmlns="http://www.w3.org/2000/svg" xmlns:xlink="http://www.w3.org/1999/xlink" width="192" zoomAndPan="magnify" viewBox="0 0 144 143.999998" height="192" preserveAspectRatio="xMidYMid meet" version="1.2"><defs/><g id="3e3b743647"><g style="fill:#000000;fill-opacity:1;"><g transform="translate(17.651242, 34.009544)"><path style="stroke:none" d="M 1.5 -5.5625 C 1.15625 -5.5625 0.863281 -5.679688 0.625 -5.921875 C 0.382812 -6.160156 0.265625 -6.453125 0.265625 -6.796875 C 0.265625 -7.816406 0.859375 -8.820312 2.046875 -9.8125 L 2.59375 -9.390625 C 2.550781 -9.335938 2.488281 -9.269531 2.40625 -9.1875 C 2.332031 -9.101562 2.222656 -8.929688 2.078125 -8.671875 C 1.929688 -8.410156 1.832031 -8.148438 1.78125 -7.890625 C 2.050781 -7.828125 2.269531 -7.691406 2.4375 -7.484375 C 2.613281 -7.285156 2.703125 -7.054688 2.703125 -6.796875 C 2.703125 -6.453125 2.582031 -6.160156 2.34375 -5.921875 C 2.113281 -5.679688 1.832031 -5.5625 1.5 -5.5625 Z M 5.3125 -5.921875 C 5.070312 -5.679688 4.785156 -5.5625 4.453125 -5.5625 C 4.117188 -5.5625 3.832031 -5.679688 3.59375 -5.921875 C 3.363281 -6.160156 3.25 -6.453125 3.25 -6.796875 C 3.25 -7.847656 3.835938 -8.851562 5.015625 -9.8125 L 5.5625 -9.390625 C 5.519531 -9.335938 5.457031 -9.269531 5.375 -9.1875 C 5.300781 -9.101562 5.191406 -8.929688 5.046875 -8.671875 C 4.898438 -8.410156 4.800781 -8.148438 4.75 -7.890625 C 5.019531 -7.828125 5.238281 -7.691406 5.40625 -7.484375 C 5.582031 -7.285156 5.671875 -7.054688 5.671875 -6.796875 C 5.671875 -6.453125 5.550781 -6.160156 5.3125 -5.921875 Z M 5.3125 -5.921875 "/></g></g><g style="fill:#000000;fill-opacity:1;"><g transform="translate(24.022426, 34.009544)"><path style="stroke:none" d="M 0.703125 -9.640625 L 3.6875 -9.640625 C 4.59375 -9.640625 5.3125 -9.445312 5.84375 -9.0625 C 6.382812 -8.675781 6.65625 -8.050781 6.65625 -7.1875 C 6.65625 -6.21875 6.253906 -5.53125 5.453125 -5.125 C 6.828125 -4.875 7.515625 -4.0625 7.515625 -2.6875 C 7.515625 -1.875 7.234375 -1.222656 6.671875 -0.734375 C 6.109375 -0.242188 5.335938 0 4.359375 0 L 0.703125 0 Z M 2.90625 -5.859375 L 3.078125 -5.859375 C 3.566406 -5.859375 3.929688 -5.941406 4.171875 -6.109375 C 4.410156 -6.285156 4.53125 -6.570312 4.53125 -6.96875 C 4.53125 -7.625 4.046875 -7.953125 3.078125 -7.953125 L 2.90625 -7.953125 Z M 2.90625 -1.6875 L 3.59375 -1.6875 C 4.664062 -1.6875 5.203125 -2.046875 5.203125 -2.765625 C 5.203125 -3.191406 5.066406 -3.5 4.796875 -3.6875 C 4.523438 -3.875 4.125 -3.96875 3.59375 -3.96875 L 2.90625 -3.96875 Z M 2.90625 -1.6875 "/></g></g><g style="fill:#000000;fill-opacity:1;"><g transform="translate(31.808131, 34.009544)"><path style="stroke:none" d="M 2.65625 -6 L 2.65625 -3.140625 C 2.65625 -2.546875 2.742188 -2.125 2.921875 -1.875 C 3.097656 -1.625 3.398438 -1.5 3.828125 -1.5 C 4.253906 -1.5 4.554688 -1.625 4.734375 -1.875 C 4.921875 -2.125 5.015625 -2.546875 5.015625 -3.140625 L 5.015625 -6 L 7.078125 -6 L 7.078125 -2.640625 C 7.078125 -1.640625 6.816406 -0.921875 6.296875 -0.484375 C 5.785156 -0.046875 4.960938 0.171875 3.828125 0.171875 C 2.703125 0.171875 1.878906 -0.046875 1.359375 -0.484375 C 0.835938 -0.921875 0.578125 -1.640625 0.578125 -2.640625 L 0.578125 -6 Z M 2.65625 -6 "/></g></g><g style="fill:#000000;fill-opacity:1;"><g transform="translate(39.418487, 34.009544)"><path style="stroke:none" d="M 1.046875 -6 L 1.046875 -8.234375 L 3.125 -8.234375 L 3.125 -6 L 4.390625 -6 L 4.390625 -4.421875 L 3.125 -4.421875 L 3.125 -2.515625 C 3.125 -1.960938 3.28125 -1.6875 3.59375 -1.6875 C 3.664062 -1.6875 3.742188 -1.703125 3.828125 -1.734375 C 3.921875 -1.765625 3.988281 -1.796875 4.03125 -1.828125 L 4.109375 -1.875 L 4.609375 -0.203125 C 4.171875 0.046875 3.664062 0.171875 3.09375 0.171875 C 2.707031 0.171875 2.375 0.101562 2.09375 -0.03125 C 1.8125 -0.164062 1.597656 -0.347656 1.453125 -0.578125 C 1.304688 -0.804688 1.203125 -1.046875 1.140625 -1.296875 C 1.078125 -1.554688 1.046875 -1.828125 1.046875 -2.109375 L 1.046875 -4.421875 L 0.1875 -4.421875 L 0.1875 -6 Z M 1.046875 -6 "/></g></g><g style="fill:#000000;fill-opacity:1;"><g transform="translate(44.036139, 34.009544)"><path style="stroke:none" d=""/></g></g><g style="fill:#000000;fill-opacity:1;"><g transform="translate(47.227581, 34.009544)"><path style="stroke:none" d="M 0.703125 0 L 0.703125 -6 L 2.765625 -6 L 2.765625 -5.359375 L 2.796875 -5.359375 C 3.328125 -5.898438 3.898438 -6.171875 4.515625 -6.171875 C 4.953125 -6.171875 5.359375 -6.082031 5.734375 -5.90625 C 6.117188 -5.726562 6.410156 -5.453125 6.609375 -5.078125 C 7.210938 -5.804688 7.875 -6.171875 8.59375 -6.171875 C 9.226562 -6.171875 9.773438 -5.988281 10.234375 -5.625 C 10.691406 -5.269531 10.921875 -4.710938 10.921875 -3.953125 L 10.921875 0 L 8.859375 0 L 8.859375 -3.390625 C 8.859375 -3.710938 8.769531 -3.976562 8.59375 -4.1875 C 8.414062 -4.40625 8.15625 -4.515625 7.8125 -4.515625 C 7.5 -4.515625 7.265625 -4.421875 7.109375 -4.234375 C 6.953125 -4.054688 6.863281 -3.835938 6.84375 -3.578125 L 6.84375 0 L 4.78125 0 L 4.78125 -3.390625 C 4.78125 -3.710938 4.691406 -3.976562 4.515625 -4.1875 C 4.335938 -4.40625 4.078125 -4.515625 3.734375 -4.515625 C 3.410156 -4.515625 3.164062 -4.414062 3 -4.21875 C 2.84375 -4.019531 2.765625 -3.78125 2.765625 -3.5 L 2.765625 0 Z M 0.703125 0 "/></g></g><g style="fill:#000000;fill-opacity:1;"><g transform="translate(58.742477, 34.009544)"><path style="stroke:none" d="M 5.25 -6 L 7.625 -6 L 2.921875 3.03125 L 0.53125 3.03125 L 2.609375 -0.9375 L -0.234375 -6 L 2.15625 -6 L 3.828125 -2.921875 Z M 5.25 -6 "/></g></g><g style="fill:#000000;fill-opacity:1;"><g transform="translate(66.142406, 34.009544)"><path style="stroke:none" d=""/></g></g><g style="fill:#000000;fill-opacity:1;"><g transform="translate(69.333848, 34.009544)"><path style="stroke:none" d="M 9.421875 -5.40625 L 9.421875 -3.3125 C 9.171875 -2.164062 8.625 -1.296875 7.78125 -0.703125 C 6.9375 -0.117188 6 0.171875 4.96875 0.171875 C 3.664062 0.171875 2.554688 -0.3125 1.640625 -1.28125 C 0.722656 -2.257812 0.265625 -3.4375 0.265625 -4.8125 C 0.265625 -6.21875 0.710938 -7.398438 1.609375 -8.359375 C 2.503906 -9.328125 3.625 -9.8125 4.96875 -9.8125 C 6.53125 -9.8125 7.769531 -9.265625 8.6875 -8.171875 L 7.25 -6.59375 C 6.726562 -7.414062 6.007812 -7.828125 5.09375 -7.828125 C 4.414062 -7.828125 3.835938 -7.53125 3.359375 -6.9375 C 2.878906 -6.351562 2.640625 -5.644531 2.640625 -4.8125 C 2.640625 -4 2.878906 -3.300781 3.359375 -2.71875 C 3.835938 -2.132812 4.414062 -1.84375 5.09375 -1.84375 C 5.65625 -1.84375 6.144531 -2.007812 6.5625 -2.34375 C 6.976562 -2.6875 7.1875 -3.140625 7.1875 -3.703125 L 4.96875 -3.703125 L 4.96875 -5.40625 Z M 9.421875 -5.40625 "/></g></g><g style="fill:#000000;fill-opacity:1;"><g transform="translate(79.02507, 34.009544)"><path style="stroke:none" d="M 1.265625 -0.703125 C 0.597656 -1.296875 0.265625 -2.054688 0.265625 -2.984375 C 0.265625 -3.921875 0.609375 -4.6875 1.296875 -5.28125 C 1.992188 -5.875 2.851562 -6.171875 3.875 -6.171875 C 4.882812 -6.171875 5.734375 -5.867188 6.421875 -5.265625 C 7.109375 -4.671875 7.453125 -3.910156 7.453125 -2.984375 C 7.453125 -2.066406 7.113281 -1.3125 6.4375 -0.71875 C 5.769531 -0.125 4.914062 0.171875 3.875 0.171875 C 2.800781 0.171875 1.929688 -0.117188 1.265625 -0.703125 Z M 2.859375 -4 C 2.597656 -3.738281 2.46875 -3.398438 2.46875 -2.984375 C 2.46875 -2.578125 2.59375 -2.242188 2.84375 -1.984375 C 3.101562 -1.722656 3.445312 -1.59375 3.875 -1.59375 C 4.269531 -1.59375 4.597656 -1.722656 4.859375 -1.984375 C 5.128906 -2.253906 5.265625 -2.585938 5.265625 -2.984375 C 5.265625 -3.398438 5.128906 -3.738281 4.859375 -4 C 4.585938 -4.269531 4.257812 -4.40625 3.875 -4.40625 C 3.46875 -4.40625 3.128906 -4.269531 2.859375 -4 Z M 2.859375 -4 "/></g></g><g style="fill:#000000;fill-opacity:1;"><g transform="translate(86.752321, 34.009544)"><path style="stroke:none" d="M 1.109375 -0.734375 C 0.546875 -1.347656 0.265625 -2.097656 0.265625 -2.984375 C 0.265625 -3.878906 0.546875 -4.632812 1.109375 -5.25 C 1.671875 -5.863281 2.382812 -6.171875 3.25 -6.171875 C 4.039062 -6.171875 4.695312 -5.921875 5.21875 -5.421875 L 5.21875 -10.046875 L 7.28125 -10.046875 L 7.28125 0 L 5.234375 0 L 5.234375 -0.671875 L 5.21875 -0.671875 C 4.695312 -0.109375 4.039062 0.171875 3.25 0.171875 C 2.382812 0.171875 1.671875 -0.128906 1.109375 -0.734375 Z M 2.859375 -4 C 2.597656 -3.738281 2.46875 -3.398438 2.46875 -2.984375 C 2.46875 -2.578125 2.59375 -2.242188 2.84375 -1.984375 C 3.101562 -1.722656 3.445312 -1.59375 3.875 -1.59375 C 4.269531 -1.59375 4.597656 -1.722656 4.859375 -1.984375 C 5.128906 -2.253906 5.265625 -2.585938 5.265625 -2.984375 C 5.265625 -3.398438 5.128906 -3.738281 4.859375 -4 C 4.585938 -4.269531 4.257812 -4.40625 3.875 -4.40625 C 3.46875 -4.40625 3.128906 -4.269531 2.859375 -4 Z M 2.859375 -4 "/></g></g><g style="fill:#000000;fill-opacity:1;"><g transform="translate(94.736764, 34.009544)"><path style="stroke:none" d=""/></g></g><g style="fill:#000000;fill-opacity:1;"><g transform="translate(97.928206, 34.009544)"><path style="stroke:none" d="M 3.3125 -6.171875 C 3.65625 -6.171875 3.992188 -6.128906 4.328125 -6.046875 C 4.660156 -5.972656 4.910156 -5.898438 5.078125 -5.828125 L 5.3125 -5.703125 L 4.640625 -4.34375 C 4.171875 -4.59375 3.726562 -4.71875 3.3125 -4.71875 C 3.070312 -4.71875 2.90625 -4.691406 2.8125 -4.640625 C 2.71875 -4.585938 2.671875 -4.492188 2.671875 -4.359375 C 2.671875 -4.328125 2.671875 -4.296875 2.671875 -4.265625 C 2.679688 -4.234375 2.695312 -4.203125 2.71875 -4.171875 C 2.75 -4.148438 2.769531 -4.128906 2.78125 -4.109375 C 2.800781 -4.085938 2.832031 -4.066406 2.875 -4.046875 C 2.925781 -4.023438 2.960938 -4.003906 2.984375 -3.984375 C 3.015625 -3.972656 3.0625 -3.957031 3.125 -3.9375 C 3.1875 -3.914062 3.234375 -3.898438 3.265625 -3.890625 C 3.296875 -3.878906 3.347656 -3.859375 3.421875 -3.828125 C 3.503906 -3.804688 3.5625 -3.789062 3.59375 -3.78125 C 3.84375 -3.71875 4.054688 -3.640625 4.234375 -3.546875 C 4.410156 -3.460938 4.597656 -3.347656 4.796875 -3.203125 C 4.992188 -3.054688 5.144531 -2.867188 5.25 -2.640625 C 5.363281 -2.410156 5.421875 -2.15625 5.421875 -1.875 C 5.421875 -0.507812 4.472656 0.171875 2.578125 0.171875 C 2.148438 0.171875 1.742188 0.109375 1.359375 -0.015625 C 0.972656 -0.148438 0.695312 -0.285156 0.53125 -0.421875 L 0.265625 -0.625 L 1.109375 -2.046875 C 1.171875 -1.992188 1.25 -1.925781 1.34375 -1.84375 C 1.445312 -1.769531 1.628906 -1.671875 1.890625 -1.546875 C 2.160156 -1.421875 2.394531 -1.359375 2.59375 -1.359375 C 3.019531 -1.359375 3.234375 -1.5 3.234375 -1.78125 C 3.234375 -1.914062 3.175781 -2.019531 3.0625 -2.09375 C 2.957031 -2.164062 2.773438 -2.25 2.515625 -2.34375 C 2.253906 -2.4375 2.050781 -2.523438 1.90625 -2.609375 C 1.53125 -2.804688 1.234375 -3.023438 1.015625 -3.265625 C 0.796875 -3.515625 0.6875 -3.84375 0.6875 -4.25 C 0.6875 -4.851562 0.921875 -5.320312 1.390625 -5.65625 C 1.867188 -6 2.507812 -6.171875 3.3125 -6.171875 Z M 3.3125 -6.171875 "/></g></g><g style="fill:#000000;fill-opacity:1;"><g transform="translate(103.67981, 34.009544)"><path style="stroke:none" d="M 0.703125 0 L 0.703125 -10.046875 L 2.765625 -10.046875 L 2.765625 -5.359375 L 2.796875 -5.359375 C 3.328125 -5.898438 3.898438 -6.171875 4.515625 -6.171875 C 4.804688 -6.171875 5.097656 -6.128906 5.390625 -6.046875 C 5.679688 -5.972656 5.960938 -5.851562 6.234375 -5.6875 C 6.503906 -5.53125 6.722656 -5.300781 6.890625 -5 C 7.054688 -4.695312 7.140625 -4.347656 7.140625 -3.953125 L 7.140625 0 L 5.078125 0 L 5.078125 -3.390625 C 5.078125 -3.703125 4.972656 -3.972656 4.765625 -4.203125 C 4.566406 -4.441406 4.3125 -4.5625 4 -4.5625 C 3.6875 -4.5625 3.398438 -4.4375 3.140625 -4.1875 C 2.890625 -3.945312 2.765625 -3.679688 2.765625 -3.390625 L 2.765625 0 Z M 0.703125 0 "/></g></g><g style="fill:#000000;fill-opacity:1;"><g transform="translate(111.407062, 34.009544)"><path style="stroke:none" d="M 1.109375 -0.734375 C 0.546875 -1.347656 0.265625 -2.097656 0.265625 -2.984375 C 0.265625 -3.878906 0.546875 -4.632812 1.109375 -5.25 C 1.671875 -5.863281 2.382812 -6.171875 3.25 -6.171875 C 4.039062 -6.171875 4.695312 -5.921875 5.21875 -5.421875 L 5.21875 -6 L 7.28125 -6 L 7.28125 0 L 5.234375 0 L 5.234375 -0.671875 L 5.21875 -0.671875 C 4.695312 -0.109375 4.039062 0.171875 3.25 0.171875 C 2.382812 0.171875 1.671875 -0.128906 1.109375 -0.734375 Z M 2.859375 -4 C 2.597656 -3.738281 2.46875 -3.398438 2.46875 -2.984375 C 2.46875 -2.578125 2.59375 -2.242188 2.84375 -1.984375 C 3.101562 -1.722656 3.445312 -1.59375 3.875 -1.59375 C 4.269531 -1.59375 4.597656 -1.722656 4.859375 -1.984375 C 5.128906 -2.253906 5.265625 -2.585938 5.265625 -2.984375 C 5.265625 -3.398438 5.128906 -3.738281 4.859375 -4 C 4.585938 -4.269531 4.257812 -4.40625 3.875 -4.40625 C 3.46875 -4.40625 3.128906 -4.269531 2.859375 -4 Z M 2.859375 -4 "/></g></g><g style="fill:#000000;fill-opacity:1;"><g transform="translate(119.391505, 34.009544)"><path style="stroke:none" d="M 0.703125 0 L 0.703125 -10.046875 L 2.765625 -10.046875 L 2.765625 0 Z M 0.703125 0 "/></g></g><g style="fill:#000000;fill-opacity:1;"><g transform="translate(122.863504, 34.009544)"><path style="stroke:none" d="M 0.703125 0 L 0.703125 -10.046875 L 2.765625 -10.046875 L 2.765625 0 Z M 0.703125 0 "/></g></g><g style="fill:#000000;fill-opacity:1;"><g transform="translate(10.479581, 50.291155)"><path style="stroke:none" d="M 3.3125 -6.171875 C 3.65625 -6.171875 3.992188 -6.128906 4.328125 -6.046875 C 4.660156 -5.972656 4.910156 -5.898438 5.078125 -5.828125 L 5.3125 -5.703125 L 4.640625 -4.34375 C 4.171875 -4.59375 3.726562 -4.71875 3.3125 -4.71875 C 3.070312 -4.71875 2.90625 -4.691406 2.8125 -4.640625 C 2.71875 -4.585938 2.671875 -4.492188 2.671875 -4.359375 C 2.671875 -4.328125 2.671875 -4.296875 2.671875 -4.265625 C 2.679688 -4.234375 2.695312 -4.203125 2.71875 -4.171875 C 2.75 -4.148438 2.769531 -4.128906 2.78125 -4.109375 C 2.800781 -4.085938 2.832031 -4.066406 2.875 -4.046875 C 2.925781 -4.023438 2.960938 -4.003906 2.984375 -3.984375 C 3.015625 -3.972656 3.0625 -3.957031 3.125 -3.9375 C 3.1875 -3.914062 3.234375 -3.898438 3.265625 -3.890625 C 3.296875 -3.878906 3.347656 -3.859375 3.421875 -3.828125 C 3.503906 -3.804688 3.5625 -3.789062 3.59375 -3.78125 C 3.84375 -3.71875 4.054688 -3.640625 4.234375 -3.546875 C 4.410156 -3.460938 4.597656 -3.347656 4.796875 -3.203125 C 4.992188 -3.054688 5.144531 -2.867188 5.25 -2.640625 C 5.363281 -2.410156 5.421875 -2.15625 5.421875 -1.875 C 5.421875 -0.507812 4.472656 0.171875 2.578125 0.171875 C 2.148438 0.171875 1.742188 0.109375 1.359375 -0.015625 C 0.972656 -0.148438 0.695312 -0.285156 0.53125 -0.421875 L 0.265625 -0.625 L 1.109375 -2.046875 C 1.171875 -1.992188 1.25 -1.925781 1.34375 -1.84375 C 1.445312 -1.769531 1.628906 -1.671875 1.890625 -1.546875 C 2.160156 -1.421875 2.394531 -1.359375 2.59375 -1.359375 C 3.019531 -1.359375 3.234375 -1.5 3.234375 -1.78125 C 3.234375 -1.914062 3.175781 -2.019531 3.0625 -2.09375 C 2.957031 -2.164062 2.773438 -2.25 2.515625 -2.34375 C 2.253906 -2.4375 2.050781 -2.523438 1.90625 -2.609375 C 1.53125 -2.804688 1.234375 -3.023438 1.015625 -3.265625 C 0.796875 -3.515625 0.6875 -3.84375 0.6875 -4.25 C 0.6875 -4.851562 0.921875 -5.320312 1.390625 -5.65625 C 1.867188 -6 2.507812 -6.171875 3.3125 -6.171875 Z M 3.3125 -6.171875 "/></g></g><g style="fill:#000000;fill-opacity:1;"><g transform="translate(16.231185, 50.291155)"><path style="stroke:none" d="M 2.65625 -6 L 2.65625 -3.140625 C 2.65625 -2.546875 2.742188 -2.125 2.921875 -1.875 C 3.097656 -1.625 3.398438 -1.5 3.828125 -1.5 C 4.253906 -1.5 4.554688 -1.625 4.734375 -1.875 C 4.921875 -2.125 5.015625 -2.546875 5.015625 -3.140625 L 5.015625 -6 L 7.078125 -6 L 7.078125 -2.640625 C 7.078125 -1.640625 6.816406 -0.921875 6.296875 -0.484375 C 5.785156 -0.046875 4.960938 0.171875 3.828125 0.171875 C 2.703125 0.171875 1.878906 -0.046875 1.359375 -0.484375 C 0.835938 -0.921875 0.578125 -1.640625 0.578125 -2.640625 L 0.578125 -6 Z M 2.65625 -6 "/></g></g><g style="fill:#000000;fill-opacity:1;"><g transform="translate(23.899994, 50.291155)"><path style="stroke:none" d="M 6.875 -5.25 C 7.4375 -4.644531 7.71875 -3.894531 7.71875 -3 C 7.71875 -2.113281 7.4375 -1.363281 6.875 -0.75 C 6.3125 -0.132812 5.597656 0.171875 4.734375 0.171875 C 3.941406 0.171875 3.285156 -0.078125 2.765625 -0.578125 L 2.765625 3.03125 L 0.703125 3.03125 L 0.703125 -6 L 2.75 -6 L 2.75 -5.3125 L 2.765625 -5.3125 C 3.285156 -5.882812 3.941406 -6.171875 4.734375 -6.171875 C 5.597656 -6.171875 6.3125 -5.863281 6.875 -5.25 Z M 5.109375 -1.984375 C 5.378906 -2.253906 5.515625 -2.59375 5.515625 -3 C 5.515625 -3.414062 5.382812 -3.753906 5.125 -4.015625 C 4.875 -4.273438 4.535156 -4.40625 4.109375 -4.40625 C 3.703125 -4.40625 3.367188 -4.269531 3.109375 -4 C 2.847656 -3.738281 2.71875 -3.40625 2.71875 -3 C 2.71875 -2.59375 2.851562 -2.253906 3.125 -1.984375 C 3.394531 -1.722656 3.722656 -1.59375 4.109375 -1.59375 C 4.503906 -1.59375 4.835938 -1.722656 5.109375 -1.984375 Z M 5.109375 -1.984375 "/></g></g><g style="fill:#000000;fill-opacity:1;"><g transform="translate(31.884437, 50.291155)"><path style="stroke:none" d="M 6.875 -5.25 C 7.4375 -4.644531 7.71875 -3.894531 7.71875 -3 C 7.71875 -2.113281 7.4375 -1.363281 6.875 -0.75 C 6.3125 -0.132812 5.597656 0.171875 4.734375 0.171875 C 3.941406 0.171875 3.285156 -0.078125 2.765625 -0.578125 L 2.765625 3.03125 L 0.703125 3.03125 L 0.703125 -6 L 2.75 -6 L 2.75 -5.3125 L 2.765625 -5.3125 C 3.285156 -5.882812 3.941406 -6.171875 4.734375 -6.171875 C 5.597656 -6.171875 6.3125 -5.863281 6.875 -5.25 Z M 5.109375 -1.984375 C 5.378906 -2.253906 5.515625 -2.59375 5.515625 -3 C 5.515625 -3.414062 5.382812 -3.753906 5.125 -4.015625 C 4.875 -4.273438 4.535156 -4.40625 4.109375 -4.40625 C 3.703125 -4.40625 3.367188 -4.269531 3.109375 -4 C 2.847656 -3.738281 2.71875 -3.40625 2.71875 -3 C 2.71875 -2.59375 2.851562 -2.253906 3.125 -1.984375 C 3.394531 -1.722656 3.722656 -1.59375 4.109375 -1.59375 C 4.503906 -1.59375 4.835938 -1.722656 5.109375 -1.984375 Z M 5.109375 -1.984375 "/></g></g><g style="fill:#000000;fill-opacity:1;"><g transform="translate(39.868881, 50.291155)"><path style="stroke:none" d="M 0.703125 0 L 0.703125 -10.046875 L 2.765625 -10.046875 L 2.765625 0 Z M 0.703125 0 "/></g></g><g style="fill:#000000;fill-opacity:1;"><g transform="translate(43.270726, 50.291155)"><path style="stroke:none" d="M 5.25 -6 L 7.625 -6 L 2.921875 3.03125 L 0.53125 3.03125 L 2.609375 -0.9375 L -0.234375 -6 L 2.15625 -6 L 3.828125 -2.921875 Z M 5.25 -6 "/></g></g><g style="fill:#000000;fill-opacity:1;"><g transform="translate(50.670654, 50.291155)"><path style="stroke:none" d=""/></g></g><g style="fill:#000000;fill-opacity:1;"><g transform="translate(53.862096, 50.291155)"><path style="stroke:none" d="M 1.109375 -0.734375 C 0.546875 -1.347656 0.265625 -2.097656 0.265625 -2.984375 C 0.265625 -3.878906 0.546875 -4.632812 1.109375 -5.25 C 1.671875 -5.863281 2.382812 -6.171875 3.25 -6.171875 C 4.039062 -6.171875 4.695312 -5.921875 5.21875 -5.421875 L 5.21875 -6 L 7.28125 -6 L 7.28125 0 L 5.234375 0 L 5.234375 -0.671875 L 5.21875 -0.671875 C 4.695312 -0.109375 4.039062 0.171875 3.25 0.171875 C 2.382812 0.171875 1.671875 -0.128906 1.109375 -0.734375 Z M 2.859375 -4 C 2.597656 -3.738281 2.46875 -3.398438 2.46875 -2.984375 C 2.46875 -2.578125 2.59375 -2.242188 2.84375 -1.984375 C 3.101562 -1.722656 3.445312 -1.59375 3.875 -1.59375 C 4.269531 -1.59375 4.597656 -1.722656 4.859375 -1.984375 C 5.128906 -2.253906 5.265625 -2.585938 5.265625 -2.984375 C 5.265625 -3.398438 5.128906 -3.738281 4.859375 -4 C 4.585938 -4.269531 4.257812 -4.40625 3.875 -4.40625 C 3.46875 -4.40625 3.128906 -4.269531 2.859375 -4 Z M 2.859375 -4 "/></g></g><g style="fill:#000000;fill-opacity:1;"><g transform="translate(61.84654, 50.291155)"><path style="stroke:none" d="M 0.703125 0 L 0.703125 -10.046875 L 2.765625 -10.046875 L 2.765625 0 Z M 0.703125 0 "/></g></g><g style="fill:#000000;fill-opacity:1;"><g transform="translate(65.318539, 50.291155)"><path style="stroke:none" d="M 0.703125 0 L 0.703125 -10.046875 L 2.765625 -10.046875 L 2.765625 0 Z M 0.703125 0 "/></g></g><g style="fill:#000000;fill-opacity:1;"><g transform="translate(68.790538, 50.291155)"><path style="stroke:none" d=""/></g></g><g style="fill:#000000;fill-opacity:1;"><g transform="translate(71.911826, 50.291155)"><path style="stroke:none" d="M 5.25 -6 L 7.625 -6 L 2.921875 3.03125 L 0.53125 3.03125 L 2.609375 -0.9375 L -0.234375 -6 L 2.15625 -6 L 3.828125 -2.921875 Z M 5.25 -6 "/></g></g><g style="fill:#000000;fill-opacity:1;"><g transform="translate(79.276678, 50.291155)"><path style="stroke:none" d="M 1.265625 -0.703125 C 0.597656 -1.296875 0.265625 -2.054688 0.265625 -2.984375 C 0.265625 -3.921875 0.609375 -4.6875 1.296875 -5.28125 C 1.992188 -5.875 2.851562 -6.171875 3.875 -6.171875 C 4.882812 -6.171875 5.734375 -5.867188 6.421875 -5.265625 C 7.109375 -4.671875 7.453125 -3.910156 7.453125 -2.984375 C 7.453125 -2.066406 7.113281 -1.3125 6.4375 -0.71875 C 5.769531 -0.125 4.914062 0.171875 3.875 0.171875 C 2.800781 0.171875 1.929688 -0.117188 1.265625 -0.703125 Z M 2.859375 -4 C 2.597656 -3.738281 2.46875 -3.398438 2.46875 -2.984375 C 2.46875 -2.578125 2.59375 -2.242188 2.84375 -1.984375 C 3.101562 -1.722656 3.445312 -1.59375 3.875 -1.59375 C 4.269531 -1.59375 4.597656 -1.722656 4.859375 -1.984375 C 5.128906 -2.253906 5.265625 -2.585938 5.265625 -2.984375 C 5.265625 -3.398438 5.128906 -3.738281 4.859375 -4 C 4.585938 -4.269531 4.257812 -4.40625 3.875 -4.40625 C 3.46875 -4.40625 3.128906 -4.269531 2.859375 -4 Z M 2.859375 -4 "/></g></g><g style="fill:#000000;fill-opacity:1;"><g transform="translate(87.003929, 50.291155)"><path style="stroke:none" d="M 2.65625 -6 L 2.65625 -3.140625 C 2.65625 -2.546875 2.742188 -2.125 2.921875 -1.875 C 3.097656 -1.625 3.398438 -1.5 3.828125 -1.5 C 4.253906 -1.5 4.554688 -1.625 4.734375 -1.875 C 4.921875 -2.125 5.015625 -2.546875 5.015625 -3.140625 L 5.015625 -6 L 7.078125 -6 L 7.078125 -2.640625 C 7.078125 -1.640625 6.816406 -0.921875 6.296875 -0.484375 C 5.785156 -0.046875 4.960938 0.171875 3.828125 0.171875 C 2.703125 0.171875 1.878906 -0.046875 1.359375 -0.484375 C 0.835938 -0.921875 0.578125 -1.640625 0.578125 -2.640625 L 0.578125 -6 Z M 2.65625 -6 "/></g></g><g style="fill:#000000;fill-opacity:1;"><g transform="translate(94.672738, 50.291155)"><path style="stroke:none" d="M 0.703125 0 L 0.703125 -6 L 2.765625 -6 L 2.765625 -5.125 L 2.796875 -5.125 C 2.804688 -5.15625 2.828125 -5.191406 2.859375 -5.234375 C 2.898438 -5.285156 2.976562 -5.367188 3.09375 -5.484375 C 3.207031 -5.609375 3.332031 -5.71875 3.46875 -5.8125 C 3.601562 -5.90625 3.773438 -5.988281 3.984375 -6.0625 C 4.191406 -6.132812 4.40625 -6.171875 4.625 -6.171875 C 4.851562 -6.171875 5.078125 -6.140625 5.296875 -6.078125 C 5.515625 -6.015625 5.675781 -5.953125 5.78125 -5.890625 L 5.9375 -5.796875 L 5.078125 -4.046875 C 4.816406 -4.265625 4.457031 -4.375 4 -4.375 C 3.75 -4.375 3.53125 -4.316406 3.34375 -4.203125 C 3.164062 -4.097656 3.039062 -3.96875 2.96875 -3.8125 C 2.894531 -3.65625 2.84375 -3.519531 2.8125 -3.40625 C 2.78125 -3.300781 2.765625 -3.21875 2.765625 -3.15625 L 2.765625 0 Z M 0.703125 0 "/></g></g><g style="fill:#000000;fill-opacity:1;"><g transform="translate(100.494485, 50.291155)"><path style="stroke:none" d=""/></g></g><g style="fill:#000000;fill-opacity:1;"><g transform="translate(103.685927, 50.291155)"><path style="stroke:none" d="M 0.703125 0 L 0.703125 -6 L 2.765625 -6 L 2.765625 -5.359375 L 2.796875 -5.359375 C 3.328125 -5.898438 3.898438 -6.171875 4.515625 -6.171875 C 4.804688 -6.171875 5.097656 -6.128906 5.390625 -6.046875 C 5.679688 -5.972656 5.960938 -5.851562 6.234375 -5.6875 C 6.503906 -5.53125 6.722656 -5.300781 6.890625 -5 C 7.054688 -4.695312 7.140625 -4.347656 7.140625 -3.953125 L 7.140625 0 L 5.078125 0 L 5.078125 -3.390625 C 5.078125 -3.703125 4.972656 -3.972656 4.765625 -4.203125 C 4.566406 -4.441406 4.3125 -4.5625 4 -4.5625 C 3.6875 -4.5625 3.398438 -4.4375 3.140625 -4.1875 C 2.890625 -3.945312 2.765625 -3.679688 2.765625 -3.390625 L 2.765625 0 Z M 0.703125 0 "/></g></g><g style="fill:#000000;fill-opacity:1;"><g transform="translate(111.413178, 50.291155)"><path style="stroke:none" d="M 6.765625 -2.71875 L 2.421875 -2.71875 C 2.421875 -2.289062 2.554688 -1.972656 2.828125 -1.765625 C 3.097656 -1.566406 3.394531 -1.46875 3.71875 -1.46875 C 4.050781 -1.46875 4.3125 -1.507812 4.5 -1.59375 C 4.695312 -1.6875 4.921875 -1.867188 5.171875 -2.140625 L 6.671875 -1.390625 C 6.046875 -0.347656 5.007812 0.171875 3.5625 0.171875 C 2.65625 0.171875 1.878906 -0.132812 1.234375 -0.75 C 0.585938 -1.375 0.265625 -2.117188 0.265625 -2.984375 C 0.265625 -3.859375 0.585938 -4.609375 1.234375 -5.234375 C 1.878906 -5.859375 2.65625 -6.171875 3.5625 -6.171875 C 4.507812 -6.171875 5.28125 -5.894531 5.875 -5.34375 C 6.476562 -4.789062 6.78125 -4.003906 6.78125 -2.984375 C 6.78125 -2.847656 6.773438 -2.757812 6.765625 -2.71875 Z M 2.484375 -3.859375 L 4.75 -3.859375 C 4.707031 -4.171875 4.585938 -4.410156 4.390625 -4.578125 C 4.191406 -4.742188 3.9375 -4.828125 3.625 -4.828125 C 3.28125 -4.828125 3.003906 -4.738281 2.796875 -4.5625 C 2.597656 -4.382812 2.492188 -4.148438 2.484375 -3.859375 Z M 2.484375 -3.859375 "/></g></g><g style="fill:#000000;fill-opacity:1;"><g transform="translate(118.462395, 50.291155)"><path style="stroke:none" d="M 6.765625 -2.71875 L 2.421875 -2.71875 C 2.421875 -2.289062 2.554688 -1.972656 2.828125 -1.765625 C 3.097656 -1.566406 3.394531 -1.46875 3.71875 -1.46875 C 4.050781 -1.46875 4.3125 -1.507812 4.5 -1.59375 C 4.695312 -1.6875 4.921875 -1.867188 5.171875 -2.140625 L 6.671875 -1.390625 C 6.046875 -0.347656 5.007812 0.171875 3.5625 0.171875 C 2.65625 0.171875 1.878906 -0.132812 1.234375 -0.75 C 0.585938 -1.375 0.265625 -2.117188 0.265625 -2.984375 C 0.265625 -3.859375 0.585938 -4.609375 1.234375 -5.234375 C 1.878906 -5.859375 2.65625 -6.171875 3.5625 -6.171875 C 4.507812 -6.171875 5.28125 -5.894531 5.875 -5.34375 C 6.476562 -4.789062 6.78125 -4.003906 6.78125 -2.984375 C 6.78125 -2.847656 6.773438 -2.757812 6.765625 -2.71875 Z M 2.484375 -3.859375 L 4.75 -3.859375 C 4.707031 -4.171875 4.585938 -4.410156 4.390625 -4.578125 C 4.191406 -4.742188 3.9375 -4.828125 3.625 -4.828125 C 3.28125 -4.828125 3.003906 -4.738281 2.796875 -4.5625 C 2.597656 -4.382812 2.492188 -4.148438 2.484375 -3.859375 Z M 2.484375 -3.859375 "/></g></g><g style="fill:#000000;fill-opacity:1;"><g transform="translate(125.511613, 50.291155)"><path style="stroke:none" d="M 1.109375 -0.734375 C 0.546875 -1.347656 0.265625 -2.097656 0.265625 -2.984375 C 0.265625 -3.878906 0.546875 -4.632812 1.109375 -5.25 C 1.671875 -5.863281 2.382812 -6.171875 3.25 -6.171875 C 4.039062 -6.171875 4.695312 -5.921875 5.21875 -5.421875 L 5.21875 -10.046875 L 7.28125 -10.046875 L 7.28125 0 L 5.234375 0 L 5.234375 -0.671875 L 5.21875 -0.671875 C 4.695312 -0.109375 4.039062 0.171875 3.25 0.171875 C 2.382812 0.171875 1.671875 -0.128906 1.109375 -0.734375 Z M 2.859375 -4 C 2.597656 -3.738281 2.46875 -3.398438 2.46875 -2.984375 C 2.46875 -2.578125 2.59375 -2.242188 2.84375 -1.984375 C 3.101562 -1.722656 3.445312 -1.59375 3.875 -1.59375 C 4.269531 -1.59375 4.597656 -1.722656 4.859375 -1.984375 C 5.128906 -2.253906 5.265625 -2.585938 5.265625 -2.984375 C 5.265625 -3.398438 5.128906 -3.738281 4.859375 -4 C 4.585938 -4.269531 4.257812 -4.40625 3.875 -4.40625 C 3.46875 -4.40625 3.128906 -4.269531 2.859375 -4 Z M 2.859375 -4 "/></g></g><g style="fill:#000000;fill-opacity:1;"><g transform="translate(24.011247, 66.572766)"><path style="stroke:none" d="M 1.109375 -0.734375 C 0.546875 -1.347656 0.265625 -2.097656 0.265625 -2.984375 C 0.265625 -3.878906 0.546875 -4.632812 1.109375 -5.25 C 1.671875 -5.863281 2.382812 -6.171875 3.25 -6.171875 C 4.039062 -6.171875 4.695312 -5.921875 5.21875 -5.421875 L 5.21875 -6 L 7.28125 -6 L 7.28125 0 L 5.234375 0 L 5.234375 -0.671875 L 5.21875 -0.671875 C 4.695312 -0.109375 4.039062 0.171875 3.25 0.171875 C 2.382812 0.171875 1.671875 -0.128906 1.109375 -0.734375 Z M 2.859375 -4 C 2.597656 -3.738281 2.46875 -3.398438 2.46875 -2.984375 C 2.46875 -2.578125 2.59375 -2.242188 2.84375 -1.984375 C 3.101562 -1.722656 3.445312 -1.59375 3.875 -1.59375 C 4.269531 -1.59375 4.597656 -1.722656 4.859375 -1.984375 C 5.128906 -2.253906 5.265625 -2.585938 5.265625 -2.984375 C 5.265625 -3.398438 5.128906 -3.738281 4.859375 -4 C 4.585938 -4.269531 4.257812 -4.40625 3.875 -4.40625 C 3.46875 -4.40625 3.128906 -4.269531 2.859375 -4 Z M 2.859375 -4 "/></g></g><g style="fill:#000000;fill-opacity:1;"><g transform="translate(31.99569, 66.572766)"><path style="stroke:none" d="M 3.890625 -4.46875 C 3.503906 -4.46875 3.171875 -4.320312 2.890625 -4.03125 C 2.609375 -3.75 2.46875 -3.40625 2.46875 -3 C 2.46875 -2.59375 2.609375 -2.242188 2.890625 -1.953125 C 3.171875 -1.660156 3.503906 -1.515625 3.890625 -1.515625 C 4.078125 -1.515625 4.253906 -1.535156 4.421875 -1.578125 C 4.585938 -1.628906 4.710938 -1.679688 4.796875 -1.734375 L 4.890625 -1.796875 L 5.59375 -0.359375 C 5.539062 -0.316406 5.460938 -0.265625 5.359375 -0.203125 C 5.265625 -0.148438 5.046875 -0.078125 4.703125 0.015625 C 4.359375 0.117188 3.988281 0.171875 3.59375 0.171875 C 2.707031 0.171875 1.929688 -0.132812 1.265625 -0.75 C 0.597656 -1.375 0.265625 -2.117188 0.265625 -2.984375 C 0.265625 -3.859375 0.597656 -4.609375 1.265625 -5.234375 C 1.929688 -5.859375 2.707031 -6.171875 3.59375 -6.171875 C 3.988281 -6.171875 4.351562 -6.125 4.6875 -6.03125 C 5.019531 -5.9375 5.257812 -5.84375 5.40625 -5.75 L 5.59375 -5.609375 L 4.890625 -4.203125 C 4.640625 -4.378906 4.304688 -4.46875 3.890625 -4.46875 Z M 3.890625 -4.46875 "/></g></g><g style="fill:#000000;fill-opacity:1;"><g transform="translate(37.735606, 66.572766)"><path style="stroke:none" d="M 3.890625 -4.46875 C 3.503906 -4.46875 3.171875 -4.320312 2.890625 -4.03125 C 2.609375 -3.75 2.46875 -3.40625 2.46875 -3 C 2.46875 -2.59375 2.609375 -2.242188 2.890625 -1.953125 C 3.171875 -1.660156 3.503906 -1.515625 3.890625 -1.515625 C 4.078125 -1.515625 4.253906 -1.535156 4.421875 -1.578125 C 4.585938 -1.628906 4.710938 -1.679688 4.796875 -1.734375 L 4.890625 -1.796875 L 5.59375 -0.359375 C 5.539062 -0.316406 5.460938 -0.265625 5.359375 -0.203125 C 5.265625 -0.148438 5.046875 -0.078125 4.703125 0.015625 C 4.359375 0.117188 3.988281 0.171875 3.59375 0.171875 C 2.707031 0.171875 1.929688 -0.132812 1.265625 -0.75 C 0.597656 -1.375 0.265625 -2.117188 0.265625 -2.984375 C 0.265625 -3.859375 0.597656 -4.609375 1.265625 -5.234375 C 1.929688 -5.859375 2.707031 -6.171875 3.59375 -6.171875 C 3.988281 -6.171875 4.351562 -6.125 4.6875 -6.03125 C 5.019531 -5.9375 5.257812 -5.84375 5.40625 -5.75 L 5.59375 -5.609375 L 4.890625 -4.203125 C 4.640625 -4.378906 4.304688 -4.46875 3.890625 -4.46875 Z M 3.890625 -4.46875 "/></g></g><g style="fill:#000000;fill-opacity:1;"><g transform="translate(43.475521, 66.572766)"><path style="stroke:none" d="M 1.265625 -0.703125 C 0.597656 -1.296875 0.265625 -2.054688 0.265625 -2.984375 C 0.265625 -3.921875 0.609375 -4.6875 1.296875 -5.28125 C 1.992188 -5.875 2.851562 -6.171875 3.875 -6.171875 C 4.882812 -6.171875 5.734375 -5.867188 6.421875 -5.265625 C 7.109375 -4.671875 7.453125 -3.910156 7.453125 -2.984375 C 7.453125 -2.066406 7.113281 -1.3125 6.4375 -0.71875 C 5.769531 -0.125 4.914062 0.171875 3.875 0.171875 C 2.800781 0.171875 1.929688 -0.117188 1.265625 -0.703125 Z M 2.859375 -4 C 2.597656 -3.738281 2.46875 -3.398438 2.46875 -2.984375 C 2.46875 -2.578125 2.59375 -2.242188 2.84375 -1.984375 C 3.101562 -1.722656 3.445312 -1.59375 3.875 -1.59375 C 4.269531 -1.59375 4.597656 -1.722656 4.859375 -1.984375 C 5.128906 -2.253906 5.265625 -2.585938 5.265625 -2.984375 C 5.265625 -3.398438 5.128906 -3.738281 4.859375 -4 C 4.585938 -4.269531 4.257812 -4.40625 3.875 -4.40625 C 3.46875 -4.40625 3.128906 -4.269531 2.859375 -4 Z M 2.859375 -4 "/></g></g><g style="fill:#000000;fill-opacity:1;"><g transform="translate(51.179384, 66.572766)"><path style="stroke:none" d="M 0.703125 0 L 0.703125 -6 L 2.765625 -6 L 2.765625 -5.125 L 2.796875 -5.125 C 2.804688 -5.15625 2.828125 -5.191406 2.859375 -5.234375 C 2.898438 -5.285156 2.976562 -5.367188 3.09375 -5.484375 C 3.207031 -5.609375 3.332031 -5.71875 3.46875 -5.8125 C 3.601562 -5.90625 3.773438 -5.988281 3.984375 -6.0625 C 4.191406 -6.132812 4.40625 -6.171875 4.625 -6.171875 C 4.851562 -6.171875 5.078125 -6.140625 5.296875 -6.078125 C 5.515625 -6.015625 5.675781 -5.953125 5.78125 -5.890625 L 5.9375 -5.796875 L 5.078125 -4.046875 C 4.816406 -4.265625 4.457031 -4.375 4 -4.375 C 3.75 -4.375 3.53125 -4.316406 3.34375 -4.203125 C 3.164062 -4.097656 3.039062 -3.96875 2.96875 -3.8125 C 2.894531 -3.65625 2.84375 -3.519531 2.8125 -3.40625 C 2.78125 -3.300781 2.765625 -3.21875 2.765625 -3.15625 L 2.765625 0 Z M 0.703125 0 "/></g></g><g style="fill:#000000;fill-opacity:1;"><g transform="translate(57.00113, 66.572766)"><path style="stroke:none" d="M 1.109375 -0.734375 C 0.546875 -1.347656 0.265625 -2.097656 0.265625 -2.984375 C 0.265625 -3.878906 0.546875 -4.632812 1.109375 -5.25 C 1.671875 -5.863281 2.382812 -6.171875 3.25 -6.171875 C 4.039062 -6.171875 4.695312 -5.921875 5.21875 -5.421875 L 5.21875 -10.046875 L 7.28125 -10.046875 L 7.28125 0 L 5.234375 0 L 5.234375 -0.671875 L 5.21875 -0.671875 C 4.695312 -0.109375 4.039062 0.171875 3.25 0.171875 C 2.382812 0.171875 1.671875 -0.128906 1.109375 -0.734375 Z M 2.859375 -4 C 2.597656 -3.738281 2.46875 -3.398438 2.46875 -2.984375 C 2.46875 -2.578125 2.59375 -2.242188 2.84375 -1.984375 C 3.101562 -1.722656 3.445312 -1.59375 3.875 -1.59375 C 4.269531 -1.59375 4.597656 -1.722656 4.859375 -1.984375 C 5.128906 -2.253906 5.265625 -2.585938 5.265625 -2.984375 C 5.265625 -3.398438 5.128906 -3.738281 4.859375 -4 C 4.585938 -4.269531 4.257812 -4.40625 3.875 -4.40625 C 3.46875 -4.40625 3.128906 -4.269531 2.859375 -4 Z M 2.859375 -4 "/></g></g><g style="fill:#000000;fill-opacity:1;"><g transform="translate(64.985574, 66.572766)"><path style="stroke:none" d="M 0.890625 -9.328125 C 1.140625 -9.578125 1.429688 -9.703125 1.765625 -9.703125 C 2.097656 -9.703125 2.382812 -9.578125 2.625 -9.328125 C 2.863281 -9.085938 2.984375 -8.800781 2.984375 -8.46875 C 2.984375 -8.132812 2.863281 -7.847656 2.625 -7.609375 C 2.382812 -7.367188 2.097656 -7.25 1.765625 -7.25 C 1.429688 -7.25 1.140625 -7.367188 0.890625 -7.609375 C 0.648438 -7.847656 0.53125 -8.132812 0.53125 -8.46875 C 0.53125 -8.800781 0.648438 -9.085938 0.890625 -9.328125 Z M 0.703125 -6 L 0.703125 0 L 2.765625 0 L 2.765625 -6 Z M 0.703125 -6 "/></g></g><g style="fill:#000000;fill-opacity:1;"><g transform="translate(68.516026, 66.572766)"><path style="stroke:none" d="M 0.703125 0 L 0.703125 -6 L 2.765625 -6 L 2.765625 -5.359375 L 2.796875 -5.359375 C 3.328125 -5.898438 3.898438 -6.171875 4.515625 -6.171875 C 4.804688 -6.171875 5.097656 -6.128906 5.390625 -6.046875 C 5.679688 -5.972656 5.960938 -5.851562 6.234375 -5.6875 C 6.503906 -5.53125 6.722656 -5.300781 6.890625 -5 C 7.054688 -4.695312 7.140625 -4.347656 7.140625 -3.953125 L 7.140625 0 L 5.078125 0 L 5.078125 -3.390625 C 5.078125 -3.703125 4.972656 -3.972656 4.765625 -4.203125 C 4.566406 -4.441406 4.3125 -4.5625 4 -4.5625 C 3.6875 -4.5625 3.398438 -4.4375 3.140625 -4.1875 C 2.890625 -3.945312 2.765625 -3.679688 2.765625 -3.390625 L 2.765625 0 Z M 0.703125 0 "/></g></g><g style="fill:#000000;fill-opacity:1;"><g transform="translate(76.243278, 66.572766)"><path style="stroke:none" d="M 0.4375 1.46875 L 2.125 0.640625 C 2.4375 1.160156 2.976562 1.421875 3.75 1.421875 C 4.113281 1.421875 4.445312 1.300781 4.75 1.0625 C 5.0625 0.832031 5.21875 0.484375 5.21875 0.015625 L 5.21875 -0.4375 C 4.84375 -0.03125 4.1875 0.171875 3.25 0.171875 C 2.382812 0.171875 1.671875 -0.128906 1.109375 -0.734375 C 0.546875 -1.347656 0.265625 -2.097656 0.265625 -2.984375 C 0.265625 -3.878906 0.546875 -4.632812 1.109375 -5.25 C 1.671875 -5.863281 2.382812 -6.171875 3.25 -6.171875 C 4.019531 -6.171875 4.660156 -5.929688 5.171875 -5.453125 L 5.21875 -5.453125 L 5.21875 -6 L 7.28125 -6 L 7.28125 0.15625 C 7.28125 1.132812 6.957031 1.890625 6.3125 2.421875 C 5.664062 2.953125 4.8125 3.21875 3.75 3.21875 C 2.039062 3.21875 0.9375 2.632812 0.4375 1.46875 Z M 2.859375 -4 C 2.597656 -3.738281 2.46875 -3.398438 2.46875 -2.984375 C 2.46875 -2.578125 2.59375 -2.242188 2.84375 -1.984375 C 3.101562 -1.722656 3.445312 -1.59375 3.875 -1.59375 C 4.269531 -1.59375 4.597656 -1.722656 4.859375 -1.984375 C 5.128906 -2.253906 5.265625 -2.585938 5.265625 -2.984375 C 5.265625 -3.398438 5.128906 -3.738281 4.859375 -4 C 4.585938 -4.269531 4.257812 -4.40625 3.875 -4.40625 C 3.46875 -4.40625 3.128906 -4.269531 2.859375 -4 Z M 2.859375 -4 "/></g></g><g style="fill:#000000;fill-opacity:1;"><g transform="translate(84.227721, 66.572766)"><path style="stroke:none" d=""/></g></g><g style="fill:#000000;fill-opacity:1;"><g transform="translate(87.419163, 66.572766)"><path style="stroke:none" d="M 1.046875 -6 L 1.046875 -8.234375 L 3.125 -8.234375 L 3.125 -6 L 4.390625 -6 L 4.390625 -4.421875 L 3.125 -4.421875 L 3.125 -2.515625 C 3.125 -1.960938 3.28125 -1.6875 3.59375 -1.6875 C 3.664062 -1.6875 3.742188 -1.703125 3.828125 -1.734375 C 3.921875 -1.765625 3.988281 -1.796875 4.03125 -1.828125 L 4.109375 -1.875 L 4.609375 -0.203125 C 4.171875 0.046875 3.664062 0.171875 3.09375 0.171875 C 2.707031 0.171875 2.375 0.101562 2.09375 -0.03125 C 1.8125 -0.164062 1.597656 -0.347656 1.453125 -0.578125 C 1.304688 -0.804688 1.203125 -1.046875 1.140625 -1.296875 C 1.078125 -1.554688 1.046875 -1.828125 1.046875 -2.109375 L 1.046875 -4.421875 L 0.1875 -4.421875 L 0.1875 -6 Z M 1.046875 -6 "/></g></g><g style="fill:#000000;fill-opacity:1;"><g transform="translate(92.036815, 66.572766)"><path style="stroke:none" d="M 1.265625 -0.703125 C 0.597656 -1.296875 0.265625 -2.054688 0.265625 -2.984375 C 0.265625 -3.921875 0.609375 -4.6875 1.296875 -5.28125 C 1.992188 -5.875 2.851562 -6.171875 3.875 -6.171875 C 4.882812 -6.171875 5.734375 -5.867188 6.421875 -5.265625 C 7.109375 -4.671875 7.453125 -3.910156 7.453125 -2.984375 C 7.453125 -2.066406 7.113281 -1.3125 6.4375 -0.71875 C 5.769531 -0.125 4.914062 0.171875 3.875 0.171875 C 2.800781 0.171875 1.929688 -0.117188 1.265625 -0.703125 Z M 2.859375 -4 C 2.597656 -3.738281 2.46875 -3.398438 2.46875 -2.984375 C 2.46875 -2.578125 2.59375 -2.242188 2.84375 -1.984375 C 3.101562 -1.722656 3.445312 -1.59375 3.875 -1.59375 C 4.269531 -1.59375 4.597656 -1.722656 4.859375 -1.984375 C 5.128906 -2.253906 5.265625 -2.585938 5.265625 -2.984375 C 5.265625 -3.398438 5.128906 -3.738281 4.859375 -4 C 4.585938 -4.269531 4.257812 -4.40625 3.875 -4.40625 C 3.46875 -4.40625 3.128906 -4.269531 2.859375 -4 Z M 2.859375 -4 "/></g></g><g style="fill:#000000;fill-opacity:1;"><g transform="translate(99.764066, 66.572766)"><path style="stroke:none" d=""/></g></g><g style="fill:#000000;fill-opacity:1;"><g transform="translate(102.955508, 66.572766)"><path style="stroke:none" d="M 0.703125 0 L 0.703125 -10.046875 L 2.765625 -10.046875 L 2.765625 -5.359375 L 2.796875 -5.359375 C 3.328125 -5.898438 3.898438 -6.171875 4.515625 -6.171875 C 4.804688 -6.171875 5.097656 -6.128906 5.390625 -6.046875 C 5.679688 -5.972656 5.960938 -5.851562 6.234375 -5.6875 C 6.503906 -5.53125 6.722656 -5.300781 6.890625 -5 C 7.054688 -4.695312 7.140625 -4.347656 7.140625 -3.953125 L 7.140625 0 L 5.078125 0 L 5.078125 -3.390625 C 5.078125 -3.703125 4.972656 -3.972656 4.765625 -4.203125 C 4.566406 -4.441406 4.3125 -4.5625 4 -4.5625 C 3.6875 -4.5625 3.398438 -4.4375 3.140625 -4.1875 C 2.890625 -3.945312 2.765625 -3.679688 2.765625 -3.390625 L 2.765625 0 Z M 0.703125 0 "/></g></g><g style="fill:#000000;fill-opacity:1;"><g transform="translate(110.682759, 66.572766)"><path style="stroke:none" d="M 0.890625 -9.328125 C 1.140625 -9.578125 1.429688 -9.703125 1.765625 -9.703125 C 2.097656 -9.703125 2.382812 -9.578125 2.625 -9.328125 C 2.863281 -9.085938 2.984375 -8.800781 2.984375 -8.46875 C 2.984375 -8.132812 2.863281 -7.847656 2.625 -7.609375 C 2.382812 -7.367188 2.097656 -7.25 1.765625 -7.25 C 1.429688 -7.25 1.140625 -7.367188 0.890625 -7.609375 C 0.648438 -7.847656 0.53125 -8.132812 0.53125 -8.46875 C 0.53125 -8.800781 0.648438 -9.085938 0.890625 -9.328125 Z M 0.703125 -6 L 0.703125 0 L 2.765625 0 L 2.765625 -6 Z M 0.703125 -6 "/></g></g><g style="fill:#000000;fill-opacity:1;"><g transform="translate(114.213212, 66.572766)"><path style="stroke:none" d="M 3.3125 -6.171875 C 3.65625 -6.171875 3.992188 -6.128906 4.328125 -6.046875 C 4.660156 -5.972656 4.910156 -5.898438 5.078125 -5.828125 L 5.3125 -5.703125 L 4.640625 -4.34375 C 4.171875 -4.59375 3.726562 -4.71875 3.3125 -4.71875 C 3.070312 -4.71875 2.90625 -4.691406 2.8125 -4.640625 C 2.71875 -4.585938 2.671875 -4.492188 2.671875 -4.359375 C 2.671875 -4.328125 2.671875 -4.296875 2.671875 -4.265625 C 2.679688 -4.234375 2.695312 -4.203125 2.71875 -4.171875 C 2.75 -4.148438 2.769531 -4.128906 2.78125 -4.109375 C 2.800781 -4.085938 2.832031 -4.066406 2.875 -4.046875 C 2.925781 -4.023438 2.960938 -4.003906 2.984375 -3.984375 C 3.015625 -3.972656 3.0625 -3.957031 3.125 -3.9375 C 3.1875 -3.914062 3.234375 -3.898438 3.265625 -3.890625 C 3.296875 -3.878906 3.347656 -3.859375 3.421875 -3.828125 C 3.503906 -3.804688 3.5625 -3.789062 3.59375 -3.78125 C 3.84375 -3.71875 4.054688 -3.640625 4.234375 -3.546875 C 4.410156 -3.460938 4.597656 -3.347656 4.796875 -3.203125 C 4.992188 -3.054688 5.144531 -2.867188 5.25 -2.640625 C 5.363281 -2.410156 5.421875 -2.15625 5.421875 -1.875 C 5.421875 -0.507812 4.472656 0.171875 2.578125 0.171875 C 2.148438 0.171875 1.742188 0.109375 1.359375 -0.015625 C 0.972656 -0.148438 0.695312 -0.285156 0.53125 -0.421875 L 0.265625 -0.625 L 1.109375 -2.046875 C 1.171875 -1.992188 1.25 -1.925781 1.34375 -1.84375 C 1.445312 -1.769531 1.628906 -1.671875 1.890625 -1.546875 C 2.160156 -1.421875 2.394531 -1.359375 2.59375 -1.359375 C 3.019531 -1.359375 3.234375 -1.5 3.234375 -1.78125 C 3.234375 -1.914062 3.175781 -2.019531 3.0625 -2.09375 C 2.957031 -2.164062 2.773438 -2.25 2.515625 -2.34375 C 2.253906 -2.4375 2.050781 -2.523438 1.90625 -2.609375 C 1.53125 -2.804688 1.234375 -3.023438 1.015625 -3.265625 C 0.796875 -3.515625 0.6875 -3.84375 0.6875 -4.25 C 0.6875 -4.851562 0.921875 -5.320312 1.390625 -5.65625 C 1.867188 -6 2.507812 -6.171875 3.3125 -6.171875 Z M 3.3125 -6.171875 "/></g></g><g style="fill:#000000;fill-opacity:1;"><g transform="translate(19.904501, 82.854376)"><path style="stroke:none" d="M 0.703125 0 L 0.703125 -6 L 2.765625 -6 L 2.765625 -5.125 L 2.796875 -5.125 C 2.804688 -5.15625 2.828125 -5.191406 2.859375 -5.234375 C 2.898438 -5.285156 2.976562 -5.367188 3.09375 -5.484375 C 3.207031 -5.609375 3.332031 -5.71875 3.46875 -5.8125 C 3.601562 -5.90625 3.773438 -5.988281 3.984375 -6.0625 C 4.191406 -6.132812 4.40625 -6.171875 4.625 -6.171875 C 4.851562 -6.171875 5.078125 -6.140625 5.296875 -6.078125 C 5.515625 -6.015625 5.675781 -5.953125 5.78125 -5.890625 L 5.9375 -5.796875 L 5.078125 -4.046875 C 4.816406 -4.265625 4.457031 -4.375 4 -4.375 C 3.75 -4.375 3.53125 -4.316406 3.34375 -4.203125 C 3.164062 -4.097656 3.039062 -3.96875 2.96875 -3.8125 C 2.894531 -3.65625 2.84375 -3.519531 2.8125 -3.40625 C 2.78125 -3.300781 2.765625 -3.21875 2.765625 -3.15625 L 2.765625 0 Z M 0.703125 0 "/></g></g><g style="fill:#000000;fill-opacity:1;"><g transform="translate(25.726247, 82.854376)"><path style="stroke:none" d="M 0.890625 -9.328125 C 1.140625 -9.578125 1.429688 -9.703125 1.765625 -9.703125 C 2.097656 -9.703125 2.382812 -9.578125 2.625 -9.328125 C 2.863281 -9.085938 2.984375 -8.800781 2.984375 -8.46875 C 2.984375 -8.132812 2.863281 -7.847656 2.625 -7.609375 C 2.382812 -7.367188 2.097656 -7.25 1.765625 -7.25 C 1.429688 -7.25 1.140625 -7.367188 0.890625 -7.609375 C 0.648438 -7.847656 0.53125 -8.132812 0.53125 -8.46875 C 0.53125 -8.800781 0.648438 -9.085938 0.890625 -9.328125 Z M 0.703125 -6 L 0.703125 0 L 2.765625 0 L 2.765625 -6 Z M 0.703125 -6 "/></g></g><g style="fill:#000000;fill-opacity:1;"><g transform="translate(29.2567, 82.854376)"><path style="stroke:none" d="M 3.890625 -4.46875 C 3.503906 -4.46875 3.171875 -4.320312 2.890625 -4.03125 C 2.609375 -3.75 2.46875 -3.40625 2.46875 -3 C 2.46875 -2.59375 2.609375 -2.242188 2.890625 -1.953125 C 3.171875 -1.660156 3.503906 -1.515625 3.890625 -1.515625 C 4.078125 -1.515625 4.253906 -1.535156 4.421875 -1.578125 C 4.585938 -1.628906 4.710938 -1.679688 4.796875 -1.734375 L 4.890625 -1.796875 L 5.59375 -0.359375 C 5.539062 -0.316406 5.460938 -0.265625 5.359375 -0.203125 C 5.265625 -0.148438 5.046875 -0.078125 4.703125 0.015625 C 4.359375 0.117188 3.988281 0.171875 3.59375 0.171875 C 2.707031 0.171875 1.929688 -0.132812 1.265625 -0.75 C 0.597656 -1.375 0.265625 -2.117188 0.265625 -2.984375 C 0.265625 -3.859375 0.597656 -4.609375 1.265625 -5.234375 C 1.929688 -5.859375 2.707031 -6.171875 3.59375 -6.171875 C 3.988281 -6.171875 4.351562 -6.125 4.6875 -6.03125 C 5.019531 -5.9375 5.257812 -5.84375 5.40625 -5.75 L 5.59375 -5.609375 L 4.890625 -4.203125 C 4.640625 -4.378906 4.304688 -4.46875 3.890625 -4.46875 Z M 3.890625 -4.46875 "/></g></g><g style="fill:#000000;fill-opacity:1;"><g transform="translate(34.996616, 82.854376)"><path style="stroke:none" d="M 0.703125 0 L 0.703125 -10.046875 L 2.765625 -10.046875 L 2.765625 -5.359375 L 2.796875 -5.359375 C 3.328125 -5.898438 3.898438 -6.171875 4.515625 -6.171875 C 4.804688 -6.171875 5.097656 -6.128906 5.390625 -6.046875 C 5.679688 -5.972656 5.960938 -5.851562 6.234375 -5.6875 C 6.503906 -5.53125 6.722656 -5.300781 6.890625 -5 C 7.054688 -4.695312 7.140625 -4.347656 7.140625 -3.953125 L 7.140625 0 L 5.078125 0 L 5.078125 -3.390625 C 5.078125 -3.703125 4.972656 -3.972656 4.765625 -4.203125 C 4.566406 -4.441406 4.3125 -4.5625 4 -4.5625 C 3.6875 -4.5625 3.398438 -4.4375 3.140625 -4.1875 C 2.890625 -3.945312 2.765625 -3.679688 2.765625 -3.390625 L 2.765625 0 Z M 0.703125 0 "/></g></g><g style="fill:#000000;fill-opacity:1;"><g transform="translate(42.723867, 82.854376)"><path style="stroke:none" d="M 6.765625 -2.71875 L 2.421875 -2.71875 C 2.421875 -2.289062 2.554688 -1.972656 2.828125 -1.765625 C 3.097656 -1.566406 3.394531 -1.46875 3.71875 -1.46875 C 4.050781 -1.46875 4.3125 -1.507812 4.5 -1.59375 C 4.695312 -1.6875 4.921875 -1.867188 5.171875 -2.140625 L 6.671875 -1.390625 C 6.046875 -0.347656 5.007812 0.171875 3.5625 0.171875 C 2.65625 0.171875 1.878906 -0.132812 1.234375 -0.75 C 0.585938 -1.375 0.265625 -2.117188 0.265625 -2.984375 C 0.265625 -3.859375 0.585938 -4.609375 1.234375 -5.234375 C 1.878906 -5.859375 2.65625 -6.171875 3.5625 -6.171875 C 4.507812 -6.171875 5.28125 -5.894531 5.875 -5.34375 C 6.476562 -4.789062 6.78125 -4.003906 6.78125 -2.984375 C 6.78125 -2.847656 6.773438 -2.757812 6.765625 -2.71875 Z M 2.484375 -3.859375 L 4.75 -3.859375 C 4.707031 -4.171875 4.585938 -4.410156 4.390625 -4.578125 C 4.191406 -4.742188 3.9375 -4.828125 3.625 -4.828125 C 3.28125 -4.828125 3.003906 -4.738281 2.796875 -4.5625 C 2.597656 -4.382812 2.492188 -4.148438 2.484375 -3.859375 Z M 2.484375 -3.859375 "/></g></g><g style="fill:#000000;fill-opacity:1;"><g transform="translate(49.726319, 82.854376)"><path style="stroke:none" d="M 3.3125 -6.171875 C 3.65625 -6.171875 3.992188 -6.128906 4.328125 -6.046875 C 4.660156 -5.972656 4.910156 -5.898438 5.078125 -5.828125 L 5.3125 -5.703125 L 4.640625 -4.34375 C 4.171875 -4.59375 3.726562 -4.71875 3.3125 -4.71875 C 3.070312 -4.71875 2.90625 -4.691406 2.8125 -4.640625 C 2.71875 -4.585938 2.671875 -4.492188 2.671875 -4.359375 C 2.671875 -4.328125 2.671875 -4.296875 2.671875 -4.265625 C 2.679688 -4.234375 2.695312 -4.203125 2.71875 -4.171875 C 2.75 -4.148438 2.769531 -4.128906 2.78125 -4.109375 C 2.800781 -4.085938 2.832031 -4.066406 2.875 -4.046875 C 2.925781 -4.023438 2.960938 -4.003906 2.984375 -3.984375 C 3.015625 -3.972656 3.0625 -3.957031 3.125 -3.9375 C 3.1875 -3.914062 3.234375 -3.898438 3.265625 -3.890625 C 3.296875 -3.878906 3.347656 -3.859375 3.421875 -3.828125 C 3.503906 -3.804688 3.5625 -3.789062 3.59375 -3.78125 C 3.84375 -3.71875 4.054688 -3.640625 4.234375 -3.546875 C 4.410156 -3.460938 4.597656 -3.347656 4.796875 -3.203125 C 4.992188 -3.054688 5.144531 -2.867188 5.25 -2.640625 C 5.363281 -2.410156 5.421875 -2.15625 5.421875 -1.875 C 5.421875 -0.507812 4.472656 0.171875 2.578125 0.171875 C 2.148438 0.171875 1.742188 0.109375 1.359375 -0.015625 C 0.972656 -0.148438 0.695312 -0.285156 0.53125 -0.421875 L 0.265625 -0.625 L 1.109375 -2.046875 C 1.171875 -1.992188 1.25 -1.925781 1.34375 -1.84375 C 1.445312 -1.769531 1.628906 -1.671875 1.890625 -1.546875 C 2.160156 -1.421875 2.394531 -1.359375 2.59375 -1.359375 C 3.019531 -1.359375 3.234375 -1.5 3.234375 -1.78125 C 3.234375 -1.914062 3.175781 -2.019531 3.0625 -2.09375 C 2.957031 -2.164062 2.773438 -2.25 2.515625 -2.34375 C 2.253906 -2.4375 2.050781 -2.523438 1.90625 -2.609375 C 1.53125 -2.804688 1.234375 -3.023438 1.015625 -3.265625 C 0.796875 -3.515625 0.6875 -3.84375 0.6875 -4.25 C 0.6875 -4.851562 0.921875 -5.320312 1.390625 -5.65625 C 1.867188 -6 2.507812 -6.171875 3.3125 -6.171875 Z M 3.3125 -6.171875 "/></g></g><g style="fill:#000000;fill-opacity:1;"><g transform="translate(55.477923, 82.854376)"><path style="stroke:none" d=""/></g></g><g style="fill:#000000;fill-opacity:1;"><g transform="translate(58.669365, 82.854376)"><path style="stroke:none" d="M 0.890625 -9.328125 C 1.140625 -9.578125 1.429688 -9.703125 1.765625 -9.703125 C 2.097656 -9.703125 2.382812 -9.578125 2.625 -9.328125 C 2.863281 -9.085938 2.984375 -8.800781 2.984375 -8.46875 C 2.984375 -8.132812 2.863281 -7.847656 2.625 -7.609375 C 2.382812 -7.367188 2.097656 -7.25 1.765625 -7.25 C 1.429688 -7.25 1.140625 -7.367188 0.890625 -7.609375 C 0.648438 -7.847656 0.53125 -8.132812 0.53125 -8.46875 C 0.53125 -8.800781 0.648438 -9.085938 0.890625 -9.328125 Z M 0.703125 -6 L 0.703125 0 L 2.765625 0 L 2.765625 -6 Z M 0.703125 -6 "/></g></g><g style="fill:#000000;fill-opacity:1;"><g transform="translate(62.199818, 82.854376)"><path style="stroke:none" d="M 0.703125 0 L 0.703125 -6 L 2.765625 -6 L 2.765625 -5.359375 L 2.796875 -5.359375 C 3.328125 -5.898438 3.898438 -6.171875 4.515625 -6.171875 C 4.804688 -6.171875 5.097656 -6.128906 5.390625 -6.046875 C 5.679688 -5.972656 5.960938 -5.851562 6.234375 -5.6875 C 6.503906 -5.53125 6.722656 -5.300781 6.890625 -5 C 7.054688 -4.695312 7.140625 -4.347656 7.140625 -3.953125 L 7.140625 0 L 5.078125 0 L 5.078125 -3.390625 C 5.078125 -3.703125 4.972656 -3.972656 4.765625 -4.203125 C 4.566406 -4.441406 4.3125 -4.5625 4 -4.5625 C 3.6875 -4.5625 3.398438 -4.4375 3.140625 -4.1875 C 2.890625 -3.945312 2.765625 -3.679688 2.765625 -3.390625 L 2.765625 0 Z M 0.703125 0 "/></g></g><g style="fill:#000000;fill-opacity:1;"><g transform="translate(69.927069, 82.854376)"><path style="stroke:none" d=""/></g></g><g style="fill:#000000;fill-opacity:1;"><g transform="translate(73.118511, 82.854376)"><path style="stroke:none" d="M 0.4375 1.46875 L 2.125 0.640625 C 2.4375 1.160156 2.976562 1.421875 3.75 1.421875 C 4.113281 1.421875 4.445312 1.300781 4.75 1.0625 C 5.0625 0.832031 5.21875 0.484375 5.21875 0.015625 L 5.21875 -0.4375 C 4.84375 -0.03125 4.1875 0.171875 3.25 0.171875 C 2.382812 0.171875 1.671875 -0.128906 1.109375 -0.734375 C 0.546875 -1.347656 0.265625 -2.097656 0.265625 -2.984375 C 0.265625 -3.878906 0.546875 -4.632812 1.109375 -5.25 C 1.671875 -5.863281 2.382812 -6.171875 3.25 -6.171875 C 4.019531 -6.171875 4.660156 -5.929688 5.171875 -5.453125 L 5.21875 -5.453125 L 5.21875 -6 L 7.28125 -6 L 7.28125 0.15625 C 7.28125 1.132812 6.957031 1.890625 6.3125 2.421875 C 5.664062 2.953125 4.8125 3.21875 3.75 3.21875 C 2.039062 3.21875 0.9375 2.632812 0.4375 1.46875 Z M 2.859375 -4 C 2.597656 -3.738281 2.46875 -3.398438 2.46875 -2.984375 C 2.46875 -2.578125 2.59375 -2.242188 2.84375 -1.984375 C 3.101562 -1.722656 3.445312 -1.59375 3.875 -1.59375 C 4.269531 -1.59375 4.597656 -1.722656 4.859375 -1.984375 C 5.128906 -2.253906 5.265625 -2.585938 5.265625 -2.984375 C 5.265625 -3.398438 5.128906 -3.738281 4.859375 -4 C 4.585938 -4.269531 4.257812 -4.40625 3.875 -4.40625 C 3.46875 -4.40625 3.128906 -4.269531 2.859375 -4 Z M 2.859375 -4 "/></g></g><g style="fill:#000000;fill-opacity:1;"><g transform="translate(81.102955, 82.854376)"><path style="stroke:none" d="M 0.703125 0 L 0.703125 -10.046875 L 2.765625 -10.046875 L 2.765625 0 Z M 0.703125 0 "/></g></g><g style="fill:#000000;fill-opacity:1;"><g transform="translate(84.574954, 82.854376)"><path style="stroke:none" d="M 1.265625 -0.703125 C 0.597656 -1.296875 0.265625 -2.054688 0.265625 -2.984375 C 0.265625 -3.921875 0.609375 -4.6875 1.296875 -5.28125 C 1.992188 -5.875 2.851562 -6.171875 3.875 -6.171875 C 4.882812 -6.171875 5.734375 -5.867188 6.421875 -5.265625 C 7.109375 -4.671875 7.453125 -3.910156 7.453125 -2.984375 C 7.453125 -2.066406 7.113281 -1.3125 6.4375 -0.71875 C 5.769531 -0.125 4.914062 0.171875 3.875 0.171875 C 2.800781 0.171875 1.929688 -0.117188 1.265625 -0.703125 Z M 2.859375 -4 C 2.597656 -3.738281 2.46875 -3.398438 2.46875 -2.984375 C 2.46875 -2.578125 2.59375 -2.242188 2.84375 -1.984375 C 3.101562 -1.722656 3.445312 -1.59375 3.875 -1.59375 C 4.269531 -1.59375 4.597656 -1.722656 4.859375 -1.984375 C 5.128906 -2.253906 5.265625 -2.585938 5.265625 -2.984375 C 5.265625 -3.398438 5.128906 -3.738281 4.859375 -4 C 4.585938 -4.269531 4.257812 -4.40625 3.875 -4.40625 C 3.46875 -4.40625 3.128906 -4.269531 2.859375 -4 Z M 2.859375 -4 "/></g></g><g style="fill:#000000;fill-opacity:1;"><g transform="translate(92.278817, 82.854376)"><path style="stroke:none" d="M 0.703125 0 L 0.703125 -6 L 2.765625 -6 L 2.765625 -5.125 L 2.796875 -5.125 C 2.804688 -5.15625 2.828125 -5.191406 2.859375 -5.234375 C 2.898438 -5.285156 2.976562 -5.367188 3.09375 -5.484375 C 3.207031 -5.609375 3.332031 -5.71875 3.46875 -5.8125 C 3.601562 -5.90625 3.773438 -5.988281 3.984375 -6.0625 C 4.191406 -6.132812 4.40625 -6.171875 4.625 -6.171875 C 4.851562 -6.171875 5.078125 -6.140625 5.296875 -6.078125 C 5.515625 -6.015625 5.675781 -5.953125 5.78125 -5.890625 L 5.9375 -5.796875 L 5.078125 -4.046875 C 4.816406 -4.265625 4.457031 -4.375 4 -4.375 C 3.75 -4.375 3.53125 -4.316406 3.34375 -4.203125 C 3.164062 -4.097656 3.039062 -3.96875 2.96875 -3.8125 C 2.894531 -3.65625 2.84375 -3.519531 2.8125 -3.40625 C 2.78125 -3.300781 2.765625 -3.21875 2.765625 -3.15625 L 2.765625 0 Z M 0.703125 0 "/></g></g><g style="fill:#000000;fill-opacity:1;"><g transform="translate(98.100563, 82.854376)"><path style="stroke:none" d="M 5.25 -6 L 7.625 -6 L 2.921875 3.03125 L 0.53125 3.03125 L 2.609375 -0.9375 L -0.234375 -6 L 2.15625 -6 L 3.828125 -2.921875 Z M 5.25 -6 "/></g></g><g style="fill:#000000;fill-opacity:1;"><g transform="translate(105.500492, 82.854376)"><path style="stroke:none" d=""/></g></g><g style="fill:#000000;fill-opacity:1;"><g transform="translate(108.691934, 82.854376)"><path style="stroke:none" d="M 6.875 -5.25 C 7.4375 -4.632812 7.71875 -3.878906 7.71875 -2.984375 C 7.71875 -2.097656 7.4375 -1.347656 6.875 -0.734375 C 6.3125 -0.128906 5.597656 0.171875 4.734375 0.171875 C 3.941406 0.171875 3.285156 -0.109375 2.765625 -0.671875 L 2.75 -0.671875 L 2.75 0 L 0.703125 0 L 0.703125 -10.046875 L 2.765625 -10.046875 L 2.765625 -5.421875 C 3.285156 -5.921875 3.941406 -6.171875 4.734375 -6.171875 C 5.597656 -6.171875 6.3125 -5.863281 6.875 -5.25 Z M 5.125 -1.984375 C 5.382812 -2.242188 5.515625 -2.578125 5.515625 -2.984375 C 5.515625 -3.398438 5.378906 -3.738281 5.109375 -4 C 4.835938 -4.269531 4.503906 -4.40625 4.109375 -4.40625 C 3.722656 -4.40625 3.394531 -4.269531 3.125 -4 C 2.851562 -3.738281 2.71875 -3.398438 2.71875 -2.984375 C 2.71875 -2.585938 2.847656 -2.253906 3.109375 -1.984375 C 3.367188 -1.722656 3.703125 -1.59375 4.109375 -1.59375 C 4.535156 -1.59375 4.875 -1.722656 5.125 -1.984375 Z M 5.125 -1.984375 "/></g></g><g style="fill:#000000;fill-opacity:1;"><g transform="translate(116.676377, 82.854376)"><path style="stroke:none" d="M 5.25 -6 L 7.625 -6 L 2.921875 3.03125 L 0.53125 3.03125 L 2.609375 -0.9375 L -0.234375 -6 L 2.15625 -6 L 3.828125 -2.921875 Z M 5.25 -6 "/></g></g><g style="fill:#000000;fill-opacity:1;"><g transform="translate(31.291937, 99.135987)"><path style="stroke:none" d="M 5.828125 -1.984375 C 6.160156 -1.984375 6.484375 -2.035156 6.796875 -2.140625 C 7.117188 -2.242188 7.351562 -2.34375 7.5 -2.4375 L 7.71875 -2.578125 L 8.65625 -0.71875 C 8.625 -0.6875 8.582031 -0.648438 8.53125 -0.609375 C 8.476562 -0.578125 8.351562 -0.507812 8.15625 -0.40625 C 7.957031 -0.300781 7.742188 -0.207031 7.515625 -0.125 C 7.285156 -0.0507812 6.988281 0.015625 6.625 0.078125 C 6.257812 0.140625 5.882812 0.171875 5.5 0.171875 C 4.601562 0.171875 3.75 -0.046875 2.9375 -0.484375 C 2.132812 -0.921875 1.488281 -1.523438 1 -2.296875 C 0.507812 -3.066406 0.265625 -3.898438 0.265625 -4.796875 C 0.265625 -5.484375 0.410156 -6.132812 0.703125 -6.75 C 0.992188 -7.375 1.378906 -7.90625 1.859375 -8.34375 C 2.335938 -8.789062 2.894531 -9.144531 3.53125 -9.40625 C 4.164062 -9.675781 4.820312 -9.8125 5.5 -9.8125 C 6.113281 -9.8125 6.679688 -9.738281 7.203125 -9.59375 C 7.734375 -9.445312 8.109375 -9.300781 8.328125 -9.15625 L 8.65625 -8.921875 L 7.71875 -7.0625 C 7.664062 -7.101562 7.582031 -7.15625 7.46875 -7.21875 C 7.363281 -7.289062 7.144531 -7.378906 6.8125 -7.484375 C 6.488281 -7.597656 6.160156 -7.65625 5.828125 -7.65625 C 5.296875 -7.65625 4.820312 -7.566406 4.40625 -7.390625 C 3.988281 -7.222656 3.65625 -7 3.40625 -6.71875 C 3.15625 -6.4375 2.96875 -6.132812 2.84375 -5.8125 C 2.71875 -5.488281 2.65625 -5.160156 2.65625 -4.828125 C 2.65625 -4.097656 2.925781 -3.441406 3.46875 -2.859375 C 4.019531 -2.273438 4.804688 -1.984375 5.828125 -1.984375 Z M 5.828125 -1.984375 "/></g></g><g style="fill:#000000;fill-opacity:1;"><g transform="translate(40.094699, 99.135987)"><path style="stroke:none" d="M 0.703125 0 L 0.703125 -10.046875 L 2.765625 -10.046875 L 2.765625 -5.359375 L 2.796875 -5.359375 C 3.328125 -5.898438 3.898438 -6.171875 4.515625 -6.171875 C 4.804688 -6.171875 5.097656 -6.128906 5.390625 -6.046875 C 5.679688 -5.972656 5.960938 -5.851562 6.234375 -5.6875 C 6.503906 -5.53125 6.722656 -5.300781 6.890625 -5 C 7.054688 -4.695312 7.140625 -4.347656 7.140625 -3.953125 L 7.140625 0 L 5.078125 0 L 5.078125 -3.390625 C 5.078125 -3.703125 4.972656 -3.972656 4.765625 -4.203125 C 4.566406 -4.441406 4.3125 -4.5625 4 -4.5625 C 3.6875 -4.5625 3.398438 -4.4375 3.140625 -4.1875 C 2.890625 -3.945312 2.765625 -3.679688 2.765625 -3.390625 L 2.765625 0 Z M 0.703125 0 "/></g></g><g style="fill:#000000;fill-opacity:1;"><g transform="translate(47.82195, 99.135987)"><path style="stroke:none" d="M 0.703125 0 L 0.703125 -6 L 2.765625 -6 L 2.765625 -5.125 L 2.796875 -5.125 C 2.804688 -5.15625 2.828125 -5.191406 2.859375 -5.234375 C 2.898438 -5.285156 2.976562 -5.367188 3.09375 -5.484375 C 3.207031 -5.609375 3.332031 -5.71875 3.46875 -5.8125 C 3.601562 -5.90625 3.773438 -5.988281 3.984375 -6.0625 C 4.191406 -6.132812 4.40625 -6.171875 4.625 -6.171875 C 4.851562 -6.171875 5.078125 -6.140625 5.296875 -6.078125 C 5.515625 -6.015625 5.675781 -5.953125 5.78125 -5.890625 L 5.9375 -5.796875 L 5.078125 -4.046875 C 4.816406 -4.265625 4.457031 -4.375 4 -4.375 C 3.75 -4.375 3.53125 -4.316406 3.34375 -4.203125 C 3.164062 -4.097656 3.039062 -3.96875 2.96875 -3.8125 C 2.894531 -3.65625 2.84375 -3.519531 2.8125 -3.40625 C 2.78125 -3.300781 2.765625 -3.21875 2.765625 -3.15625 L 2.765625 0 Z M 0.703125 0 "/></g></g><g style="fill:#000000;fill-opacity:1;"><g transform="translate(53.643696, 99.135987)"><path style="stroke:none" d="M 0.890625 -9.328125 C 1.140625 -9.578125 1.429688 -9.703125 1.765625 -9.703125 C 2.097656 -9.703125 2.382812 -9.578125 2.625 -9.328125 C 2.863281 -9.085938 2.984375 -8.800781 2.984375 -8.46875 C 2.984375 -8.132812 2.863281 -7.847656 2.625 -7.609375 C 2.382812 -7.367188 2.097656 -7.25 1.765625 -7.25 C 1.429688 -7.25 1.140625 -7.367188 0.890625 -7.609375 C 0.648438 -7.847656 0.53125 -8.132812 0.53125 -8.46875 C 0.53125 -8.800781 0.648438 -9.085938 0.890625 -9.328125 Z M 0.703125 -6 L 0.703125 0 L 2.765625 0 L 2.765625 -6 Z M 0.703125 -6 "/></g></g><g style="fill:#000000;fill-opacity:1;"><g transform="translate(57.174149, 99.135987)"><path style="stroke:none" d="M 3.3125 -6.171875 C 3.65625 -6.171875 3.992188 -6.128906 4.328125 -6.046875 C 4.660156 -5.972656 4.910156 -5.898438 5.078125 -5.828125 L 5.3125 -5.703125 L 4.640625 -4.34375 C 4.171875 -4.59375 3.726562 -4.71875 3.3125 -4.71875 C 3.070312 -4.71875 2.90625 -4.691406 2.8125 -4.640625 C 2.71875 -4.585938 2.671875 -4.492188 2.671875 -4.359375 C 2.671875 -4.328125 2.671875 -4.296875 2.671875 -4.265625 C 2.679688 -4.234375 2.695312 -4.203125 2.71875 -4.171875 C 2.75 -4.148438 2.769531 -4.128906 2.78125 -4.109375 C 2.800781 -4.085938 2.832031 -4.066406 2.875 -4.046875 C 2.925781 -4.023438 2.960938 -4.003906 2.984375 -3.984375 C 3.015625 -3.972656 3.0625 -3.957031 3.125 -3.9375 C 3.1875 -3.914062 3.234375 -3.898438 3.265625 -3.890625 C 3.296875 -3.878906 3.347656 -3.859375 3.421875 -3.828125 C 3.503906 -3.804688 3.5625 -3.789062 3.59375 -3.78125 C 3.84375 -3.71875 4.054688 -3.640625 4.234375 -3.546875 C 4.410156 -3.460938 4.597656 -3.347656 4.796875 -3.203125 C 4.992188 -3.054688 5.144531 -2.867188 5.25 -2.640625 C 5.363281 -2.410156 5.421875 -2.15625 5.421875 -1.875 C 5.421875 -0.507812 4.472656 0.171875 2.578125 0.171875 C 2.148438 0.171875 1.742188 0.109375 1.359375 -0.015625 C 0.972656 -0.148438 0.695312 -0.285156 0.53125 -0.421875 L 0.265625 -0.625 L 1.109375 -2.046875 C 1.171875 -1.992188 1.25 -1.925781 1.34375 -1.84375 C 1.445312 -1.769531 1.628906 -1.671875 1.890625 -1.546875 C 2.160156 -1.421875 2.394531 -1.359375 2.59375 -1.359375 C 3.019531 -1.359375 3.234375 -1.5 3.234375 -1.78125 C 3.234375 -1.914062 3.175781 -2.019531 3.0625 -2.09375 C 2.957031 -2.164062 2.773438 -2.25 2.515625 -2.34375 C 2.253906 -2.4375 2.050781 -2.523438 1.90625 -2.609375 C 1.53125 -2.804688 1.234375 -3.023438 1.015625 -3.265625 C 0.796875 -3.515625 0.6875 -3.84375 0.6875 -4.25 C 0.6875 -4.851562 0.921875 -5.320312 1.390625 -5.65625 C 1.867188 -6 2.507812 -6.171875 3.3125 -6.171875 Z M 3.3125 -6.171875 "/></g></g><g style="fill:#000000;fill-opacity:1;"><g transform="translate(62.820522, 99.135987)"><path style="stroke:none" d="M 1.046875 -6 L 1.046875 -8.234375 L 3.125 -8.234375 L 3.125 -6 L 4.390625 -6 L 4.390625 -4.421875 L 3.125 -4.421875 L 3.125 -2.515625 C 3.125 -1.960938 3.28125 -1.6875 3.59375 -1.6875 C 3.664062 -1.6875 3.742188 -1.703125 3.828125 -1.734375 C 3.921875 -1.765625 3.988281 -1.796875 4.03125 -1.828125 L 4.109375 -1.875 L 4.609375 -0.203125 C 4.171875 0.046875 3.664062 0.171875 3.09375 0.171875 C 2.707031 0.171875 2.375 0.101562 2.09375 -0.03125 C 1.8125 -0.164062 1.597656 -0.347656 1.453125 -0.578125 C 1.304688 -0.804688 1.203125 -1.046875 1.140625 -1.296875 C 1.078125 -1.554688 1.046875 -1.828125 1.046875 -2.109375 L 1.046875 -4.421875 L 0.1875 -4.421875 L 0.1875 -6 Z M 1.046875 -6 "/></g></g><g style="fill:#000000;fill-opacity:1;"><g transform="translate(67.438174, 99.135987)"><path style="stroke:none" d=""/></g></g><g style="fill:#000000;fill-opacity:1;"><g transform="translate(70.629616, 99.135987)"><path style="stroke:none" d="M 4.890625 -9.640625 L 4.890625 -2.71875 C 4.890625 -1.78125 4.628906 -1.0625 4.109375 -0.5625 C 3.597656 -0.0703125 2.859375 0.171875 1.890625 0.171875 C 1.628906 0.171875 1.375 0.140625 1.125 0.078125 C 0.882812 0.015625 0.675781 -0.0546875 0.5 -0.140625 C 0.332031 -0.234375 0.179688 -0.328125 0.046875 -0.421875 C -0.0859375 -0.515625 -0.1875 -0.59375 -0.25 -0.65625 L -0.359375 -0.75 L 0.34375 -2.578125 C 0.800781 -2.140625 1.21875 -1.921875 1.59375 -1.921875 C 1.925781 -1.921875 2.191406 -2.03125 2.390625 -2.25 C 2.597656 -2.476562 2.703125 -2.820312 2.703125 -3.28125 L 2.703125 -9.640625 Z M 4.890625 -9.640625 "/></g></g><g style="fill:#000000;fill-opacity:1;"><g transform="translate(76.112339, 99.135987)"><path style="stroke:none" d="M 6.765625 -2.71875 L 2.421875 -2.71875 C 2.421875 -2.289062 2.554688 -1.972656 2.828125 -1.765625 C 3.097656 -1.566406 3.394531 -1.46875 3.71875 -1.46875 C 4.050781 -1.46875 4.3125 -1.507812 4.5 -1.59375 C 4.695312 -1.6875 4.921875 -1.867188 5.171875 -2.140625 L 6.671875 -1.390625 C 6.046875 -0.347656 5.007812 0.171875 3.5625 0.171875 C 2.65625 0.171875 1.878906 -0.132812 1.234375 -0.75 C 0.585938 -1.375 0.265625 -2.117188 0.265625 -2.984375 C 0.265625 -3.859375 0.585938 -4.609375 1.234375 -5.234375 C 1.878906 -5.859375 2.65625 -6.171875 3.5625 -6.171875 C 4.507812 -6.171875 5.28125 -5.894531 5.875 -5.34375 C 6.476562 -4.789062 6.78125 -4.003906 6.78125 -2.984375 C 6.78125 -2.847656 6.773438 -2.757812 6.765625 -2.71875 Z M 2.484375 -3.859375 L 4.75 -3.859375 C 4.707031 -4.171875 4.585938 -4.410156 4.390625 -4.578125 C 4.191406 -4.742188 3.9375 -4.828125 3.625 -4.828125 C 3.28125 -4.828125 3.003906 -4.738281 2.796875 -4.5625 C 2.597656 -4.382812 2.492188 -4.148438 2.484375 -3.859375 Z M 2.484375 -3.859375 "/></g></g><g style="fill:#000000;fill-opacity:1;"><g transform="translate(83.114791, 99.135987)"><path style="stroke:none" d="M 3.3125 -6.171875 C 3.65625 -6.171875 3.992188 -6.128906 4.328125 -6.046875 C 4.660156 -5.972656 4.910156 -5.898438 5.078125 -5.828125 L 5.3125 -5.703125 L 4.640625 -4.34375 C 4.171875 -4.59375 3.726562 -4.71875 3.3125 -4.71875 C 3.070312 -4.71875 2.90625 -4.691406 2.8125 -4.640625 C 2.71875 -4.585938 2.671875 -4.492188 2.671875 -4.359375 C 2.671875 -4.328125 2.671875 -4.296875 2.671875 -4.265625 C 2.679688 -4.234375 2.695312 -4.203125 2.71875 -4.171875 C 2.75 -4.148438 2.769531 -4.128906 2.78125 -4.109375 C 2.800781 -4.085938 2.832031 -4.066406 2.875 -4.046875 C 2.925781 -4.023438 2.960938 -4.003906 2.984375 -3.984375 C 3.015625 -3.972656 3.0625 -3.957031 3.125 -3.9375 C 3.1875 -3.914062 3.234375 -3.898438 3.265625 -3.890625 C 3.296875 -3.878906 3.347656 -3.859375 3.421875 -3.828125 C 3.503906 -3.804688 3.5625 -3.789062 3.59375 -3.78125 C 3.84375 -3.71875 4.054688 -3.640625 4.234375 -3.546875 C 4.410156 -3.460938 4.597656 -3.347656 4.796875 -3.203125 C 4.992188 -3.054688 5.144531 -2.867188 5.25 -2.640625 C 5.363281 -2.410156 5.421875 -2.15625 5.421875 -1.875 C 5.421875 -0.507812 4.472656 0.171875 2.578125 0.171875 C 2.148438 0.171875 1.742188 0.109375 1.359375 -0.015625 C 0.972656 -0.148438 0.695312 -0.285156 0.53125 -0.421875 L 0.265625 -0.625 L 1.109375 -2.046875 C 1.171875 -1.992188 1.25 -1.925781 1.34375 -1.84375 C 1.445312 -1.769531 1.628906 -1.671875 1.890625 -1.546875 C 2.160156 -1.421875 2.394531 -1.359375 2.59375 -1.359375 C 3.019531 -1.359375 3.234375 -1.5 3.234375 -1.78125 C 3.234375 -1.914062 3.175781 -2.019531 3.0625 -2.09375 C 2.957031 -2.164062 2.773438 -2.25 2.515625 -2.34375 C 2.253906 -2.4375 2.050781 -2.523438 1.90625 -2.609375 C 1.53125 -2.804688 1.234375 -3.023438 1.015625 -3.265625 C 0.796875 -3.515625 0.6875 -3.84375 0.6875 -4.25 C 0.6875 -4.851562 0.921875 -5.320312 1.390625 -5.65625 C 1.867188 -6 2.507812 -6.171875 3.3125 -6.171875 Z M 3.3125 -6.171875 "/></g></g><g style="fill:#000000;fill-opacity:1;"><g transform="translate(88.866395, 99.135987)"><path style="stroke:none" d="M 2.65625 -6 L 2.65625 -3.140625 C 2.65625 -2.546875 2.742188 -2.125 2.921875 -1.875 C 3.097656 -1.625 3.398438 -1.5 3.828125 -1.5 C 4.253906 -1.5 4.554688 -1.625 4.734375 -1.875 C 4.921875 -2.125 5.015625 -2.546875 5.015625 -3.140625 L 5.015625 -6 L 7.078125 -6 L 7.078125 -2.640625 C 7.078125 -1.640625 6.816406 -0.921875 6.296875 -0.484375 C 5.785156 -0.046875 4.960938 0.171875 3.828125 0.171875 C 2.703125 0.171875 1.878906 -0.046875 1.359375 -0.484375 C 0.835938 -0.921875 0.578125 -1.640625 0.578125 -2.640625 L 0.578125 -6 Z M 2.65625 -6 "/></g></g><g style="fill:#000000;fill-opacity:1;"><g transform="translate(96.488439, 99.135987)"><path style="stroke:none" d="M 3.3125 -6.171875 C 3.65625 -6.171875 3.992188 -6.128906 4.328125 -6.046875 C 4.660156 -5.972656 4.910156 -5.898438 5.078125 -5.828125 L 5.3125 -5.703125 L 4.640625 -4.34375 C 4.171875 -4.59375 3.726562 -4.71875 3.3125 -4.71875 C 3.070312 -4.71875 2.90625 -4.691406 2.8125 -4.640625 C 2.71875 -4.585938 2.671875 -4.492188 2.671875 -4.359375 C 2.671875 -4.328125 2.671875 -4.296875 2.671875 -4.265625 C 2.679688 -4.234375 2.695312 -4.203125 2.71875 -4.171875 C 2.75 -4.148438 2.769531 -4.128906 2.78125 -4.109375 C 2.800781 -4.085938 2.832031 -4.066406 2.875 -4.046875 C 2.925781 -4.023438 2.960938 -4.003906 2.984375 -3.984375 C 3.015625 -3.972656 3.0625 -3.957031 3.125 -3.9375 C 3.1875 -3.914062 3.234375 -3.898438 3.265625 -3.890625 C 3.296875 -3.878906 3.347656 -3.859375 3.421875 -3.828125 C 3.503906 -3.804688 3.5625 -3.789062 3.59375 -3.78125 C 3.84375 -3.71875 4.054688 -3.640625 4.234375 -3.546875 C 4.410156 -3.460938 4.597656 -3.347656 4.796875 -3.203125 C 4.992188 -3.054688 5.144531 -2.867188 5.25 -2.640625 C 5.363281 -2.410156 5.421875 -2.15625 5.421875 -1.875 C 5.421875 -0.507812 4.472656 0.171875 2.578125 0.171875 C 2.148438 0.171875 1.742188 0.109375 1.359375 -0.015625 C 0.972656 -0.148438 0.695312 -0.285156 0.53125 -0.421875 L 0.265625 -0.625 L 1.109375 -2.046875 C 1.171875 -1.992188 1.25 -1.925781 1.34375 -1.84375 C 1.445312 -1.769531 1.628906 -1.671875 1.890625 -1.546875 C 2.160156 -1.421875 2.394531 -1.359375 2.59375 -1.359375 C 3.019531 -1.359375 3.234375 -1.5 3.234375 -1.78125 C 3.234375 -1.914062 3.175781 -2.019531 3.0625 -2.09375 C 2.957031 -2.164062 2.773438 -2.25 2.515625 -2.34375 C 2.253906 -2.4375 2.050781 -2.523438 1.90625 -2.609375 C 1.53125 -2.804688 1.234375 -3.023438 1.015625 -3.265625 C 0.796875 -3.515625 0.6875 -3.84375 0.6875 -4.25 C 0.6875 -4.851562 0.921875 -5.320312 1.390625 -5.65625 C 1.867188 -6 2.507812 -6.171875 3.3125 -6.171875 Z M 3.3125 -6.171875 "/></g></g><g style="fill:#000000;fill-opacity:1;"><g transform="translate(102.240043, 99.135987)"><path style="stroke:none" d="M 2.03125 -2.5 C 2.40625 -2.5 2.722656 -2.367188 2.984375 -2.109375 C 3.242188 -1.847656 3.375 -1.53125 3.375 -1.15625 C 3.375 -0.789062 3.242188 -0.476562 2.984375 -0.21875 C 2.722656 0.0390625 2.40625 0.171875 2.03125 0.171875 C 1.664062 0.171875 1.351562 0.0390625 1.09375 -0.21875 C 0.832031 -0.476562 0.703125 -0.789062 0.703125 -1.15625 C 0.703125 -1.53125 0.832031 -1.847656 1.09375 -2.109375 C 1.351562 -2.367188 1.664062 -2.5 2.03125 -2.5 Z M 2.03125 -2.5 "/></g></g><g style="fill:#000000;fill-opacity:1;"><g transform="translate(106.319946, 99.135987)"><path style="stroke:none" d="M 1.0625 -9.453125 C 1.300781 -9.691406 1.585938 -9.8125 1.921875 -9.8125 C 2.253906 -9.8125 2.535156 -9.691406 2.765625 -9.453125 C 3.003906 -9.222656 3.125 -8.9375 3.125 -8.59375 C 3.125 -7.539062 2.535156 -6.53125 1.359375 -5.5625 L 0.8125 -6 C 0.851562 -6.039062 0.910156 -6.101562 0.984375 -6.1875 C 1.054688 -6.269531 1.164062 -6.441406 1.3125 -6.703125 C 1.46875 -6.960938 1.570312 -7.222656 1.625 -7.484375 C 1.351562 -7.546875 1.128906 -7.675781 0.953125 -7.875 C 0.785156 -8.082031 0.703125 -8.320312 0.703125 -8.59375 C 0.703125 -8.925781 0.820312 -9.210938 1.0625 -9.453125 Z M 4.015625 -9.453125 C 4.253906 -9.691406 4.539062 -9.8125 4.875 -9.8125 C 5.207031 -9.8125 5.492188 -9.691406 5.734375 -9.453125 C 5.972656 -9.210938 6.09375 -8.925781 6.09375 -8.59375 C 6.09375 -7.5625 5.503906 -6.550781 4.328125 -5.5625 L 3.78125 -6 C 3.820312 -6.039062 3.878906 -6.101562 3.953125 -6.1875 C 4.023438 -6.269531 4.132812 -6.441406 4.28125 -6.703125 C 4.4375 -6.960938 4.535156 -7.222656 4.578125 -7.484375 C 4.316406 -7.546875 4.097656 -7.675781 3.921875 -7.875 C 3.753906 -8.082031 3.671875 -8.320312 3.671875 -8.59375 C 3.671875 -8.9375 3.785156 -9.222656 4.015625 -9.453125 Z M 4.015625 -9.453125 "/></g></g><g style="fill:#000000;fill-opacity:1;"><g transform="translate(20.364844, 115.417598)"><path style="stroke:none" d="M 0.703125 -4.28125 L 4.46875 -4.28125 L 4.46875 -2.484375 L 0.703125 -2.484375 Z M 0.703125 -4.28125 "/></g></g><g style="fill:#000000;fill-opacity:1;"><g transform="translate(25.531933, 115.417598)"><path style="stroke:none" d=""/></g></g><g style="fill:#000000;fill-opacity:1;"><g transform="translate(28.723376, 115.417598)"><path style="stroke:none" d="M 0.703125 -9.640625 L 4.21875 -9.640625 C 5.195312 -9.640625 5.988281 -9.382812 6.59375 -8.875 C 7.207031 -8.375 7.515625 -7.640625 7.515625 -6.671875 C 7.515625 -5.703125 7.207031 -4.941406 6.59375 -4.390625 C 5.976562 -3.847656 5.1875 -3.578125 4.21875 -3.578125 L 2.90625 -3.578125 L 2.90625 0 L 0.703125 0 Z M 2.90625 -5.328125 L 3.515625 -5.328125 C 4.003906 -5.328125 4.40625 -5.425781 4.71875 -5.625 C 5.039062 -5.820312 5.203125 -6.148438 5.203125 -6.609375 C 5.203125 -7.066406 5.039062 -7.394531 4.71875 -7.59375 C 4.40625 -7.789062 4.003906 -7.890625 3.515625 -7.890625 L 2.90625 -7.890625 Z M 2.90625 -5.328125 "/></g></g><g style="fill:#000000;fill-opacity:1;"><g transform="translate(36.509081, 115.417598)"><path style="stroke:none" d="M 0.703125 0 L 0.703125 -10.046875 L 2.765625 -10.046875 L 2.765625 -5.359375 L 2.796875 -5.359375 C 3.328125 -5.898438 3.898438 -6.171875 4.515625 -6.171875 C 4.804688 -6.171875 5.097656 -6.128906 5.390625 -6.046875 C 5.679688 -5.972656 5.960938 -5.851562 6.234375 -5.6875 C 6.503906 -5.53125 6.722656 -5.300781 6.890625 -5 C 7.054688 -4.695312 7.140625 -4.347656 7.140625 -3.953125 L 7.140625 0 L 5.078125 0 L 5.078125 -3.390625 C 5.078125 -3.703125 4.972656 -3.972656 4.765625 -4.203125 C 4.566406 -4.441406 4.3125 -4.5625 4 -4.5625 C 3.6875 -4.5625 3.398438 -4.4375 3.140625 -4.1875 C 2.890625 -3.945312 2.765625 -3.679688 2.765625 -3.390625 L 2.765625 0 Z M 0.703125 0 "/></g></g><g style="fill:#000000;fill-opacity:1;"><g transform="translate(44.236332, 115.417598)"><path style="stroke:none" d="M 0.890625 -9.328125 C 1.140625 -9.578125 1.429688 -9.703125 1.765625 -9.703125 C 2.097656 -9.703125 2.382812 -9.578125 2.625 -9.328125 C 2.863281 -9.085938 2.984375 -8.800781 2.984375 -8.46875 C 2.984375 -8.132812 2.863281 -7.847656 2.625 -7.609375 C 2.382812 -7.367188 2.097656 -7.25 1.765625 -7.25 C 1.429688 -7.25 1.140625 -7.367188 0.890625 -7.609375 C 0.648438 -7.847656 0.53125 -8.132812 0.53125 -8.46875 C 0.53125 -8.800781 0.648438 -9.085938 0.890625 -9.328125 Z M 0.703125 -6 L 0.703125 0 L 2.765625 0 L 2.765625 -6 Z M 0.703125 -6 "/></g></g><g style="fill:#000000;fill-opacity:1;"><g transform="translate(47.766785, 115.417598)"><path style="stroke:none" d="M 0.703125 0 L 0.703125 -10.046875 L 2.765625 -10.046875 L 2.765625 0 Z M 0.703125 0 "/></g></g><g style="fill:#000000;fill-opacity:1;"><g transform="translate(51.238784, 115.417598)"><path style="stroke:none" d="M 0.890625 -9.328125 C 1.140625 -9.578125 1.429688 -9.703125 1.765625 -9.703125 C 2.097656 -9.703125 2.382812 -9.578125 2.625 -9.328125 C 2.863281 -9.085938 2.984375 -8.800781 2.984375 -8.46875 C 2.984375 -8.132812 2.863281 -7.847656 2.625 -7.609375 C 2.382812 -7.367188 2.097656 -7.25 1.765625 -7.25 C 1.429688 -7.25 1.140625 -7.367188 0.890625 -7.609375 C 0.648438 -7.847656 0.53125 -8.132812 0.53125 -8.46875 C 0.53125 -8.800781 0.648438 -9.085938 0.890625 -9.328125 Z M 0.703125 -6 L 0.703125 0 L 2.765625 0 L 2.765625 -6 Z M 0.703125 -6 "/></g></g><g style="fill:#000000;fill-opacity:1;"><g transform="translate(54.769237, 115.417598)"><path style="stroke:none" d="M 6.875 -5.25 C 7.4375 -4.644531 7.71875 -3.894531 7.71875 -3 C 7.71875 -2.113281 7.4375 -1.363281 6.875 -0.75 C 6.3125 -0.132812 5.597656 0.171875 4.734375 0.171875 C 3.941406 0.171875 3.285156 -0.078125 2.765625 -0.578125 L 2.765625 3.03125 L 0.703125 3.03125 L 0.703125 -6 L 2.75 -6 L 2.75 -5.3125 L 2.765625 -5.3125 C 3.285156 -5.882812 3.941406 -6.171875 4.734375 -6.171875 C 5.597656 -6.171875 6.3125 -5.863281 6.875 -5.25 Z M 5.109375 -1.984375 C 5.378906 -2.253906 5.515625 -2.59375 5.515625 -3 C 5.515625 -3.414062 5.382812 -3.753906 5.125 -4.015625 C 4.875 -4.273438 4.535156 -4.40625 4.109375 -4.40625 C 3.703125 -4.40625 3.367188 -4.269531 3.109375 -4 C 2.847656 -3.738281 2.71875 -3.40625 2.71875 -3 C 2.71875 -2.59375 2.851562 -2.253906 3.125 -1.984375 C 3.394531 -1.722656 3.722656 -1.59375 4.109375 -1.59375 C 4.503906 -1.59375 4.835938 -1.722656 5.109375 -1.984375 Z M 5.109375 -1.984375 "/></g></g><g style="fill:#000000;fill-opacity:1;"><g transform="translate(62.75368, 115.417598)"><path style="stroke:none" d="M 6.875 -5.25 C 7.4375 -4.644531 7.71875 -3.894531 7.71875 -3 C 7.71875 -2.113281 7.4375 -1.363281 6.875 -0.75 C 6.3125 -0.132812 5.597656 0.171875 4.734375 0.171875 C 3.941406 0.171875 3.285156 -0.078125 2.765625 -0.578125 L 2.765625 3.03125 L 0.703125 3.03125 L 0.703125 -6 L 2.75 -6 L 2.75 -5.3125 L 2.765625 -5.3125 C 3.285156 -5.882812 3.941406 -6.171875 4.734375 -6.171875 C 5.597656 -6.171875 6.3125 -5.863281 6.875 -5.25 Z M 5.109375 -1.984375 C 5.378906 -2.253906 5.515625 -2.59375 5.515625 -3 C 5.515625 -3.414062 5.382812 -3.753906 5.125 -4.015625 C 4.875 -4.273438 4.535156 -4.40625 4.109375 -4.40625 C 3.703125 -4.40625 3.367188 -4.269531 3.109375 -4 C 2.847656 -3.738281 2.71875 -3.40625 2.71875 -3 C 2.71875 -2.59375 2.851562 -2.253906 3.125 -1.984375 C 3.394531 -1.722656 3.722656 -1.59375 4.109375 -1.59375 C 4.503906 -1.59375 4.835938 -1.722656 5.109375 -1.984375 Z M 5.109375 -1.984375 "/></g></g><g style="fill:#000000;fill-opacity:1;"><g transform="translate(70.738124, 115.417598)"><path style="stroke:none" d="M 0.890625 -9.328125 C 1.140625 -9.578125 1.429688 -9.703125 1.765625 -9.703125 C 2.097656 -9.703125 2.382812 -9.578125 2.625 -9.328125 C 2.863281 -9.085938 2.984375 -8.800781 2.984375 -8.46875 C 2.984375 -8.132812 2.863281 -7.847656 2.625 -7.609375 C 2.382812 -7.367188 2.097656 -7.25 1.765625 -7.25 C 1.429688 -7.25 1.140625 -7.367188 0.890625 -7.609375 C 0.648438 -7.847656 0.53125 -8.132812 0.53125 -8.46875 C 0.53125 -8.800781 0.648438 -9.085938 0.890625 -9.328125 Z M 0.703125 -6 L 0.703125 0 L 2.765625 0 L 2.765625 -6 Z M 0.703125 -6 "/></g></g><g style="fill:#000000;fill-opacity:1;"><g transform="translate(74.268577, 115.417598)"><path style="stroke:none" d="M 1.109375 -0.734375 C 0.546875 -1.347656 0.265625 -2.097656 0.265625 -2.984375 C 0.265625 -3.878906 0.546875 -4.632812 1.109375 -5.25 C 1.671875 -5.863281 2.382812 -6.171875 3.25 -6.171875 C 4.039062 -6.171875 4.695312 -5.921875 5.21875 -5.421875 L 5.21875 -6 L 7.28125 -6 L 7.28125 0 L 5.234375 0 L 5.234375 -0.671875 L 5.21875 -0.671875 C 4.695312 -0.109375 4.039062 0.171875 3.25 0.171875 C 2.382812 0.171875 1.671875 -0.128906 1.109375 -0.734375 Z M 2.859375 -4 C 2.597656 -3.738281 2.46875 -3.398438 2.46875 -2.984375 C 2.46875 -2.578125 2.59375 -2.242188 2.84375 -1.984375 C 3.101562 -1.722656 3.445312 -1.59375 3.875 -1.59375 C 4.269531 -1.59375 4.597656 -1.722656 4.859375 -1.984375 C 5.128906 -2.253906 5.265625 -2.585938 5.265625 -2.984375 C 5.265625 -3.398438 5.128906 -3.738281 4.859375 -4 C 4.585938 -4.269531 4.257812 -4.40625 3.875 -4.40625 C 3.46875 -4.40625 3.128906 -4.269531 2.859375 -4 Z M 2.859375 -4 "/></g></g><g style="fill:#000000;fill-opacity:1;"><g transform="translate(82.25302, 115.417598)"><path style="stroke:none" d="M 0.703125 0 L 0.703125 -6 L 2.765625 -6 L 2.765625 -5.359375 L 2.796875 -5.359375 C 3.328125 -5.898438 3.898438 -6.171875 4.515625 -6.171875 C 4.804688 -6.171875 5.097656 -6.128906 5.390625 -6.046875 C 5.679688 -5.972656 5.960938 -5.851562 6.234375 -5.6875 C 6.503906 -5.53125 6.722656 -5.300781 6.890625 -5 C 7.054688 -4.695312 7.140625 -4.347656 7.140625 -3.953125 L 7.140625 0 L 5.078125 0 L 5.078125 -3.390625 C 5.078125 -3.703125 4.972656 -3.972656 4.765625 -4.203125 C 4.566406 -4.441406 4.3125 -4.5625 4 -4.5625 C 3.6875 -4.5625 3.398438 -4.4375 3.140625 -4.1875 C 2.890625 -3.945312 2.765625 -3.679688 2.765625 -3.390625 L 2.765625 0 Z M 0.703125 0 "/></g></g><g style="fill:#000000;fill-opacity:1;"><g transform="translate(89.921818, 115.417598)"><path style="stroke:none" d="M 3.3125 -6.171875 C 3.65625 -6.171875 3.992188 -6.128906 4.328125 -6.046875 C 4.660156 -5.972656 4.910156 -5.898438 5.078125 -5.828125 L 5.3125 -5.703125 L 4.640625 -4.34375 C 4.171875 -4.59375 3.726562 -4.71875 3.3125 -4.71875 C 3.070312 -4.71875 2.90625 -4.691406 2.8125 -4.640625 C 2.71875 -4.585938 2.671875 -4.492188 2.671875 -4.359375 C 2.671875 -4.328125 2.671875 -4.296875 2.671875 -4.265625 C 2.679688 -4.234375 2.695312 -4.203125 2.71875 -4.171875 C 2.75 -4.148438 2.769531 -4.128906 2.78125 -4.109375 C 2.800781 -4.085938 2.832031 -4.066406 2.875 -4.046875 C 2.925781 -4.023438 2.960938 -4.003906 2.984375 -3.984375 C 3.015625 -3.972656 3.0625 -3.957031 3.125 -3.9375 C 3.1875 -3.914062 3.234375 -3.898438 3.265625 -3.890625 C 3.296875 -3.878906 3.347656 -3.859375 3.421875 -3.828125 C 3.503906 -3.804688 3.5625 -3.789062 3.59375 -3.78125 C 3.84375 -3.71875 4.054688 -3.640625 4.234375 -3.546875 C 4.410156 -3.460938 4.597656 -3.347656 4.796875 -3.203125 C 4.992188 -3.054688 5.144531 -2.867188 5.25 -2.640625 C 5.363281 -2.410156 5.421875 -2.15625 5.421875 -1.875 C 5.421875 -0.507812 4.472656 0.171875 2.578125 0.171875 C 2.148438 0.171875 1.742188 0.109375 1.359375 -0.015625 C 0.972656 -0.148438 0.695312 -0.285156 0.53125 -0.421875 L 0.265625 -0.625 L 1.109375 -2.046875 C 1.171875 -1.992188 1.25 -1.925781 1.34375 -1.84375 C 1.445312 -1.769531 1.628906 -1.671875 1.890625 -1.546875 C 2.160156 -1.421875 2.394531 -1.359375 2.59375 -1.359375 C 3.019531 -1.359375 3.234375 -1.5 3.234375 -1.78125 C 3.234375 -1.914062 3.175781 -2.019531 3.0625 -2.09375 C 2.957031 -2.164062 2.773438 -2.25 2.515625 -2.34375 C 2.253906 -2.4375 2.050781 -2.523438 1.90625 -2.609375 C 1.53125 -2.804688 1.234375 -3.023438 1.015625 -3.265625 C 0.796875 -3.515625 0.6875 -3.84375 0.6875 -4.25 C 0.6875 -4.851562 0.921875 -5.320312 1.390625 -5.65625 C 1.867188 -6 2.507812 -6.171875 3.3125 -6.171875 Z M 3.3125 -6.171875 "/></g></g><g style="fill:#000000;fill-opacity:1;"><g transform="translate(95.673422, 115.417598)"><path style="stroke:none" d=""/></g></g><g style="fill:#000000;fill-opacity:1;"><g transform="translate(98.864864, 115.417598)"><path style="stroke:none" d="M 6.515625 -3.96875 L 7.625 -3.96875 L 7.625 -2.03125 L 6.515625 -2.03125 L 6.515625 0 L 4.453125 0 L 4.453125 -2.03125 L -0.296875 -2.03125 L -0.296875 -2.6875 L 4.34375 -9.640625 L 6.515625 -9.640625 Z M 4.453125 -6.703125 L 4.421875 -6.703125 L 2.71875 -3.96875 L 4.453125 -3.96875 Z M 4.453125 -6.703125 "/></g></g><g style="fill:#000000;fill-opacity:1;"><g transform="translate(106.650569, 115.417598)"><path style="stroke:none" d="M 2.03125 -6.46875 C 2.40625 -6.46875 2.722656 -6.335938 2.984375 -6.078125 C 3.242188 -5.816406 3.375 -5.5 3.375 -5.125 C 3.375 -4.757812 3.242188 -4.445312 2.984375 -4.1875 C 2.722656 -3.925781 2.40625 -3.796875 2.03125 -3.796875 C 1.664062 -3.796875 1.351562 -3.925781 1.09375 -4.1875 C 0.832031 -4.445312 0.703125 -4.757812 0.703125 -5.125 C 0.703125 -5.5 0.832031 -5.816406 1.09375 -6.078125 C 1.351562 -6.335938 1.664062 -6.46875 2.03125 -6.46875 Z M 2.03125 -2.5 C 2.40625 -2.5 2.722656 -2.367188 2.984375 -2.109375 C 3.242188 -1.847656 3.375 -1.53125 3.375 -1.15625 C 3.375 -0.789062 3.242188 -0.476562 2.984375 -0.21875 C 2.722656 0.0390625 2.40625 0.171875 2.03125 0.171875 C 1.664062 0.171875 1.351562 0.0390625 1.09375 -0.21875 C 0.832031 -0.476562 0.703125 -0.789062 0.703125 -1.15625 C 0.703125 -1.53125 0.832031 -1.847656 1.09375 -2.109375 C 1.351562 -2.367188 1.664062 -2.5 2.03125 -2.5 Z M 2.03125 -2.5 "/></g></g><g style="fill:#000000;fill-opacity:1;"><g transform="translate(110.730471, 115.417598)"><path style="stroke:none" d="M 0.34375 -5.6875 L 0.34375 -7.859375 L 3.078125 -9.640625 L 4.125 -9.640625 L 4.125 0 L 1.921875 0 L 1.921875 -6.71875 Z M 0.34375 -5.6875 "/></g></g><g style="fill:#000000;fill-opacity:1;"><g transform="translate(115.55855, 115.417598)"><path style="stroke:none" d="M 1.28125 0 L 4.109375 -3.3125 C 3.953125 -3.21875 3.722656 -3.171875 3.421875 -3.171875 C 3.078125 -3.171875 2.726562 -3.238281 2.375 -3.375 C 2.03125 -3.519531 1.703125 -3.726562 1.390625 -4 C 1.085938 -4.269531 0.835938 -4.625 0.640625 -5.0625 C 0.441406 -5.507812 0.34375 -6.003906 0.34375 -6.546875 C 0.34375 -7.085938 0.445312 -7.570312 0.65625 -8 C 0.863281 -8.4375 1.140625 -8.78125 1.484375 -9.03125 C 1.835938 -9.289062 2.21875 -9.484375 2.625 -9.609375 C 3.039062 -9.742188 3.472656 -9.8125 3.921875 -9.8125 C 5.003906 -9.8125 5.914062 -9.492188 6.65625 -8.859375 C 7.394531 -8.234375 7.765625 -7.460938 7.765625 -6.546875 C 7.765625 -5.765625 7.65625 -5.125 7.4375 -4.625 C 7.226562 -4.125 6.832031 -3.484375 6.25 -2.703125 L 3.984375 0 Z M 5.5 -6.546875 C 5.5 -6.960938 5.359375 -7.304688 5.078125 -7.578125 C 4.804688 -7.859375 4.457031 -8 4.03125 -8 C 3.601562 -8 3.25 -7.859375 2.96875 -7.578125 C 2.6875 -7.304688 2.546875 -6.960938 2.546875 -6.546875 C 2.546875 -6.117188 2.6875 -5.757812 2.96875 -5.46875 C 3.257812 -5.1875 3.613281 -5.046875 4.03125 -5.046875 C 4.4375 -5.046875 4.78125 -5.1875 5.0625 -5.46875 C 5.351562 -5.757812 5.5 -6.117188 5.5 -6.546875 Z M 5.5 -6.546875 "/></g></g></g></svg>